<svg width="924" height="924" viewBox="0 0 924 924" fill="none" xmlns="http://www.w3.org/2000/svg">
<path d="M470.001 183.292L470.001 151.292H470.001V183.292ZM749.001 423.344L781.001 423.344L781.001 423.344L749.001 423.344ZM747.883 444.975L716.054 441.671L715.959 442.583L715.917 443.499L747.883 444.975ZM536.036 740.435L549.546 769.443L549.548 769.442L536.036 740.435ZM522.212 720.097L493.753 705.465L493.753 705.466L522.212 720.097ZM511.466 660.761L514.794 628.935L511.091 628.547L507.397 629.021L511.466 660.761ZM470.001 663.396L470.001 695.396L470.001 695.396L470.001 663.396ZM191 423.344L159 423.344V423.344H191ZM470.001 183.292L470.001 215.292C611.1 215.293 717.001 312.786 717.001 423.344L749.001 423.344L781.001 423.344C781.001 268.748 637.077 151.293 470.001 151.292L470.001 183.292ZM749.001 423.344H717.001C717.001 429.526 716.68 435.638 716.054 441.671L747.883 444.975L779.712 448.279C780.565 440.061 781.001 431.744 781.001 423.344H749.001ZM747.883 444.975L715.917 443.499C713.03 506.008 685.043 563.637 646.496 611.092C607.849 658.671 560.333 693.816 522.524 711.428L536.036 740.435L549.548 769.442C596.648 747.503 651.768 706.111 696.173 651.444C740.678 596.653 776.16 526.328 779.849 446.451L747.883 444.975ZM536.036 740.435L522.526 711.427C531.999 707.015 540.789 709.476 545.302 711.964C549.211 714.119 550.909 716.576 551.383 717.308C551.987 718.241 552.622 719.53 552.979 721.507C553.275 723.152 553.918 728.414 550.671 734.728L522.212 720.097L493.753 705.466C488.447 715.785 488.768 726.067 489.995 732.869C491.282 740.005 494.101 746.591 497.654 752.082C501.079 757.373 506.495 763.651 514.404 768.011C522.918 772.705 535.992 775.756 549.546 769.443L536.036 740.435ZM522.212 720.097L550.671 734.729C558.748 719.019 565.55 698.535 563.75 678.795C562.804 668.413 559.248 656.271 550.033 646.081C540.491 635.529 527.796 630.295 514.794 628.935L511.466 660.761L508.137 692.588C508.491 692.625 505.493 692.247 502.564 689.008C499.964 686.132 499.938 683.76 500.015 684.604C500.098 685.516 500.053 688.019 498.974 692.165C497.936 696.159 496.177 700.751 493.753 705.465L522.212 720.097ZM511.466 660.761L507.397 629.021C495.214 630.583 482.727 631.396 470.001 631.396L470.001 663.396L470.001 695.396C485.455 695.396 500.66 694.408 515.535 692.501L511.466 660.761ZM470.001 663.396V631.396C328.902 631.396 223 533.902 223 423.344H191H159C159 577.94 302.924 695.396 470.001 695.396V663.396ZM191 423.344L223 423.344C223 312.786 328.902 215.292 470.001 215.292V183.292V151.292C302.924 151.292 159 268.748 159 423.344L191 423.344Z" fill="black"/>
<circle cx="336" cy="441.08" r="42" fill="black"/>
<circle cx="468" cy="441.08" r="42" fill="black"/>
<circle cx="600" cy="441.08" r="42" fill="black"/>
</svg>
