<svg width="924" height="924" viewBox="0 0 924 924" fill="none" xmlns="http://www.w3.org/2000/svg">
<g clip-path="url(#clip0_2010_7423)">
<circle cx="462.366" cy="462.367" r="462" transform="rotate(45 462.366 462.367)" fill="#FFC800"/>
<mask id="mask0_2010_7423" style="mask-type:alpha" maskUnits="userSpaceOnUse" x="0" y="0" width="925" height="925">
<circle cx="462.366" cy="462.367" r="462" transform="rotate(45 462.366 462.367)" fill="#FFC800"/>
</mask>
<g mask="url(#mask0_2010_7423)">
<rect x="743.088" y="347.108" width="64" height="64" rx="32" transform="rotate(45 743.088 347.108)" fill="black"/>
<rect x="571.222" y="518.975" width="64" height="64" rx="32" transform="rotate(45 571.222 518.975)" fill="black"/>
<path d="M672.981 315.392L524.488 166.9C493.247 135.658 442.593 135.658 411.351 166.9L391.814 186.437C369.34 208.91 362.302 242.556 373.881 272.153L406.076 354.441C418.983 387.432 385.8 419.679 353.192 405.834L275.971 373.046C245.95 360.3 211.198 367.053 188.136 390.115L164.623 413.627C133.382 444.869 133.382 495.523 164.624 526.765L322.726 684.867" stroke="black" stroke-width="64" stroke-linecap="round"/>
<path d="M468.107 670.171L337.812 800.467" stroke="black" stroke-width="64" stroke-linecap="round"/>
<path d="M534.576 736.639L404.28 866.935" stroke="black" stroke-width="64" stroke-linecap="round"/>
</g>
</g>
<defs>
<clipPath id="clip0_2010_7423">
<rect width="924" height="924" fill="white"/>
</clipPath>
</defs>
</svg>
