<svg width="475" height="712" viewBox="0 0 475 712" fill="none" xmlns="http://www.w3.org/2000/svg">
<mask id="path-1-outside-1_3_3821" maskUnits="userSpaceOnUse" x="-211.607" y="-94.0029" width="755.29" height="882.272" fill="black">
<rect fill="white" x="-211.607" y="-94.0029" width="755.29" height="882.272"/>
<path fill-rule="evenodd" clip-rule="evenodd" d="M12.7152 37.6835C12.7163 15.4278 39.6107 4.26742 55.3691 19.9834L455.377 418.916C467.997 431.503 463.768 452.876 447.305 459.708L336.879 505.532C324.126 510.824 318.078 525.452 323.37 538.204L360.931 628.72C366.223 641.473 360.175 656.101 347.423 661.393L260.601 697.422C247.848 702.714 233.22 696.666 227.928 683.913L190.367 593.397C185.075 580.644 170.447 574.596 157.694 579.888L47.2677 625.712C30.8044 632.544 12.6848 620.444 12.6857 602.62L12.7152 37.6835Z"/>
</mask>
<path fill-rule="evenodd" clip-rule="evenodd" d="M12.7152 37.6835C12.7163 15.4278 39.6107 4.26742 55.3691 19.9834L455.377 418.916C467.997 431.503 463.768 452.876 447.305 459.708L336.879 505.532C324.126 510.824 318.078 525.452 323.37 538.204L360.931 628.72C366.223 641.473 360.175 656.101 347.423 661.393L260.601 697.422C247.848 702.714 233.22 696.666 227.928 683.913L190.367 593.397C185.075 580.644 170.447 574.596 157.694 579.888L47.2677 625.712C30.8044 632.544 12.6848 620.444 12.6857 602.62L12.7152 37.6835Z" fill="white"/>
<path d="M47.2677 625.712L51.8671 636.796L47.2677 625.712ZM12.6857 602.62L24.6857 602.62L12.6857 602.62ZM157.694 579.888L153.095 568.805L157.694 579.888ZM55.3691 19.9834L63.8429 11.4867L55.3691 19.9834ZM455.377 418.916L463.85 410.419L455.377 418.916ZM463.85 410.419L63.8429 11.4867L46.8952 28.4801L446.903 427.412L463.85 410.419ZM341.478 516.615L451.904 470.792L442.705 448.624L332.279 494.448L341.478 516.615ZM312.286 542.804L349.848 633.32L372.015 624.121L334.453 533.605L312.286 542.804ZM342.823 650.31L256.002 686.338L265.201 708.505L352.022 672.477L342.823 650.31ZM239.012 679.313L201.45 588.798L179.283 597.996L216.845 688.512L239.012 679.313ZM51.8671 636.796L162.293 590.972L153.095 568.805L42.6684 614.628L51.8671 636.796ZM0.715187 37.6829L0.68571 602.619L24.6857 602.62L24.7152 37.6842L0.715187 37.6829ZM42.6684 614.628C34.1075 618.181 24.6852 611.889 24.6857 602.62L0.68571 602.619C0.684334 628.999 27.5014 646.907 51.8671 636.796L42.6684 614.628ZM201.45 588.798C193.618 569.924 171.969 560.972 153.095 568.805L162.293 590.972C168.925 588.22 176.531 591.365 179.283 597.996L201.45 588.798ZM256.002 686.338C249.37 689.09 241.764 685.945 239.012 679.313L216.845 688.512C224.677 707.386 246.327 716.337 265.201 708.505L256.002 686.338ZM349.848 633.32C352.6 639.951 349.455 647.558 342.823 650.31L352.022 672.477C370.896 664.645 379.847 642.995 372.015 624.121L349.848 633.32ZM332.279 494.448C313.405 502.28 304.454 523.93 312.286 542.804L334.453 533.605C331.702 526.974 334.847 519.367 341.478 516.615L332.279 494.448ZM63.8429 11.4867C40.5206 -11.7729 0.716906 4.74433 0.715187 37.6829L24.7152 37.6842C24.7158 26.1112 38.7008 20.3078 46.8952 28.4801L63.8429 11.4867ZM446.903 427.412C453.466 433.958 451.266 445.072 442.705 448.624L451.904 470.792C476.27 460.68 482.529 429.048 463.85 410.419L446.903 427.412Z" fill="#0E0E0E" mask="url(#path-1-outside-1_3_3821)"/>
</svg>
