<svg width="803" height="714" viewBox="0 0 803 714" fill="none" xmlns="http://www.w3.org/2000/svg">
<path fill-rule="evenodd" clip-rule="evenodd" d="M770.249 393.125C783.526 393.125 795.424 384.927 800.151 372.52C804.879 360.114 801.455 346.076 791.545 337.24L422.421 8.11569C410.285 -2.70499 391.964 -2.70499 379.828 8.11569L10.7034 337.24C0.793685 346.076 -2.63057 360.114 2.09727 372.52C6.8251 384.927 18.7229 393.125 31.9997 393.125L141 393.125V682C141 699.673 155.327 714 173 714H343.124H459.124H629C646.673 714 661 699.673 661 682V393.125L770.249 393.125ZM626.156 329.125H585.687C568.014 329.125 553.687 343.452 553.687 361.125C553.687 378.798 568.014 393.125 585.687 393.125H597V650H491.124V500C491.124 482.327 476.797 468 459.124 468H343.124C325.451 468 311.124 482.327 311.124 500V650H205V393.125H216.562C234.235 393.125 248.562 378.798 248.562 361.125C248.562 343.452 234.235 329.125 216.562 329.125H175.844C174.907 329.042 173.958 329 173 329C172.041 329 171.093 329.042 170.156 329.125L115.972 329.125L401.124 74.8732L686.276 329.125L631.844 329.125C630.907 329.042 629.958 329 629 329C628.041 329 627.093 329.042 626.156 329.125ZM427.124 532V650H375.124V532H427.124Z" fill="black"/>
</svg>
