<svg width="120" height="120" viewBox="0 0 120 120" fill="none" xmlns="http://www.w3.org/2000/svg">
<g clip-path="url(#clip0_2180_3891)">
<path d="M21.25 0H98.75C110.5 0 120 9.74359 120 21.7949V98.2051C120 110.256 110.5 120 98.75 120H21.25C9.5 120 0 110.256 0 98.2051V21.7949C0 9.74359 9.5 0 21.25 0Z" fill="#49021F"/>
<path d="M43.5992 31.3844V84.2049C43.5992 84.769 43.3492 85.0255 42.8992 85.0255H33.0992C32.6492 85.0255 32.4492 84.769 32.4492 84.2049V31.3844C32.4492 30.9229 32.6992 30.7178 33.1492 30.7178H42.8992C43.1992 30.6665 43.4992 30.8716 43.5492 31.2306C43.5992 31.2819 43.5992 31.3331 43.5992 31.3844Z" fill="#FF3366"/>
<path d="M72.4991 85.6411C68.7991 85.6924 65.0991 84.9232 61.7491 83.3334C58.5991 81.8462 55.9991 79.3847 54.1991 76.3591C52.3491 73.2309 51.4491 69.3334 51.4491 64.6668C51.3991 60.8719 52.3491 57.1283 54.1991 53.8462C56.0991 50.5129 58.8491 47.7437 62.1491 45.8975C65.6491 43.8975 69.8491 42.9232 74.7991 42.9232C75.0491 42.9232 75.3991 42.9232 75.8491 42.9744C76.2991 43.0257 76.7991 43.0257 77.3991 43.077V26.8719C77.3991 26.5129 77.5491 26.3078 77.8991 26.3078H88.0491C88.2991 26.2565 88.4991 26.4616 88.5491 26.6667V26.7693V75.5898C88.5491 76.5129 88.5991 77.5385 88.6491 78.6668C88.7491 79.7437 88.7991 80.7693 88.8491 81.6411C88.8491 82.0001 88.6991 82.3078 88.3491 82.4616C85.7491 83.5898 82.9991 84.4103 80.1991 84.9232C77.6991 85.3847 75.0991 85.6411 72.4991 85.6411ZM77.3991 75.3847V52.8206C76.9491 52.718 76.4991 52.6155 76.0491 52.5642C75.4991 52.5129 74.9491 52.4616 74.3991 52.4616C72.4491 52.4616 70.4991 52.8719 68.7491 53.795C67.0491 54.6668 65.5991 55.9488 64.4991 57.5898C63.3991 59.2309 62.8491 61.436 62.8491 64.1027C62.7991 65.8975 63.0991 67.6924 63.6991 69.3847C64.1991 70.7693 64.9491 72.0001 65.9491 73.0257C66.8991 73.9488 68.0491 74.6668 69.3491 75.077C70.6991 75.5385 72.0991 75.7437 73.4991 75.7437C74.2491 75.7437 74.9491 75.6924 75.5991 75.6411C76.2491 75.6924 76.8491 75.5898 77.3991 75.3847Z" fill="#FF3366"/>
</g>
<defs>
<clipPath id="clip0_2180_3891">
<rect width="120" height="120" fill="white"/>
</clipPath>
</defs>
</svg>
