<svg width="240" height="240" viewBox="0 0 240 240" fill="none" xmlns="http://www.w3.org/2000/svg">
<g clip-path="url(#clip0_2018_7449)">
<path d="M42.5 0H197.5C221 0 240 19.4872 240 43.5897V196.41C240 220.513 221 240 197.5 240H42.5C19 240 0 220.513 0 196.41V43.5897C0 19.4872 19 0 42.5 0Z" fill="#330000"/>
<path d="M116.001 143.589H78.8006L71.2006 167.692C71.0006 168.615 70.2006 169.23 69.3006 169.128H50.5006C49.4006 169.128 49.1006 168.513 49.4006 167.282L81.6006 72.2048C81.9006 71.1792 82.2006 70.051 82.6006 68.8202C83.0006 66.6664 83.2006 64.41 83.2006 62.1535C83.1006 61.6407 83.5006 61.1279 84.0006 61.0253H109.901C110.701 61.0253 111.101 61.333 111.201 61.8459L147.701 167.487C148.001 168.615 147.701 169.128 146.701 169.128H125.801C125.101 169.23 124.401 168.718 124.201 168L116.001 143.589ZM84.6006 122.769H110.001C109.401 120.615 108.601 118.051 107.701 115.384C106.801 112.615 105.901 109.641 105.001 106.564C104.001 103.384 103.101 100.307 102.101 97.1279C101.101 93.9484 100.201 90.9741 99.4006 87.9997C98.6006 85.1279 97.9006 82.4612 97.2006 79.9997H97.0006C96.1006 84.41 95.0006 88.8202 93.6006 93.2305C92.1006 98.1535 90.6006 103.282 89.0006 108.41C87.6006 113.641 86.1006 118.461 84.6006 122.769ZM170.001 78.9741C166.701 79.0766 163.501 77.7433 161.101 75.3843C158.801 72.8202 157.601 69.4356 157.701 65.9484C157.601 62.4612 158.901 59.1792 161.301 56.8202C163.701 54.4612 166.901 53.2305 170.201 53.2305C174.101 53.2305 177.101 54.4612 179.301 56.8202C181.501 59.2818 182.701 62.5638 182.601 65.9484C182.701 69.4356 181.501 72.8202 179.101 75.3843C176.801 77.8459 173.401 79.1792 170.001 78.9741ZM158.801 168V89.0253C158.801 87.9997 159.201 87.5894 160.101 87.5894H179.901C180.801 87.5894 181.201 88.1023 181.201 89.0253V168C181.201 169.128 180.801 169.641 179.901 169.641H160.301C159.301 169.641 158.801 169.025 158.801 168Z" fill="#FF9A00"/>
</g>
<defs>
<clipPath id="clip0_2018_7449">
<rect width="240" height="240" fill="white"/>
</clipPath>
</defs>
</svg>
