<svg width="120" height="120" viewBox="0 0 120 120" fill="none" xmlns="http://www.w3.org/2000/svg">
<g clip-path="url(#clip0_2018_7452)">
<path d="M21.25 0H98.75C110.5 0 120 9.74359 120 21.7949V98.2051C120 110.256 110.5 120 98.75 120H21.25C9.5 120 0 110.256 0 98.2051V21.7949C0 9.74359 9.5 0 21.25 0Z" fill="#001E36"/>
<path d="M27 84.1537V31.3845C27 31.0255 27.15 30.8204 27.5 30.8204C28.35 30.8204 29.15 30.8204 30.3 30.7691C31.5 30.7178 32.75 30.7178 34.1 30.6665C35.45 30.6153 36.9 30.6153 38.45 30.564C40 30.5127 41.5 30.5127 43 30.5127C47.1 30.5127 50.5 31.0255 53.3 32.1024C55.8 32.9742 58.1 34.4101 60 36.3076C61.6 37.9486 62.85 39.9486 63.65 42.1537C64.4 44.3076 64.8 46.5127 64.8 48.8204C64.8 53.2306 63.8 56.8717 61.8 59.7435C59.8 62.6153 57 64.7691 53.75 65.9999C50.35 67.2819 46.6 67.7435 42.5 67.7435C41.3 67.7435 40.5 67.7435 40 67.6922C39.5 67.6409 38.8 67.6409 37.85 67.6409V84.1024C37.9 84.4614 37.65 84.7691 37.3 84.8204C37.25 84.8204 37.2 84.8204 37.1 84.8204H27.6C27.2 84.8204 27 84.6153 27 84.1537ZM37.9 40.7178V57.9486C38.6 57.9999 39.25 58.0512 39.85 58.0512H42.5C44.45 58.0512 46.4 57.7435 48.25 57.1281C49.85 56.6665 51.25 55.6922 52.35 54.4101C53.4 53.1281 53.9 51.3845 53.9 49.1281C53.95 47.5383 53.55 45.9486 52.75 44.564C51.9 43.2306 50.7 42.205 49.25 41.6409C47.4 40.8717 45.4 40.564 43.35 40.6153C42.05 40.6153 40.9 40.6153 39.95 40.6665C38.95 40.6153 38.25 40.6665 37.9 40.7178Z" fill="#31A8FF"/>
<path d="M96.0009 54.8202C94.5009 53.9997 92.9009 53.4356 91.2009 53.0766C89.3509 52.6664 87.5009 52.41 85.6009 52.41C84.6009 52.3587 83.5509 52.5125 82.6009 52.7689C81.9509 52.9228 81.4009 53.2817 81.0509 53.7946C80.8009 54.2048 80.6509 54.7176 80.6509 55.1792C80.6509 55.6407 80.8509 56.1023 81.1509 56.5125C81.6009 57.0766 82.2009 57.5382 82.8509 57.8971C84.0009 58.5125 85.2009 59.0766 86.4009 59.5894C89.1009 60.5125 91.7009 61.7946 94.1009 63.333C95.7509 64.41 97.1009 65.8459 98.0509 67.5894C98.8509 69.2305 99.2509 71.0253 99.2009 72.8715C99.2509 75.2818 98.5509 77.692 97.2509 79.692C95.8509 81.7433 93.9009 83.333 91.6509 84.2561C89.2009 85.333 86.2009 85.8971 82.6009 85.8971C80.3009 85.8971 78.0509 85.692 75.8009 85.2305C74.0509 84.9228 72.3009 84.3587 70.7009 83.5894C70.3509 83.3843 70.1009 83.0253 70.1509 82.6151V73.692C70.1509 73.5382 70.2009 73.333 70.3509 73.2305C70.5009 73.1279 70.6509 73.1792 70.8009 73.2817C72.7509 74.4612 74.8009 75.2817 77.0009 75.7946C78.9009 76.3074 80.9009 76.5638 82.9009 76.5638C84.8009 76.5638 86.1509 76.3074 87.0509 75.8458C87.8509 75.4869 88.4009 74.6151 88.4009 73.692C88.4009 72.9741 88.0009 72.3074 87.2009 71.6407C86.4009 70.9741 84.7509 70.2048 82.3009 69.2305C79.7509 68.3074 77.4009 67.0766 75.2009 65.5382C73.6509 64.41 72.3509 62.9228 71.4009 61.1792C70.6009 59.5382 70.2009 57.7433 70.2509 55.9484C70.2509 53.7433 70.8509 51.6407 71.9509 49.7433C73.2009 47.692 75.0509 46.051 77.2009 45.0253C79.5509 43.7946 82.5009 43.2305 86.0509 43.2305C88.1009 43.2305 90.2009 43.3843 92.2509 43.692C93.7509 43.8971 95.2009 44.3074 96.5509 44.8715C96.7509 44.9228 96.9509 45.1279 97.0509 45.333C97.1009 45.5382 97.1509 45.7433 97.1509 45.9484V54.3074C97.1509 54.5125 97.0509 54.7176 96.9009 54.8202C96.4509 54.9228 96.2009 54.9228 96.0009 54.8202Z" fill="#31A8FF"/>
</g>
<defs>
<clipPath id="clip0_2018_7452">
<rect width="120" height="120" fill="white"/>
</clipPath>
</defs>
</svg>
