<svg width="240" height="240" viewBox="0 0 240 240" fill="none" xmlns="http://www.w3.org/2000/svg">
<g clip-path="url(#clip0_2018_7439)">
<path d="M42.5 0H197.5C221 0 240 19.4872 240 43.5897V196.41C240 220.513 221 240 197.5 240H42.5C19 240 0 220.513 0 196.41V43.5897C0 19.4872 19 0 42.5 0Z" fill="#00005B"/>
<path d="M96.401 143.589H59.201L51.601 167.794C51.401 168.718 50.601 169.333 49.701 169.23H30.901C29.801 169.23 29.501 168.615 29.801 167.384L62.001 72.7175C62.301 71.6919 62.601 70.7688 63.001 69.538C63.401 67.3842 63.601 65.1278 63.601 62.8714C63.501 62.3585 63.901 61.8457 64.401 61.7432H64.701H90.301C91.001 61.7432 91.501 62.0509 91.601 62.5637L128.101 167.179C128.401 168.307 128.101 168.82 127.101 168.82H106.201C105.501 168.923 104.801 168.41 104.601 167.692L96.401 143.077V143.589ZM65.001 123.179H90.401C89.801 121.025 89.001 118.461 88.101 115.794C87.201 113.025 86.301 110.051 85.401 106.974C84.401 103.794 83.501 100.718 82.501 97.538C81.501 94.3585 80.601 91.3842 79.801 88.4098C79.001 85.538 78.301 82.8714 77.601 80.4098H77.401C76.501 84.8201 75.401 89.2303 74.001 93.6406C72.501 98.5637 71.001 103.692 69.401 108.82C68.101 114.051 66.501 118.871 65.001 123.179Z" fill="#9999FF"/>
<path d="M187.001 134.359H155.301C155.701 137.538 156.701 140.717 158.401 143.487C160.201 146.256 162.701 148.41 165.701 149.641C169.701 151.384 174.101 152.307 178.501 152.205C182.001 152.102 185.501 151.794 188.901 151.076C192.001 150.666 195.001 149.846 197.801 148.717C198.301 148.307 198.601 148.512 198.601 149.538V165.23C198.601 165.641 198.501 166.051 198.401 166.461C198.201 166.769 198.001 166.974 197.701 167.179C194.501 168.615 191.201 169.641 187.701 170.256C183.001 171.179 178.301 171.589 173.501 171.487C165.901 171.487 159.501 170.256 154.301 167.897C149.401 165.743 145.101 162.359 141.701 158.153C138.501 154.153 136.201 149.641 134.801 144.717C133.401 139.897 132.701 134.871 132.701 129.743C132.701 124.205 133.501 118.769 135.201 113.435C136.801 108.307 139.301 103.589 142.701 99.3842C146.001 95.2816 150.101 91.9995 154.801 89.6406C159.501 87.2816 165.101 86.4611 171.501 86.4611C176.801 86.3585 182.101 87.3842 187.001 89.6406C191.101 91.4867 194.701 94.256 197.501 97.8457C200.101 101.333 202.201 105.23 203.501 109.538C204.801 113.641 205.401 117.846 205.401 122.051C205.401 124.512 205.301 126.666 205.201 128.615C205.001 130.564 204.901 132 204.801 132.923C204.701 133.641 204.101 134.256 203.401 134.256C202.801 134.256 201.701 134.359 200.101 134.461C198.501 134.666 196.601 134.769 194.301 134.769C192.001 134.769 189.601 134.359 187.001 134.359ZM155.301 119.384H176.401C179.001 119.384 180.901 119.384 182.101 119.282C182.901 119.179 183.701 118.974 184.401 118.461V117.435C184.401 116.102 184.201 114.871 183.801 113.641C182.001 107.897 176.701 104 170.801 104.205C165.301 103.897 160.101 106.871 157.501 112C156.301 114.359 155.601 116.82 155.301 119.384Z" fill="#9999FF"/>
</g>
<defs>
<clipPath id="clip0_2018_7439">
<rect width="240" height="240" fill="white"/>
</clipPath>
</defs>
</svg>
