<svg width="120" height="120" viewBox="0 0 120 120" fill="none" xmlns="http://www.w3.org/2000/svg">
<g clip-path="url(#clip0_2018_7449)">
<path d="M21.25 0H98.75C110.5 0 120 9.74359 120 21.7949V98.2051C120 110.256 110.5 120 98.75 120H21.25C9.5 120 0 110.256 0 98.2051V21.7949C0 9.74359 9.5 0 21.25 0Z" fill="#330000"/>
<path d="M57.9993 71.7947H39.3993L35.5993 83.846C35.4993 84.3075 35.0993 84.6152 34.6493 84.5639H25.2493C24.6993 84.5639 24.5493 84.2563 24.6993 83.6409L40.7993 36.1024C40.9493 35.5896 41.0993 35.0255 41.2993 34.4101C41.4993 33.3332 41.5993 32.205 41.5993 31.0768C41.5493 30.8204 41.7493 30.564 41.9993 30.5127H54.9493C55.3493 30.5127 55.5493 30.6665 55.5993 30.9229L73.8493 83.7434C73.9993 84.3075 73.8493 84.5639 73.3493 84.5639H62.8993C62.5493 84.6152 62.1993 84.3588 62.0993 83.9998L57.9993 71.7947ZM42.2993 61.3845H54.9993C54.6993 60.3075 54.2993 59.0255 53.8493 57.6922C53.3993 56.3075 52.9493 54.8204 52.4993 53.2819C51.9993 51.6922 51.5493 50.1537 51.0493 48.5639C50.5493 46.9742 50.0993 45.487 49.6993 43.9998C49.2993 42.564 48.9493 41.2306 48.5993 39.9998H48.4993C48.0493 42.205 47.4993 44.4101 46.7993 46.6152C46.0493 49.0768 45.2993 51.6409 44.4993 54.205C43.7993 56.8204 43.0493 59.2306 42.2993 61.3845ZM84.9993 39.487C83.3493 39.5383 81.7493 38.8716 80.5493 37.6922C79.3993 36.4101 78.7993 34.7178 78.8493 32.9742C78.7993 31.2306 79.4493 29.5896 80.6493 28.4101C81.8493 27.2306 83.4493 26.6152 85.0993 26.6152C87.0493 26.6152 88.5493 27.2306 89.6493 28.4101C90.7493 29.6409 91.3493 31.2819 91.2993 32.9742C91.3493 34.7178 90.7493 36.4101 89.5493 37.6922C88.3993 38.9229 86.6993 39.5896 84.9993 39.487ZM79.3993 83.9998V44.5127C79.3993 43.9998 79.5993 43.7947 80.0493 43.7947H89.9493C90.3993 43.7947 90.5993 44.0511 90.5993 44.5127V83.9998C90.5993 84.5639 90.3993 84.8204 89.9493 84.8204H80.1493C79.6493 84.8204 79.3993 84.5127 79.3993 83.9998Z" fill="#FF9A00"/>
</g>
<defs>
<clipPath id="clip0_2018_7449">
<rect width="120" height="120" fill="white"/>
</clipPath>
</defs>
</svg>
