<svg width="120" height="120" viewBox="0 0 120 120" fill="none" xmlns="http://www.w3.org/2000/svg">
<g clip-path="url(#clip0_2018_7439)">
<path d="M21.25 0H98.75C110.5 0 120 9.74359 120 21.7949V98.2051C120 110.256 110.5 120 98.75 120H21.25C9.5 120 0 110.256 0 98.2051V21.7949C0 9.74359 9.5 0 21.25 0Z" fill="#00005B"/>
<path d="M48.2005 71.7952H29.6005L25.8005 83.8977C25.7005 84.3593 25.3005 84.6669 24.8505 84.6157H15.4505C14.9005 84.6157 14.7505 84.308 14.9005 83.6926L31.0005 36.3593C31.1505 35.8464 31.3005 35.3849 31.5005 34.7695C31.7005 33.6926 31.8005 32.5644 31.8005 31.4362C31.7505 31.1798 31.9505 30.9234 32.2005 30.8721H32.3505H45.1505C45.5005 30.8721 45.7505 31.0259 45.8005 31.2823L64.0505 83.59C64.2005 84.1541 64.0505 84.4105 63.5505 84.4105H53.1005C52.7505 84.4618 52.4005 84.2054 52.3005 83.8464L48.2005 71.5387V71.7952ZM32.5005 61.59H45.2005C44.9005 60.5131 44.5005 59.231 44.0505 57.8977C43.6005 56.5131 43.1505 55.0259 42.7005 53.4875C42.2005 51.8977 41.7505 50.3592 41.2505 48.7695C40.7505 47.1798 40.3005 45.6926 39.9005 44.2054C39.5005 42.7695 39.1505 41.4362 38.8005 40.2054H38.7005C38.2505 42.4105 37.7005 44.6157 37.0005 46.8208C36.2505 49.2823 35.5005 51.8464 34.7005 54.4105C34.0505 57.0259 33.2505 59.4362 32.5005 61.59Z" fill="#9999FF"/>
<path d="M93.4996 67.1797H77.6496C77.8496 68.7695 78.3496 70.3592 79.1996 71.7438C80.0996 73.1285 81.3496 74.2054 82.8496 74.8208C84.8496 75.6926 87.0496 76.1541 89.2496 76.1028C90.9996 76.0515 92.7496 75.8977 94.4496 75.5387C95.9996 75.3336 97.4996 74.9233 98.8996 74.3592C99.1496 74.1541 99.2996 74.2567 99.2996 74.7695V82.6156C99.2996 82.8208 99.2496 83.0259 99.1996 83.231C99.0996 83.3849 98.9996 83.4874 98.8496 83.59C97.2496 84.3079 95.5996 84.8208 93.8496 85.1285C91.4996 85.59 89.1496 85.7951 86.7496 85.7438C82.9496 85.7438 79.7496 85.1285 77.1496 83.949C74.6996 82.872 72.5496 81.1797 70.8496 79.0772C69.2496 77.0772 68.0996 74.8208 67.3996 72.3592C66.6996 69.949 66.3496 67.4362 66.3496 64.8721C66.3496 62.1028 66.7496 59.3849 67.5996 56.7182C68.3996 54.1541 69.6496 51.7951 71.3496 49.6926C72.9996 47.6413 75.0496 46.0003 77.3996 44.8208C79.7496 43.6413 82.5496 43.231 85.7496 43.231C88.3996 43.1797 91.0496 43.6926 93.4996 44.8208C95.5496 45.7439 97.3496 47.1285 98.7496 48.9233C100.05 50.6669 101.1 52.6156 101.75 54.7695C102.4 56.8208 102.7 58.9233 102.7 61.0259C102.7 62.2567 102.65 63.3336 102.6 64.308C102.5 65.2823 102.45 66.0003 102.4 66.4618C102.35 66.8208 102.05 67.1285 101.7 67.1285C101.4 67.1285 100.85 67.1797 100.05 67.231C99.2496 67.3336 98.2996 67.3849 97.1496 67.3849C95.9996 67.3849 94.7996 67.1797 93.4996 67.1797ZM77.6496 59.6926H88.1996C89.4996 59.6926 90.4496 59.6926 91.0496 59.6413C91.4496 59.59 91.8496 59.4874 92.1996 59.231V58.7182C92.1996 58.0515 92.0996 57.4362 91.8996 56.8208C90.9996 53.949 88.3496 52.0003 85.3996 52.1028C82.6496 51.949 80.0496 53.4362 78.7496 56.0003C78.1496 57.1797 77.7996 58.4105 77.6496 59.6926Z" fill="#9999FF"/>
</g>
<defs>
<clipPath id="clip0_2018_7439">
<rect width="120" height="120" fill="white"/>
</clipPath>
</defs>
</svg>
