<svg width="240" height="240" viewBox="0 0 240 240" fill="none" xmlns="http://www.w3.org/2000/svg">
<g clip-path="url(#clip0_2018_7452)">
<path d="M42.5 0H197.5C221 0 240 19.4872 240 43.5897V196.41C240 220.513 221 240 197.5 240H42.5C19 240 0 220.513 0 196.41V43.5897C0 19.4872 19 0 42.5 0Z" fill="#001E36"/>
<path d="M54 168.307V62.769C54 62.051 54.3 61.6408 55 61.6408C56.7 61.6408 58.3 61.6408 60.6 61.5382C63 61.4356 65.5 61.4356 68.2 61.3331C70.9 61.2305 73.8 61.2305 76.9 61.128C80 61.0254 83 61.0254 86 61.0254C94.2 61.0254 101 62.051 106.6 64.2049C111.6 65.9485 116.2 68.8203 120 72.6151C123.2 75.8972 125.7 79.8972 127.3 84.3074C128.8 88.6151 129.6 93.0254 129.6 97.6408C129.6 106.461 127.6 113.743 123.6 119.487C119.6 125.231 114 129.538 107.5 132C100.7 134.564 93.2 135.487 85 135.487C82.6 135.487 81 135.487 80 135.384C79 135.282 77.6 135.282 75.7 135.282V168.205C75.8 168.923 75.3 169.538 74.6 169.641C74.5 169.641 74.4 169.641 74.2 169.641H55.2C54.4 169.641 54 169.231 54 168.307ZM75.8 81.4356V115.897C77.2 116 78.5 116.102 79.7 116.102H85C88.9 116.102 92.8 115.487 96.5 114.256C99.7 113.333 102.5 111.384 104.7 108.82C106.8 106.256 107.8 102.769 107.8 98.2562C107.9 95.0767 107.1 91.8972 105.5 89.128C103.8 86.4613 101.4 84.41 98.5 83.2818C94.8 81.7433 90.8 81.128 86.7 81.2305C84.1 81.2305 81.8 81.2305 79.9 81.3331C77.9 81.2305 76.5 81.3331 75.8 81.4356Z" fill="#31A8FF"/>
<path d="M192 109.64C189 107.999 185.8 106.871 182.4 106.153C178.7 105.333 175 104.82 171.2 104.82C169.2 104.717 167.1 105.025 165.2 105.538C163.9 105.846 162.8 106.563 162.1 107.589C161.6 108.41 161.3 109.435 161.3 110.358C161.3 111.281 161.7 112.205 162.3 113.025C163.2 114.153 164.4 115.076 165.7 115.794C168 117.025 170.4 118.153 172.8 119.179C178.2 121.025 183.4 123.589 188.2 126.666C191.5 128.82 194.2 131.692 196.1 135.179C197.7 138.461 198.5 142.051 198.4 145.743C198.5 150.564 197.1 155.384 194.5 159.384C191.7 163.487 187.8 166.666 183.3 168.512C178.4 170.666 172.4 171.794 165.2 171.794C160.6 171.794 156.1 171.384 151.6 170.461C148.1 169.846 144.6 168.717 141.4 167.179C140.7 166.769 140.2 166.051 140.3 165.23V147.384C140.3 147.076 140.4 146.666 140.7 146.461C141 146.256 141.3 146.358 141.6 146.563C145.5 148.922 149.6 150.563 154 151.589C157.8 152.615 161.8 153.128 165.8 153.128C169.6 153.128 172.3 152.615 174.1 151.692C175.7 150.974 176.8 149.23 176.8 147.384C176.8 145.948 176 144.615 174.4 143.281C172.8 141.948 169.5 140.41 164.6 138.461C159.5 136.615 154.8 134.153 150.4 131.076C147.3 128.82 144.7 125.846 142.8 122.358C141.2 119.076 140.4 115.487 140.5 111.897C140.5 107.487 141.7 103.281 143.9 99.4866C146.4 95.384 150.1 92.102 154.4 90.0507C159.1 87.5891 165 86.4609 172.1 86.4609C176.2 86.4609 180.4 86.7686 184.5 87.384C187.5 87.7943 190.4 88.6148 193.1 89.743C193.5 89.8455 193.9 90.2558 194.1 90.6661C194.2 91.0763 194.3 91.4866 194.3 91.8968V108.615C194.3 109.025 194.1 109.435 193.8 109.64C192.9 109.846 192.4 109.846 192 109.64Z" fill="#31A8FF"/>
</g>
<defs>
<clipPath id="clip0_2018_7452">
<rect width="240" height="240" fill="white"/>
</clipPath>
</defs>
</svg>
