<svg width="240" height="240" viewBox="0 0 240 240" fill="none" xmlns="http://www.w3.org/2000/svg">
<g clip-path="url(#clip0_2031_1175)">
<path d="M110.845 141.05L155.227 88.1582L146.086 80.4887L101.705 133.381L110.845 141.05Z" fill="black"/>
<path d="M155.226 88.1588L199.607 35.2666L190.467 27.5971L146.085 80.4894L155.226 88.1588Z" fill="#0019FF"/>
<path d="M155.813 88.7932L201.111 36.6836L192.106 28.8558L146.808 80.9654L155.813 88.7932Z" fill="#0015FF"/>
<path d="M156.389 89.439L202.59 38.1279L193.723 30.1442L147.522 81.4552L156.389 89.439Z" fill="#0011FF"/>
<path d="M156.954 90.0927L204.043 39.5957L195.317 31.4584L148.228 81.9554L156.954 90.0927Z" fill="#000CFF"/>
<path d="M157.509 90.7583L205.473 41.0908L196.89 32.8025L148.927 82.4699L157.509 90.7583Z" fill="#0008FF"/>
<path d="M158.05 91.4332L206.873 42.6104L198.436 34.1735L149.613 82.9963L158.05 91.4332Z" fill="#0004FF"/>
<path d="M158.581 92.1166L208.248 44.1533L199.96 35.5705L150.292 83.5338L158.581 92.1166Z" fill="#0000FF"/>
<path d="M159.099 92.8099L209.596 45.7207L201.458 36.9945L150.961 84.0837L159.099 92.8099Z" fill="#0500FF"/>
<path d="M159.603 93.5113L210.914 47.3105L202.93 38.4437L151.619 84.6444L159.603 93.5113Z" fill="#0900FF"/>
<path d="M160.097 94.221L212.207 48.9229L204.379 39.918L152.27 85.2162L160.097 94.221Z" fill="#0D00FF"/>
<path d="M160.578 94.9404L213.471 50.5586L205.801 41.4185L152.909 85.8003L160.578 94.9404Z" fill="#1100FF"/>
<path d="M161.048 95.6678L214.707 52.2158L207.198 42.9433L153.54 86.3952L161.048 95.6678Z" fill="#1600FF"/>
<path d="M161.503 96.4034L215.912 53.8945L208.566 44.4923L154.157 87.0012L161.503 96.4034Z" fill="#1A00FF"/>
<path d="M161.947 97.1466L217.09 55.5938L209.909 46.0648L154.767 87.6176L161.947 97.1466Z" fill="#1E00FF"/>
<path d="M162.377 97.8976L218.236 57.3135L211.223 47.6606L155.364 88.2448L162.377 97.8976Z" fill="#2200FF"/>
<path d="M162.794 98.6558L219.354 59.0527L212.51 49.279L155.951 88.8821L162.794 98.6558Z" fill="#2700FF"/>
<path d="M163.196 99.4205L220.438 60.8105L213.765 50.9188L156.524 89.5288L163.196 99.4205Z" fill="#2B00FF"/>
<path d="M163.585 100.193L221.492 62.5879L214.994 52.5812L157.087 90.1863L163.585 100.193Z" fill="#2F00FF"/>
<path d="M163.963 100.973L222.518 64.3838L216.195 54.2653L157.641 90.854L163.963 100.973Z" fill="#3300FF"/>
<path d="M164.326 101.758L223.51 66.1963L217.365 55.9689L158.181 91.5302L164.326 101.758Z" fill="#3800FF"/>
<path d="M164.675 102.549L224.471 68.0264L218.505 57.6933L158.709 92.2163L164.675 102.549Z" fill="#3C00FF"/>
<path d="M165.01 103.347L225.398 69.873L219.614 59.4375L159.225 92.9116L165.01 103.347Z" fill="#4000FF"/>
<path d="M165.331 104.149L226.295 71.7344L220.693 61.1994L159.73 93.6145L165.331 104.149Z" fill="#4400FF"/>
<path d="M165.638 104.959L227.158 73.6133L221.741 62.9822L160.221 94.3284L165.638 104.959Z" fill="#4800FF"/>
<path d="M165.932 105.773L227.99 75.5049L222.76 64.7809L160.702 95.0486L165.932 105.773Z" fill="#4D00FF"/>
<path d="M166.21 106.593L228.787 77.4131L223.745 66.5994L161.168 95.7795L166.21 106.593Z" fill="#5100FF"/>
<path d="M166.472 107.416L229.549 79.333L224.696 68.433L161.619 96.5165L166.472 107.416Z" fill="#5500FF"/>
<path d="M166.724 108.244L230.281 81.2656L225.619 70.2826L162.062 97.2609L166.724 108.244Z" fill="#5900FF"/>
<path d="M166.96 109.077L230.979 83.2119L226.509 72.1492L162.491 98.0142L166.96 109.077Z" fill="#5E00FF"/>
<path d="M167.179 109.914L231.639 85.1699L227.363 74.0309L162.903 98.7747L167.179 109.914Z" fill="#6200FF"/>
<path d="M167.388 110.754L232.27 87.1387L228.189 75.9267L163.307 99.5418L167.388 110.754Z" fill="#6600FF"/>
<path d="M167.579 111.596L232.863 89.1172L228.979 77.8357L163.695 100.315L167.579 111.596Z" fill="#6A00FF"/>
<path d="M167.755 112.444L233.422 91.1074L229.735 79.7598L164.068 101.096L167.755 112.444Z" fill="#6F00FF"/>
<path d="M167.918 113.294L233.947 93.1074L230.459 81.6972L164.43 101.884L167.918 113.294Z" fill="#7300FF"/>
<path d="M168.064 114.147L234.436 95.1152L231.147 83.6459L164.776 102.678L168.064 114.147Z" fill="#7700FF"/>
<path d="M168.197 115.001L234.891 97.1309L231.803 85.6059L165.109 103.476L168.197 115.001Z" fill="#7B00FF"/>
<path d="M168.314 115.859L235.309 99.1553L232.422 87.5781L165.427 104.282L168.314 115.859Z" fill="#8000FF"/>
<path d="M168.415 116.717L235.691 101.186L233.007 89.5598L165.731 105.092L168.415 116.717Z" fill="#8400FF"/>
<path d="M168.504 117.578L236.041 103.223L233.56 91.5518L166.023 105.907L168.504 117.578Z" fill="#8800FF"/>
<path d="M168.574 118.441L236.352 105.267L234.075 93.5543L166.298 106.729L168.574 118.441Z" fill="#8C00FF"/>
<path d="M168.634 119.304L236.631 107.314L234.559 95.5642L166.562 107.554L168.634 119.304Z" fill="#9100FF"/>
<path d="M168.675 120.168L236.871 109.367L235.005 97.5825L166.809 108.384L168.675 120.168Z" fill="#9500FF"/>
<path d="M168.702 121.032L237.076 111.423L235.416 99.6074L167.042 109.217L168.702 121.032Z" fill="#9900FF"/>
<path d="M168.713 121.898L237.244 113.483L235.79 101.641L167.259 110.055L168.713 121.898Z" fill="#9D00FF"/>
<path d="M168.709 122.763L237.377 115.546L236.13 103.68L167.462 110.897L168.709 122.763Z" fill="#A100FF"/>
<path d="M168.691 123.628L237.475 117.61L236.435 105.724L167.652 111.742L168.691 123.628Z" fill="#A600FF"/>
<path d="M168.657 124.492L237.535 119.676L236.703 107.773L167.825 112.59L168.657 124.492Z" fill="#AA00FF"/>
<path d="M168.609 125.356L237.561 121.742L236.936 109.827L167.985 113.441L168.609 125.356Z" fill="#AE00FF"/>
<path d="M168.547 126.219L237.551 123.81L237.134 111.885L168.131 114.295L168.547 126.219Z" fill="#B200FF"/>
<path d="M168.467 127.081L237.502 125.876L237.294 113.946L168.258 115.151L168.467 127.081Z" fill="#B700FF"/>
<path d="M168.374 127.941H237.42V116.01H168.374V127.941Z" fill="#BB00FF"/>
<path d="M168.265 128.8L237.301 130.005L237.509 118.075L168.474 116.87L168.265 128.8Z" fill="#BF00FF"/>
<path d="M168.143 129.656L237.146 132.065L237.563 120.141L168.559 117.731L168.143 129.656Z" fill="#C300FF"/>
<path d="M168.004 130.509L236.955 134.123L237.58 122.208L168.628 118.594L168.004 130.509Z" fill="#C800FF"/>
<path d="M167.851 131.361L236.729 136.178L237.561 124.275L168.683 119.459L167.851 131.361Z" fill="#CC00FF"/>
<path d="M167.682 132.21L236.465 138.228L237.505 126.341L168.722 120.324L167.682 132.21Z" fill="#D000FF"/>
<path d="M167.498 133.055L236.166 140.272L237.413 128.406L168.746 121.189L167.498 133.055Z" fill="#D400FF"/>
<path d="M167.303 133.898L235.834 142.312L237.288 130.47L168.757 122.055L167.303 133.898Z" fill="#D900FF"/>
<path d="M167.089 134.736L235.463 144.346L237.123 132.53L168.75 122.921L167.089 134.736Z" fill="#DD00FF"/>
<path d="M166.861 135.571L235.057 146.372L236.923 134.587L168.727 123.786L166.861 135.571Z" fill="#E100FF"/>
<path d="M166.62 136.402L234.617 148.392L236.689 136.641L168.692 124.652L166.62 136.402Z" fill="#E500FF"/>
<path d="M166.363 137.228L234.141 150.402L236.417 138.69L168.64 125.515L166.363 137.228Z" fill="#EA00FF"/>
<path d="M166.094 138.05L233.631 152.405L236.112 140.734L168.575 126.379L166.094 138.05Z" fill="#EE00FF"/>
<path d="M165.81 138.867L233.086 154.399L235.77 142.774L168.494 127.242L165.81 138.867Z" fill="#F200FF"/>
<path d="M165.511 139.679L232.506 156.383L235.392 144.806L168.397 128.102L165.511 139.679Z" fill="#F600FF"/>
<path d="M165.197 140.486L231.891 158.356L234.979 146.831L168.286 128.961L165.197 140.486Z" fill="#FA00FF"/>
<path d="M164.871 141.287L231.242 160.318L234.531 148.849L168.16 129.817L164.871 141.287Z" fill="#FF00FF"/>
<path d="M164.53 142.081L230.559 162.269L234.047 150.858L168.018 130.671L164.53 142.081Z" fill="#FF00FB"/>
<path d="M164.173 142.871L229.84 164.207L233.527 152.859L167.86 131.523L164.173 142.871Z" fill="#FF00F7"/>
<path d="M163.806 143.653L229.09 166.132L232.974 154.85L167.69 132.371L163.806 143.653Z" fill="#FF00F3"/>
<path d="M163.423 144.43L228.305 168.045L232.386 156.833L167.504 133.218L163.423 144.43Z" fill="#FF00EE"/>
<path d="M163.03 145.2L227.49 169.943L231.766 158.804L167.306 134.06L163.03 145.2Z" fill="#FF00EA"/>
<path d="M162.62 145.962L226.639 171.827L231.108 160.764L167.09 134.899L162.62 145.962Z" fill="#FF00E6"/>
<path d="M162.199 146.716L225.756 173.694L230.418 162.711L166.861 135.733L162.199 146.716Z" fill="#FF00E2"/>
<path d="M161.763 147.464L224.84 175.548L229.693 164.648L166.616 136.564L161.763 147.464Z" fill="#FF00DD"/>
<path d="M161.314 148.205L223.891 177.385L228.933 166.571L166.356 137.391L161.314 148.205Z" fill="#FF00D9"/>
<path d="M160.852 148.936L222.91 179.204L228.141 168.48L166.083 138.212L160.852 148.936Z" fill="#FF00D5"/>
<path d="M160.378 149.66L221.898 181.006L227.315 170.375L165.795 139.029L160.378 149.66Z" fill="#FF00D1"/>
<path d="M159.894 150.375L220.857 182.79L226.459 172.255L165.495 139.84L159.894 150.375Z" fill="#FF00CC"/>
<path d="M159.392 151.083L219.781 184.557L225.566 174.121L165.177 140.647L159.392 151.083Z" fill="#FF00C8"/>
<path d="M158.882 151.781L218.678 186.304L224.644 175.971L164.848 141.448L158.882 151.781Z" fill="#FF00C4"/>
<path d="M158.359 152.47L217.543 188.031L223.688 177.804L164.504 142.243L158.359 152.47Z" fill="#FF00C0"/>
<path d="M157.825 153.15L216.379 189.738L222.702 179.62L164.147 143.031L157.825 153.15Z" fill="#FF00BB"/>
<path d="M157.277 153.82L215.184 191.425L221.682 181.418L163.775 143.813L157.277 153.82Z" fill="#FF00B7"/>
<path d="M156.719 154.481L213.961 193.091L220.633 183.199L163.391 144.589L156.719 154.481Z" fill="#FF00B3"/>
<path d="M156.148 155.132L212.707 194.735L219.551 184.962L162.992 145.359L156.148 155.132Z" fill="#FF00AF"/>
<path d="M155.568 155.772L211.428 196.356L218.441 186.704L162.582 146.119L155.568 155.772Z" fill="#FF00AB"/>
<path d="M154.975 156.403L210.117 197.956L217.298 188.427L162.155 146.874L154.975 156.403Z" fill="#FF00A6"/>
<path d="M154.372 157.023L208.781 199.532L216.127 190.13L161.718 147.621L154.372 157.023Z" fill="#FF00A2"/>
<path d="M153.757 157.632L207.416 201.084L214.925 191.811L161.266 148.359L153.757 157.632Z" fill="#FF009E"/>
<path d="M153.133 158.231L206.025 202.613L213.695 193.473L160.803 149.091L153.133 158.231Z" fill="#FF009A"/>
<path d="M152.5 158.819L204.609 204.117L212.437 195.112L160.328 149.814L152.5 158.819Z" fill="#FF0095"/>
<path d="M151.853 159.395L203.164 205.596L211.148 196.729L159.837 150.528L151.853 159.395Z" fill="#FF0091"/>
<path d="M151.198 159.961L201.695 207.05L209.833 198.324L159.336 151.234L151.198 159.961Z" fill="#FF008D"/>
<path d="M150.534 160.514L200.201 208.478L208.49 199.895L158.822 151.931L150.534 160.514Z" fill="#FF0089"/>
<path d="M149.859 161.056L198.682 209.879L207.119 201.442L158.296 152.619L149.859 161.056Z" fill="#FF0084"/>
<path d="M149.175 161.586L197.139 211.254L205.722 202.966L157.758 153.298L149.175 161.586Z" fill="#FF0080"/>
<path d="M148.483 162.105L195.572 212.602L204.298 204.464L157.209 153.967L148.483 162.105Z" fill="#FF007C"/>
<path d="M147.78 162.611L193.98 213.922L202.847 205.938L156.647 154.627L147.78 162.611Z" fill="#FF0078"/>
<path d="M147.069 163.104L192.367 215.214L201.372 207.386L156.074 155.276L147.069 163.104Z" fill="#FF0073"/>
<path d="M146.351 163.585L190.732 216.478L199.873 208.808L155.491 155.916L146.351 163.585Z" fill="#FF006F"/>
<path d="M145.624 164.054L189.076 217.713L198.349 210.204L154.897 156.545L145.624 164.054Z" fill="#FF006B"/>
<path d="M144.89 164.51L187.398 218.919L196.801 211.573L154.292 157.164L144.89 164.51Z" fill="#FF0067"/>
<path d="M144.144 164.953L185.697 220.096L195.226 212.915L153.673 157.773L144.144 164.953Z" fill="#FF0062"/>
<path d="M143.394 165.383L183.979 221.242L193.631 214.229L153.047 158.37L143.394 165.383Z" fill="#FF005E"/>
<path d="M142.637 165.798L182.24 222.357L192.014 215.514L152.411 158.955L142.637 165.798Z" fill="#FF005A"/>
<path d="M141.871 166.203L180.48 223.444L190.372 216.772L151.762 159.531L141.871 166.203Z" fill="#FF0056"/>
<path d="M141.098 166.592L178.703 224.499L188.71 218.001L151.105 160.094L141.098 166.592Z" fill="#FF0052"/>
<path d="M140.319 166.969L176.908 225.523L187.027 219.201L150.438 160.646L140.319 166.969Z" fill="#FF004D"/>
<path d="M139.534 167.331L175.096 226.515L185.323 220.369L149.762 161.186L139.534 167.331Z" fill="#FF0049"/>
<path d="M138.743 167.68L173.266 227.476L183.599 221.51L149.076 161.714L138.743 167.68Z" fill="#FF0045"/>
<path d="M137.944 168.015L171.418 228.404L181.854 222.62L148.379 162.231L137.944 168.015Z" fill="#FF0041"/>
<path d="M137.142 168.337L169.557 229.301L180.092 223.699L147.677 162.735L137.142 168.337Z" fill="#FF003C"/>
<path d="M136.332 168.644L167.678 230.164L178.309 224.747L146.963 163.227L136.332 168.644Z" fill="#FF0038"/>
<path d="M135.519 168.937L165.787 230.995L176.511 225.765L146.243 163.707L135.519 168.937Z" fill="#FF0034"/>
<path d="M134.699 169.215L163.879 231.792L174.693 226.749L145.513 164.173L134.699 169.215Z" fill="#FF0030"/>
<path d="M133.875 169.48L161.959 232.557L172.859 227.704L144.776 164.627L133.875 169.48Z" fill="#FF002B"/>
<path d="M133.049 169.73L160.027 233.287L171.01 228.625L144.032 165.068L133.049 169.73Z" fill="#FF0027"/>
<path d="M132.215 169.965L158.08 233.983L169.143 229.514L143.278 165.496L132.215 169.965Z" fill="#FF0023"/>
<path d="M131.377 170.187L156.121 234.646L167.26 230.371L142.516 165.911L131.377 170.187Z" fill="#FF001F"/>
<path d="M130.537 170.392L154.152 235.273L165.364 231.193L141.749 166.311L130.537 170.392Z" fill="#FF001A"/>
<path d="M129.695 170.584L152.174 235.868L163.455 231.984L140.976 166.699L129.695 170.584Z" fill="#FF0016"/>
<path d="M128.847 170.761L150.184 236.428L161.531 232.741L140.195 167.074L128.847 170.761Z" fill="#FF0012"/>
<path d="M127.998 170.922L148.186 236.951L159.596 233.463L139.409 167.434L127.998 170.922Z" fill="#FF000E"/>
<path d="M127.146 171.069L146.178 237.44L157.647 234.152L138.615 167.78L127.146 171.069Z" fill="#FF0009"/>
<path d="M126.292 171.201L144.162 237.895L155.687 234.806L137.817 168.113L126.292 171.201Z" fill="#FF0005"/>
<path d="M125.433 171.32L142.137 238.314L153.714 235.428L137.01 168.433L125.433 171.32Z" fill="#FF0001"/>
<path d="M124.574 171.422L140.105 238.698L151.731 236.014L136.199 168.738L124.574 171.422Z" fill="#FF0300"/>
<path d="M123.713 171.509L138.068 239.046L149.739 236.565L135.384 169.028L123.713 171.509Z" fill="#FF0700"/>
<path d="M122.851 171.58L136.025 239.357L147.738 237.081L134.563 169.303L122.851 171.58Z" fill="#FF0C00"/>
<path d="M121.987 171.638L133.977 239.635L145.727 237.563L133.737 169.566L121.987 171.638Z" fill="#FF1000"/>
<path d="M121.125 171.679L131.926 239.875L143.71 238.008L132.909 169.813L121.125 171.679Z" fill="#FF1400"/>
<path d="M120.26 171.707L129.869 240.081L141.685 238.421L132.075 170.047L120.26 171.707Z" fill="#FF1800"/>
<path d="M119.394 171.719L127.809 240.25L139.651 238.796L131.237 170.265L119.394 171.719Z" fill="#FF1D00"/>
<path d="M118.529 171.716L125.746 240.384L137.612 239.137L130.395 170.469L118.529 171.716Z" fill="#FF2100"/>
<path d="M117.664 171.698L123.682 240.481L135.568 239.442L129.55 170.658L117.664 171.698Z" fill="#FF2500"/>
<path d="M116.799 171.664L121.615 240.542L133.518 239.71L128.701 170.832L116.799 171.664Z" fill="#FF2900"/>
<path d="M115.935 171.615L119.549 240.566L131.464 239.942L127.85 170.991L115.935 171.615Z" fill="#FF2E00"/>
<path d="M115.073 171.553L117.482 240.557L129.407 240.14L126.997 171.136L115.073 171.553Z" fill="#FF3200"/>
<path d="M114.211 171.473L115.416 240.509L127.346 240.301L126.141 171.265L114.211 171.473Z" fill="#FF3600"/>
<path d="M113.352 171.38V240.426H125.283V171.38H113.352Z" fill="#FF3A00"/>
<path d="M112.494 171.271L111.289 240.307L123.219 240.515L124.424 171.48L112.494 171.271Z" fill="#FF3F00"/>
<path d="M111.636 171.148L109.227 240.151L121.151 240.568L123.561 171.564L111.636 171.148Z" fill="#FF4300"/>
<path d="M110.782 171.01L107.168 239.961L119.083 240.585L122.697 171.634L110.782 171.01Z" fill="#FF4700"/>
<path d="M109.93 170.857L105.113 239.734L117.016 240.567L121.832 171.689L109.93 170.857Z" fill="#FF4B00"/>
<path d="M109.082 170.688L103.064 239.471L114.951 240.511L120.968 171.727L109.082 170.688Z" fill="#FF5000"/>
<path d="M108.235 170.505L101.018 239.173L112.884 240.42L120.101 171.752L108.235 170.505Z" fill="#FF5400"/>
<path d="M107.393 170.307L98.9785 238.838L110.821 240.292L119.236 171.761L107.393 170.307Z" fill="#FF5800"/>
<path d="M106.555 170.095L96.9453 238.469L108.761 240.129L118.37 171.755L106.555 170.095Z" fill="#FF5C00"/>
<path d="M105.719 169.869L94.918 238.064L106.703 239.931L117.504 171.735L105.719 169.869Z" fill="#FF6000"/>
<path d="M104.89 169.626L92.9004 237.623L104.651 239.695L116.64 171.698L104.89 169.626Z" fill="#FF6500"/>
<path d="M104.063 169.37L90.8887 237.147L102.601 239.424L115.776 171.647L104.063 169.37Z" fill="#FF6900"/>
<path d="M103.242 169.1L88.8867 236.637L100.558 239.117L114.913 171.58L103.242 169.1Z" fill="#FF6D00"/>
<path d="M102.425 168.816L86.8926 236.092L98.5183 238.776L114.05 171.5L102.425 168.816Z" fill="#FF7100"/>
<path d="M101.612 168.516L84.9082 235.511L96.4853 238.397L113.189 171.402L101.612 168.516Z" fill="#FF7600"/>
<path d="M100.806 168.203L82.9355 234.896L94.4605 237.985L112.331 171.291L100.806 168.203Z" fill="#FF7A00"/>
<path d="M100.004 167.877L80.9727 234.248L92.442 237.537L111.474 171.166L100.004 167.877Z" fill="#FF7E00"/>
<path d="M99.2086 167.535L79.0215 233.563L90.4317 237.052L110.619 171.023L99.2086 167.535Z" fill="#FF8200"/>
<path d="M98.4223 167.181L77.0859 232.848L88.4335 236.535L109.77 170.868L98.4223 167.181Z" fill="#FF8700"/>
<path d="M97.6373 166.813L75.1582 232.097L86.4397 235.981L108.919 170.697L97.6373 166.813Z" fill="#FF8B00"/>
<path d="M96.8612 166.431L73.2461 231.312L84.4581 235.393L108.073 170.511L96.8612 166.431Z" fill="#FF8F00"/>
<path d="M96.0915 166.034L71.3477 230.494L82.4867 234.77L107.231 170.31L96.0915 166.034Z" fill="#FF9300"/>
<path d="M95.3299 165.625L69.4648 229.644L80.5276 234.113L106.393 170.095L95.3299 165.625Z" fill="#FF9800"/>
<path d="M94.576 165.203L67.5977 228.76L78.5807 233.422L105.559 169.865L94.576 165.203Z" fill="#FF9C00"/>
<path d="M93.8276 164.767L65.7441 227.844L76.6442 232.697L104.728 169.62L93.8276 164.767Z" fill="#FFA000"/>
<path d="M93.0883 164.32L63.9082 226.896L74.7219 231.939L103.902 169.362L93.0883 164.32Z" fill="#FFA400"/>
<path d="M92.3556 163.859L62.0879 225.917L72.8119 231.147L103.08 169.089L92.3556 163.859Z" fill="#FFA900"/>
<path d="M91.6313 163.385L60.2852 224.905L70.9163 230.322L102.262 168.802L91.6313 163.385Z" fill="#FFAD00"/>
<path d="M90.9151 162.897L58.5 223.861L69.0349 229.463L101.45 168.499L90.9151 162.897Z" fill="#FFB100"/>
<path d="M90.2085 162.399L56.7344 222.788L67.17 228.573L100.644 168.184L90.2085 162.399Z" fill="#FFB500"/>
<path d="M89.5112 161.889L54.9883 221.685L65.3213 227.65L99.8443 167.855L89.5112 161.889Z" fill="#FFB900"/>
<path d="M88.823 161.364L53.2617 220.548L63.4891 226.693L99.0503 167.509L88.823 161.364Z" fill="#FFBE00"/>
<path d="M88.1434 160.831L51.5547 219.385L61.6732 225.708L98.262 167.153L88.1434 160.831Z" fill="#FFC200"/>
<path d="M87.4703 160.284L49.8652 218.19L59.8719 224.689L97.477 166.782L87.4703 160.284Z" fill="#FFC600"/>
<path d="M86.8111 159.725L48.2012 216.967L58.0929 223.639L96.7029 166.397L86.8111 159.725Z" fill="#FFCA00"/>
<path d="M86.1597 159.155L46.5566 215.714L56.3304 222.558L95.9335 165.998L86.1597 159.155Z" fill="#FFCF00"/>
<path d="M85.5197 158.573L44.9355 214.433L54.5884 221.446L95.1725 165.587L85.5197 158.573Z" fill="#FFD300"/>
<path d="M84.8888 157.981L43.3359 213.123L52.8649 220.304L94.4178 165.161L84.8888 157.981Z" fill="#FFD700"/>
<path d="M84.2687 157.377L41.7598 211.786L51.162 219.132L93.6709 164.723L84.2687 157.377Z" fill="#FFDB00"/>
<path d="M83.659 156.764L40.207 210.423L49.4796 217.932L92.9316 164.273L83.659 156.764Z" fill="#FFE000"/>
<path d="M83.0596 156.139L38.6777 209.031L47.8178 216.701L92.1997 163.809L83.0596 156.139Z" fill="#FFE400"/>
<path d="M82.472 155.504L37.1738 207.613L46.1787 215.441L91.4769 163.331L82.472 155.504Z" fill="#FFE800"/>
<path d="M81.896 154.859L35.6953 206.17L44.5622 214.154L90.7629 162.843L81.896 154.859Z" fill="#FFEC00"/>
<path d="M81.3314 154.204L34.2422 204.701L42.9684 212.838L90.0576 162.342L81.3314 154.204Z" fill="#FFF100"/>
<path d="M80.7778 153.539L32.8145 203.206L41.3973 211.494L89.3606 161.827L80.7778 153.539Z" fill="#FFF500"/>
<path d="M80.2369 152.865L31.4141 201.688L39.8509 210.124L88.6738 161.302L80.2369 152.865Z" fill="#FFF900"/>
<path d="M79.7046 152.18L30.0371 200.144L38.3255 208.726L87.9929 160.763L79.7046 152.18Z" fill="#FFFD00"/>
<path d="M79.1864 151.488L28.6895 198.577L36.8268 207.303L87.3237 160.214L79.1864 151.488Z" fill="#FCFF00"/>
<path d="M78.6822 150.786L27.3711 196.986L35.3549 205.853L86.666 159.653L78.6822 150.786Z" fill="#F8FF00"/>
<path d="M78.1877 150.076L26.0781 195.374L33.9059 204.379L86.0155 159.081L78.1877 150.076Z" fill="#F4FF00"/>
<path d="M77.7067 149.356L24.8145 193.738L32.4839 202.878L85.3761 158.497L77.7067 149.356Z" fill="#F0FF00"/>
<path d="M77.2388 148.63L23.5801 192.082L31.0889 201.355L84.7476 157.903L77.2388 148.63Z" fill="#ECFF00"/>
<path d="M76.7819 147.894L22.373 190.403L29.7188 199.806L84.1277 157.297L76.7819 147.894Z" fill="#E7FF00"/>
<path d="M76.3398 147.15L21.1973 188.703L28.3779 198.232L83.5203 156.679L76.3398 147.15Z" fill="#E3FF00"/>
<path d="M75.9081 146.4L20.0488 186.984L27.062 196.637L82.9213 156.053L75.9081 146.4Z" fill="#DFFF00"/>
<path d="M75.4927 145.642L18.9336 185.245L25.7773 195.019L82.3363 155.416L75.4927 145.642Z" fill="#DBFF00"/>
<path d="M75.0893 144.877L17.8477 183.487L24.5197 193.379L81.7613 154.769L75.0893 144.877Z" fill="#D6FF00"/>
<path d="M74.6997 144.104L16.793 181.709L23.2914 191.716L81.1981 154.111L74.6997 144.104Z" fill="#D2FF00"/>
<path d="M74.3238 143.325L15.7695 179.914L22.0923 190.033L80.6465 153.444L74.3238 143.325Z" fill="#CEFF00"/>
<path d="M73.9593 142.539L14.7754 178.101L20.9206 188.328L80.1045 152.767L73.9593 142.539Z" fill="#CAFF00"/>
<path d="M73.6119 141.748L13.8164 176.271L19.7822 186.604L79.5777 152.081L73.6119 141.748Z" fill="#C5FF00"/>
<path d="M73.2756 140.951L12.8867 174.425L18.6713 184.86L79.0601 151.386L73.2756 140.951Z" fill="#C1FF00"/>
<path d="M72.9541 140.147L11.9902 172.562L17.5918 183.097L78.5557 150.682L72.9541 140.147Z" fill="#BDFF00"/>
<path d="M72.6492 139.338L11.1289 170.685L16.5457 181.316L78.066 149.969L72.6492 139.338Z" fill="#B9FF00"/>
<path d="M72.3569 138.524L10.2988 168.792L15.5293 179.516L77.5873 149.248L72.3569 138.524Z" fill="#B4FF00"/>
<path d="M72.0749 137.705L9.49805 166.885L14.5405 177.698L77.1174 148.518L72.0749 137.705Z" fill="#B0FF00"/>
<path d="M71.8129 136.881L8.73633 164.965L13.5893 175.865L76.6659 147.781L71.8129 136.881Z" fill="#ACFF00"/>
<path d="M71.5629 136.053L8.00586 163.031L12.6679 174.014L76.225 147.036L71.5629 136.053Z" fill="#A8FF00"/>
<path d="M71.3268 135.221L7.30859 161.086L11.7782 172.149L75.7965 146.284L71.3268 135.221Z" fill="#A3FF00"/>
<path d="M71.1064 134.384L6.64648 159.128L10.9224 170.267L75.3823 145.523L71.1064 134.384Z" fill="#9FFF00"/>
<path d="M70.8995 133.544L6.01758 157.159L10.0984 168.371L74.9803 144.756L70.8995 133.544Z" fill="#9BFF00"/>
<path d="M70.708 132.7L5.42383 155.179L9.30836 166.46L74.5925 143.981L70.708 132.7Z" fill="#97FF00"/>
<path d="M70.5298 131.854L4.86328 153.19L8.55034 164.538L74.2169 143.202L70.5298 131.854Z" fill="#93FF00"/>
<path d="M70.3687 131.003L4.33984 151.19L7.82829 162.601L73.8572 142.414L70.3687 131.003Z" fill="#8EFF00"/>
<path d="M70.2227 130.151L3.85156 149.183L7.14035 160.652L73.5115 141.62L70.2227 130.151Z" fill="#8AFF00"/>
<path d="M70.0897 129.296L3.39648 147.166L6.4846 158.691L73.1778 140.821L70.0897 129.296Z" fill="#86FF00"/>
<path d="M69.9715 128.439L2.97656 145.143L5.86307 156.72L72.858 140.016L69.9715 128.439Z" fill="#82FF00"/>
<path d="M69.87 127.579L2.59375 143.111L5.27777 154.737L72.554 139.205L69.87 127.579Z" fill="#7DFF00"/>
<path d="M69.7832 126.719L2.24609 141.074L4.7268 152.745L72.2639 138.39L69.7832 126.719Z" fill="#79FF00"/>
<path d="M69.7109 125.857L1.93359 139.031L4.21024 150.744L71.9876 137.569L69.7109 125.857Z" fill="#75FF00"/>
<path d="M69.6532 124.993L1.65625 136.982L3.72814 148.733L71.7251 136.743L69.6532 124.993Z" fill="#71FF00"/>
<path d="M69.6118 124.13L1.41602 134.931L3.28252 146.715L71.4783 135.914L69.6118 124.13Z" fill="#6CFF00"/>
<path d="M69.5849 123.264L1.21094 132.873L2.87149 144.688L71.2454 135.079L69.5849 123.264Z" fill="#68FF00"/>
<path d="M69.5742 122.4L1.04297 130.814L2.49706 142.657L71.0283 134.243L69.5742 122.4Z" fill="#64FF00"/>
<path d="M69.5758 121.535L0.908203 128.752L2.15539 140.618L70.823 133.401L69.5758 121.535Z" fill="#60FF00"/>
<path d="M69.5937 120.67L0.810547 126.688L1.85045 138.574L70.6336 132.556L69.5937 120.67Z" fill="#5BFF00"/>
<path d="M69.6277 119.805L0.75 124.621L1.5823 136.524L70.46 131.707L69.6277 119.805Z" fill="#57FF00"/>
<path d="M69.6759 118.941L0.724609 122.555L1.34906 134.47L70.3003 130.856L69.6759 118.941Z" fill="#53FF00"/>
<path d="M69.7382 118.078L0.734375 120.487L1.15078 132.412L70.1546 130.002L69.7382 118.078Z" fill="#4FFF00"/>
<path d="M69.8186 117.216L0.783203 118.421L0.991437 130.351L70.0268 129.146L69.8186 117.216Z" fill="#4AFF00"/>
<path d="M69.9131 116.356H0.867188V128.288H69.9131V116.356Z" fill="#46FF00"/>
<path d="M70.0217 115.498L0.986328 114.293L0.778093 126.223L69.8135 127.428L70.0217 115.498Z" fill="#42FF00"/>
<path d="M70.1445 114.641L1.14062 112.231L0.724219 124.156L69.728 126.565L70.1445 114.641Z" fill="#3EFF00"/>
<path d="M70.2813 113.788L1.33008 110.175L0.705629 122.09L69.6569 125.704L70.2813 113.788Z" fill="#3AFF00"/>
<path d="M70.4363 112.936L1.55859 108.119L0.72629 120.022L69.604 124.838L70.4363 112.936Z" fill="#35FF00"/>
<path d="M70.6034 112.087L1.82031 106.069L0.780408 117.955L69.5635 123.973L70.6034 112.087Z" fill="#31FF00"/>
<path d="M70.7868 111.243L2.11914 104.025L0.871953 115.892L69.5396 123.109L70.7868 111.243Z" fill="#2DFF00"/>
<path d="M70.9843 110.399L2.45312 101.984L0.999033 113.827L69.5303 122.242L70.9843 110.399Z" fill="#29FF00"/>
<path d="M71.1962 109.561L2.82227 99.9512L1.16171 111.767L69.5356 121.376L71.1962 109.561Z" fill="#24FF00"/>
<path d="M71.4243 108.726L3.22852 97.9248L1.36201 109.709L69.5578 120.511L71.4243 108.726Z" fill="#20FF00"/>
<path d="M71.6668 107.896L3.66992 95.9062L1.59803 107.657L69.5949 119.646L71.6668 107.896Z" fill="#1CFF00"/>
<path d="M71.9218 107.068L4.14453 93.8936L1.86788 105.606L69.6452 118.78L71.9218 107.068Z" fill="#18FF00"/>
<path d="M72.1914 106.247L4.6543 91.8916L2.17359 103.562L69.7106 117.918L72.1914 106.247Z" fill="#13FF00"/>
<path d="M72.4774 105.429L5.20117 89.8975L2.51715 101.523L69.7934 117.055L72.4774 105.429Z" fill="#0FFF00"/>
<path d="M72.7742 104.619L5.7793 87.915L2.89279 99.4922L69.8877 116.196L72.7742 104.619Z" fill="#0BFF00"/>
<path d="M73.0877 103.812L6.39453 85.9414L3.30642 97.4664L69.9996 115.337L73.0877 103.812Z" fill="#07FF00"/>
<path d="M73.4141 103.011L7.04297 83.9795L3.75418 95.4488L70.1253 114.48L73.4141 103.011Z" fill="#02FF00"/>
<path d="M73.7555 102.216L7.72656 82.0293L4.23811 93.4395L70.267 113.627L73.7555 102.216Z" fill="#00FF02"/>
<path d="M74.1118 101.426L8.44531 80.0898L4.75826 91.4374L70.4248 112.774L74.1118 101.426Z" fill="#00FF06"/>
<path d="M74.4795 100.644L9.19531 78.165L5.31078 89.4466L70.5949 111.926L74.4795 100.644Z" fill="#00FF0A"/>
<path d="M74.8624 99.868L9.98047 76.2529L5.89963 87.4649L70.7815 111.08L74.8624 99.868Z" fill="#00FF0F"/>
<path d="M75.2568 99.0983L10.7969 74.3545L6.52099 85.4936L70.9809 110.237L75.2568 99.0983Z" fill="#00FF13"/>
<path d="M75.6667 98.3357L11.6484 72.4707L7.1788 83.5335L71.197 109.398L75.6667 98.3357Z" fill="#00FF17"/>
<path d="M76.0883 97.5809L12.5312 70.6025L7.86922 81.5856L71.4263 108.564L76.0883 97.5809Z" fill="#00FF1B"/>
<path d="M76.5238 96.8335L13.4473 68.75L8.59426 79.65L71.6708 107.734L76.5238 96.8335Z" fill="#00FF1F"/>
<path d="M76.9713 96.0931L14.3945 66.9131L9.35204 77.7268L71.9288 106.907L76.9713 96.0931Z" fill="#00FF24"/>
<path d="M77.433 95.3615L15.375 65.0938L10.1445 75.8178L72.2026 106.085L77.433 95.3615Z" fill="#00FF28"/>
<path d="M77.907 94.6372L16.3867 63.291L10.9699 73.9221L72.4902 105.268L77.907 94.6372Z" fill="#00FF2C"/>
<path d="M78.3936 93.9219L17.4297 61.5068L11.8282 72.0418L72.7921 104.457L78.3936 93.9219Z" fill="#00FF30"/>
<path d="M78.8928 93.2153L18.5039 59.7412L12.7194 70.1768L73.1083 103.651L78.8928 93.2153Z" fill="#00FF35"/>
<path d="M79.4029 92.5161L19.6074 57.9932L13.6416 68.3262L73.4371 102.849L79.4029 92.5161Z" fill="#00FF39"/>
<path d="M79.928 91.8279L20.7441 56.2666L14.5989 66.4939L73.7828 102.055L79.928 91.8279Z" fill="#00FF3D"/>
<path d="M80.4605 91.1473L21.9062 54.5586L15.5835 64.6771L74.1377 101.266L80.4605 91.1473Z" fill="#00FF41"/>
<path d="M81.0083 90.4772L23.1016 52.8721L16.6032 62.8787L74.5099 100.484L81.0083 90.4772Z" fill="#00FF46"/>
<path d="M81.5678 89.817L24.3262 51.207L17.6541 61.0987L74.8958 99.7087L81.5678 89.817Z" fill="#00FF4A"/>
<path d="M82.1372 89.1656L25.5781 49.5625L18.7345 59.3363L75.2935 98.9394L82.1372 89.1656Z" fill="#00FF4E"/>
<path d="M82.7187 88.5246L26.8594 47.9404L19.8462 57.5933L75.7055 98.1774L82.7187 88.5246Z" fill="#00FF52"/>
<path d="M83.3124 87.8946L28.1699 46.3418L20.9893 55.8708L76.1318 97.4236L83.3124 87.8946Z" fill="#00FF57"/>
<path d="M83.9148 87.2745L29.5059 44.7656L22.1601 54.1678L76.569 96.6767L83.9148 87.2745Z" fill="#00FF5B"/>
<path d="M84.5279 86.6649L30.8691 43.2129L23.3604 52.4855L77.0191 95.9374L84.5279 86.6649Z" fill="#00FF5F"/>
<path d="M85.152 86.0664L32.2598 41.6846L24.5903 50.8247L77.4825 95.2065L85.152 86.0664Z" fill="#00FF63"/>
<path d="M85.7873 85.4788L33.6777 40.1807L25.8499 49.1855L77.9595 94.4837L85.7873 85.4788Z" fill="#00FF68"/>
<path d="M86.4322 84.9019L35.1211 38.7012L27.1373 47.568L78.4484 93.7688L86.4322 84.9019Z" fill="#00FF6C"/>
<path d="M87.0868 84.3363L36.5898 37.2471L28.4525 45.9733L78.9495 93.0624L87.0868 84.3363Z" fill="#00FF70"/>
<path d="M87.7534 83.7826L38.0859 35.8193L29.7976 44.4022L79.465 92.3655L87.7534 83.7826Z" fill="#00FF74"/>
<path d="M88.4263 83.2408L39.6035 34.418L31.1666 42.8549L79.9894 91.6777L88.4263 83.2408Z" fill="#00FF78"/>
<path d="M89.1117 82.7114L41.1484 33.0439L32.5656 41.3323L80.5289 90.9998L89.1117 82.7114Z" fill="#00FF7D"/>
<path d="M89.804 82.1932L42.7148 31.6963L33.9887 39.8336L81.0778 90.3306L89.804 82.1932Z" fill="#00FF81"/>
<path d="M90.5054 81.6871L44.3047 30.376L35.4378 38.3597L81.6385 89.6708L90.5054 81.6871Z" fill="#00FF85"/>
<path d="M91.2161 81.1926L45.918 29.083L36.9131 36.9108L82.2113 89.0204L91.2161 81.1926Z" fill="#00FF89"/>
<path d="M91.9346 80.7125L47.5527 27.8203L38.4126 35.4898L82.7945 88.382L91.9346 80.7125Z" fill="#00FF8E"/>
<path d="M92.661 80.2437L49.209 26.585L39.9364 34.0937L83.3884 87.7525L92.661 80.2437Z" fill="#00FF92"/>
<path d="M93.3976 79.7878L50.8887 25.3789L41.4865 32.7247L83.9954 87.1336L93.3976 79.7878Z" fill="#00FF96"/>
<path d="M94.1407 79.3446L52.5879 24.2021L43.0589 31.3827L84.6118 86.5252L94.1407 79.3446Z" fill="#00FF9A"/>
<path d="M94.8908 78.9159L54.3066 23.0566L44.6538 30.0698L85.238 85.9291L94.8908 78.9159Z" fill="#00FF9F"/>
<path d="M95.65 78.4985L56.0469 21.9395L46.2731 28.7831L85.8762 85.3422L95.65 78.4985Z" fill="#00FFA3"/>
<path d="M96.4166 78.0951L57.8066 20.8535L47.9149 27.5256L86.5249 84.7672L96.4166 78.0951Z" fill="#00FFA7"/>
<path d="M97.1871 77.7056L59.582 19.7988L49.5754 26.2972L87.1805 84.204L97.1871 77.7056Z" fill="#00FFAB"/>
<path d="M97.9676 77.3286L61.3789 18.7744L51.2604 25.0972L87.8491 83.6514L97.9676 77.3286Z" fill="#00FFB0"/>
<path d="M98.7507 76.9661L63.1895 17.7822L52.9621 23.9274L88.5234 83.1113L98.7507 76.9661Z" fill="#00FFB4"/>
<path d="M99.5425 76.6178L65.0195 16.8223L54.6865 22.788L89.2094 82.5835L99.5425 76.6178Z" fill="#00FFB8"/>
<path d="M100.341 76.2824L66.8672 15.8936L56.4316 21.6781L89.9057 82.067L100.341 76.2824Z" fill="#00FFBC"/>
<path d="M101.144 75.961L68.7285 14.9971L58.1936 20.5986L90.6086 81.5625L101.144 75.961Z" fill="#00FFC1"/>
<path d="M101.954 75.6531L70.6074 14.1328L59.9763 19.5496L91.3225 81.07L101.954 75.6531Z" fill="#00FFC5"/>
<path d="M102.768 75.3608L72.5 13.3027L61.776 18.5332L92.0437 80.5912L102.768 75.3608Z" fill="#00FFC9"/>
<path d="M103.586 75.0817L74.4062 12.5049L63.5926 17.5474L92.7726 80.1242L103.586 75.0817Z" fill="#00FFCD"/>
<path d="M104.41 74.8178L76.3262 11.7412L65.4261 16.5942L93.5096 79.6708L104.41 74.8178Z" fill="#00FFD1"/>
<path d="M105.238 74.5668L78.2598 11.0098L67.2767 15.6718L94.2551 79.2289L105.238 74.5668Z" fill="#00FFD6"/>
<path d="M106.07 74.3317L80.2051 10.3135L69.1423 14.7831L95.0074 78.8013L106.07 74.3317Z" fill="#00FFDA"/>
<path d="M106.908 74.1112L82.1641 9.65137L71.025 13.9273L95.7688 78.3871L106.908 74.1112Z" fill="#00FFDE"/>
<path d="M107.748 73.9053L84.1328 9.02344L72.9208 13.1043L96.5359 77.9862L107.748 73.9053Z" fill="#00FFE2"/>
<path d="M108.592 73.7129L86.1133 8.42871L74.8318 12.3132L97.3109 77.5974L108.592 73.7129Z" fill="#00FFE7"/>
<path d="M109.438 73.5366L88.1016 7.87012L76.754 11.5572L98.0903 77.2237L109.438 73.5366Z" fill="#00FFEB"/>
<path d="M110.289 73.3756L90.1016 7.34668L78.6914 10.8351L98.8784 76.864L110.289 73.3756Z" fill="#00FFEF"/>
<path d="M111.141 73.2286L92.1094 6.85742L80.64 10.1462L99.6716 76.5174L111.141 73.2286Z" fill="#00FFF3"/>
<path d="M111.997 73.0955L94.127 6.40234L82.602 9.49046L100.472 76.1837L111.997 73.0955Z" fill="#00FFF8"/>
<path d="M112.852 72.9783L96.1484 5.9834L84.5713 8.8699L101.275 75.8648L112.852 72.9783Z" fill="#00FFFC"/>
<path d="M113.712 72.8758L98.1797 5.59961L86.5539 8.28363L102.086 75.5599L113.712 72.8758Z" fill="#00FEFF"/>
<path d="M114.572 72.789L100.217 5.25195L88.546 7.73266L102.901 75.2697L114.572 72.789Z" fill="#00FAFF"/>
<path d="M115.434 72.7168L102.26 4.93945L90.5474 7.2161L103.722 74.9934L115.434 72.7168Z" fill="#00F5FF"/>
<path d="M116.298 72.66L104.309 4.66309L92.5583 6.73498L104.548 74.7319L116.298 72.66Z" fill="#00F1FF"/>
<path d="M117.164 72.6177L106.363 4.42188L94.5786 6.28838L105.38 74.4842L117.164 72.6177Z" fill="#00EDFF"/>
<path d="M118.027 72.5907L108.418 4.2168L96.6025 5.87735L106.212 74.2513L118.027 72.5907Z" fill="#00E9FF"/>
<path d="M118.891 72.5781L110.477 4.04688L98.6339 5.50097L107.049 74.0322L118.891 72.5781Z" fill="#00E4FF"/>
<path d="M119.758 72.5817L112.541 3.91406L100.675 5.16125L107.892 73.8289L119.758 72.5817Z" fill="#00E0FF"/>
<path d="M120.623 72.6005L114.605 3.81738L102.719 4.85729L108.737 73.6404L120.623 72.6005Z" fill="#00DCFF"/>
<path d="M121.486 72.6326L116.67 3.75488L104.767 4.58719L109.584 73.4649L121.486 72.6326Z" fill="#00D8FF"/>
<path d="M122.35 72.6817L118.736 3.73047L106.821 4.35492L110.435 73.3062L122.35 72.6817Z" fill="#00D4FF"/>
<path d="M123.212 72.745L120.803 3.74121L108.878 4.15762L111.288 73.1614L123.212 72.745Z" fill="#00CFFF"/>
<path d="M124.074 72.8244L122.869 3.78906L110.939 3.9973L112.144 73.0327L124.074 72.8244Z" fill="#00CBFF"/>
<path d="M124.934 72.917V3.87109H113.002V72.917H124.934Z" fill="#00C7FF"/>
<path d="M125.793 73.0256L126.998 3.99023L115.068 3.782L113.863 72.8174L125.793 73.0256Z" fill="#00C3FF"/>
<path d="M126.649 73.1493L129.059 4.14551L117.134 3.7291L114.725 72.7329L126.649 73.1493Z" fill="#00BEFF"/>
<path d="M127.504 73.2882L131.117 4.33691L119.202 3.71246L115.588 72.6637L127.504 73.2882Z" fill="#00BAFF"/>
<path d="M128.355 73.4412L133.172 4.56348L121.269 3.73117L116.453 72.6089L128.355 73.4412Z" fill="#00B6FF"/>
<path d="M129.203 73.6093L135.221 4.82617L123.335 3.78627L117.317 72.5694L129.203 73.6093Z" fill="#00B2FF"/>
<path d="M130.05 73.7926L137.268 5.125L125.401 3.87781L118.184 72.5454L130.05 73.7926Z" fill="#00ADFF"/>
<path d="M130.892 73.9902L139.307 5.45898L127.464 4.00489L119.049 72.5361L130.892 73.9902Z" fill="#00A9FF"/>
<path d="M131.731 74.203L141.34 5.8291L129.524 4.16855L119.915 72.5425L131.731 74.203Z" fill="#00A5FF"/>
<path d="M132.566 74.4292L143.367 6.2334L131.583 4.36689L120.781 72.5627L132.566 74.4292Z" fill="#00A1FF"/>
<path d="M133.397 74.6707L145.387 6.67383L133.636 4.60193L121.647 72.5988L133.397 74.6707Z" fill="#009CFF"/>
<path d="M134.222 74.9277L147.396 7.15039L135.684 4.87374L122.51 72.651L134.222 74.9277Z" fill="#0098FF"/>
<path d="M135.045 75.1972L149.4 7.66016L137.73 5.17945L123.374 72.7165L135.045 75.1972Z" fill="#0094FF"/>
<path d="M135.863 75.4823L151.395 8.20605L139.769 5.52204L124.237 72.7983L135.863 75.4823Z" fill="#0090FF"/>
<path d="M136.673 75.7811L153.377 8.78613L141.8 5.89963L125.096 72.8945L136.673 75.7811Z" fill="#008BFF"/>
<path d="M137.479 76.0936L155.35 9.40039L143.825 6.31228L125.954 73.0055L137.479 76.0936Z" fill="#0087FF"/>
<path d="M138.281 76.421L157.312 10.0498L145.843 6.76102L126.812 73.1322L138.281 76.421Z" fill="#0083FF"/>
<path d="M139.077 76.7623L159.264 10.7334L147.853 7.24495L127.666 73.2739L139.077 76.7623Z" fill="#007FFF"/>
<path d="M139.865 77.1167L161.201 11.4502L149.854 7.76314L128.517 73.4297L139.865 77.1167Z" fill="#007BFF"/>
<path d="M140.648 77.4853L163.127 12.2012L151.845 8.31664L129.366 73.6008L140.648 77.4853Z" fill="#0076FF"/>
<path d="M141.424 77.8673L165.039 12.9854L153.827 8.90452L130.212 73.7864L141.424 77.8673Z" fill="#0072FF"/>
<path d="M142.194 78.2636L166.938 13.8037L155.798 9.52782L131.055 73.9877L142.194 78.2636Z" fill="#006EFF"/>
<path d="M142.955 78.6725L168.82 14.6543L157.758 10.1847L131.893 74.2029L142.955 78.6725Z" fill="#006AFF"/>
<path d="M143.711 79.0951L170.689 15.5381L159.706 10.8761L132.728 74.4331L143.711 79.0951Z" fill="#0065FF"/>
<path d="M144.459 79.5297L172.543 16.4531L161.643 11.6001L133.559 74.6767L144.459 79.5297Z" fill="#0061FF"/>
<path d="M145.199 79.9782L174.379 17.4014L163.565 12.3589L134.385 74.9357L145.199 79.9782Z" fill="#005DFF"/>
<path d="M145.931 80.4389L176.199 18.3809L165.475 13.1504L135.207 75.2084L145.931 80.4389Z" fill="#0059FF"/>
<path d="M146.654 80.9129L178 19.3926L167.369 13.9758L136.023 75.4961L146.654 80.9129Z" fill="#0054FF"/>
<path d="M147.37 81.3994L179.785 20.4355L169.25 14.834L136.835 75.7979L147.37 81.3994Z" fill="#0050FF"/>
<path d="M148.079 81.8987L181.553 21.5098L171.117 15.7252L137.643 76.1141L148.079 81.8987Z" fill="#004CFF"/>
<path d="M148.776 82.4097L183.299 22.6143L172.966 16.6485L138.443 76.444L148.776 82.4097Z" fill="#0048FF"/>
<path d="M149.464 82.9319L185.025 23.748L174.798 17.6028L139.237 76.7867L149.464 82.9319Z" fill="#0043FF"/>
<path d="M150.144 83.4683L186.732 24.9141L176.614 18.5913L140.025 77.1455L150.144 83.4683Z" fill="#003FFF"/>
<path d="M150.815 84.0151L188.42 26.1084L178.413 19.61L140.808 77.5167L150.815 84.0151Z" fill="#003BFF"/>
<path d="M151.474 84.5737L190.084 27.332L180.192 20.66L141.582 77.9016L151.474 84.5737Z" fill="#0037FF"/>
<path d="M152.125 85.1431L191.729 28.584L181.955 21.7403L142.352 78.2994L152.125 85.1431Z" fill="#0032FF"/>
<path d="M152.767 85.7235L193.352 29.8643L183.699 22.8511L143.115 78.7103L152.767 85.7235Z" fill="#002EFF"/>
<path d="M153.396 86.3163L194.949 31.1738L185.42 23.9932L143.867 79.1357L153.396 86.3163Z" fill="#002AFF"/>
<path d="M154.017 86.9206L196.525 32.5117L187.123 25.1659L144.614 79.5748L154.017 86.9206Z" fill="#0026FF"/>
<path d="M154.626 87.5337L198.078 33.875L188.806 26.3662L145.354 80.025L154.626 87.5337Z" fill="#0022FF"/>
<path d="M122.637 236.467H115.859C115.545 236.352 115.229 236.324 114.912 236.324C111.293 236.152 107.701 235.861 104.14 235.377C97.4786 234.515 90.9288 233.05 84.5533 231.013C73.6115 227.512 63.4161 222.487 53.9673 215.939C45.2055 209.85 37.4542 202.673 30.7038 194.405C22.7457 184.7 16.5445 173.989 12.1485 162.22C8.21257 151.768 5.85821 140.946 5.13859 129.775C5.13859 129.172 5.02427 128.569 4.82422 127.966V116.165C5.02427 115.645 5.11001 115.102 5.13859 114.557C5.28148 111.886 5.56728 109.215 5.91594 106.576C7.64041 93.8284 11.4289 81.7377 17.2602 70.2808C21.2807 62.3838 26.1637 55.0367 31.9053 48.2566C37.5926 41.5393 43.9686 35.536 51.0316 30.2831C62.5491 21.7254 75.2154 15.5528 89.0568 11.7649C95.7764 9.92958 102.643 8.72354 109.59 8.14738C110.824 8.03306 112.119 8.14738 113.353 7.83301H124.955C125.845 8.09022 126.765 7.94732 127.654 8.03306C132.251 8.43317 136.817 9.01104 141.352 9.89986C155.627 12.7138 168.865 18.0558 181.102 25.9476C190.61 32.063 198.995 39.4416 206.318 48.0262C212.207 54.9178 217.201 62.4124 221.281 70.506C226.106 80.0692 229.55 90.0874 231.508 100.624C232.54 106.193 233.317 111.821 233.343 117.507C233.343 117.884 233.429 118.284 233.458 118.655V125.431C233.343 125.86 233.343 126.32 233.315 126.78C233.315 127.87 233.315 128.964 233.229 130.054C232.709 137.004 231.621 143.864 229.896 150.64C226.594 163.36 221.278 175.161 213.897 186.041C208.41 194.139 202.008 201.433 194.654 207.891C187.332 214.323 179.316 219.751 170.613 224.141C160.588 229.193 150.048 232.699 138.99 234.619C134.741 235.365 130.461 235.852 126.154 236.111C125.02 236.243 123.816 236.215 122.637 236.467Z" fill="#383838"/>
<path style="mix-blend-mode:lighten" d="M89.4072 74.7164C89.3272 76.8169 89.7004 79.1131 90.3192 81.4099C91.4982 85.7798 93.4522 89.784 95.7564 93.5663C101.005 102.167 107.622 109.531 114.8 116.368C115.388 116.93 116.088 117.405 116.837 117.766C117.588 118.157 118.337 118.157 119.113 117.822C119.862 117.487 120.533 117.011 121.096 116.393C123.587 113.817 126.049 111.238 128.407 108.576C131.728 104.793 134.89 100.902 137.756 96.7282C140.356 92.9465 142.685 88.968 144.398 84.6544C146.11 80.3669 146.943 75.9445 146.38 71.2946C145.443 63.6218 142.31 57.1207 136.711 52.0231C130.091 46.0054 122.379 43.5959 113.701 44.9381C99.5855 47.1256 89.3529 60.1238 89.4072 74.7164Z" fill="url(#paint0_radial_2031_1175)"/>
<path d="M162.456 179.3C160.679 179.354 158.685 179.134 156.69 178.711C150.79 177.419 145.779 174.736 141.927 169.98C139.585 167.08 137.616 163.937 135.919 160.631C133.923 156.736 132.256 152.677 130.802 148.569C129.026 143.6 127.517 138.523 126.356 133.391C125.711 130.515 126.436 128.714 129.616 127.724C133.655 126.461 137.725 125.333 141.873 124.418C148.741 122.913 155.664 121.947 162.725 122.185C164.719 122.265 166.71 122.48 168.679 122.829C174.391 123.824 179.239 126.457 183.198 130.62C189.961 137.712 192.652 146.174 190.984 155.821C188.587 169.604 176.355 179.408 162.456 179.3Z" fill="url(#paint1_radial_2031_1175)"/>
<path d="M73.4948 179.3C75.2715 179.354 77.2663 179.134 79.2606 178.711C85.1608 177.419 90.1723 174.736 94.0236 169.98C96.3658 167.08 98.3349 163.937 100.032 160.631C102.027 156.736 103.695 152.677 105.149 148.569C106.925 143.6 108.434 138.523 109.595 133.391C110.24 130.515 109.515 128.714 106.335 127.724C102.296 126.461 98.226 125.333 94.0777 124.418C87.2098 122.913 80.2872 121.947 73.2263 122.185C71.2315 122.265 69.2409 122.48 67.2719 122.829C61.5603 123.824 56.7124 126.457 52.7528 130.62C45.9894 137.712 43.2992 146.174 44.967 155.821C47.3639 169.604 59.5955 179.408 73.4948 179.3Z" fill="url(#paint2_radial_2031_1175)"/>
</g>
<defs>
<radialGradient id="paint0_radial_2031_1175" cx="0" cy="0" r="1" gradientUnits="userSpaceOnUse" gradientTransform="translate(118.529 114.257) rotate(4.82254) scale(30.3577 56.1162)">
<stop stop-color="white"/>
<stop offset="1" stop-color="#009BD8"/>
</radialGradient>
<radialGradient id="paint1_radial_2031_1175" cx="0" cy="0" r="1" gradientUnits="userSpaceOnUse" gradientTransform="translate(126.458 131.634) rotate(21.7759) scale(66.9449 35.7738)">
<stop stop-color="white"/>
<stop offset="1" stop-color="#FF3044"/>
</radialGradient>
<radialGradient id="paint2_radial_2031_1175" cx="0" cy="0" r="1" gradientUnits="userSpaceOnUse" gradientTransform="translate(109.138 129.208) rotate(146.321) scale(67.6525 30.7516)">
<stop stop-color="white"/>
<stop offset="1" stop-color="#FCFF7C"/>
</radialGradient>
<clipPath id="clip0_2031_1175">
<rect width="240" height="240" fill="white"/>
</clipPath>
</defs>
</svg>
