<svg width="120" height="120" viewBox="0 0 120 120" fill="none" xmlns="http://www.w3.org/2000/svg">
<g clip-path="url(#clip0_2031_1175)">
<path d="M55.4224 70.5252L77.6133 44.0791L73.0432 40.2444L50.8523 66.6905L55.4224 70.5252Z" fill="black"/>
<path d="M77.6138 44.0799L99.8047 17.6338L95.2346 13.7991L73.0437 40.2452L77.6138 44.0799Z" fill="#0019FF"/>
<path d="M77.9076 44.3966L100.557 18.3418L96.0542 14.4279L73.4051 40.4827L77.9076 44.3966Z" fill="#0015FF"/>
<path d="M78.1946 44.72L101.295 19.0645L96.8615 15.0726L73.7611 40.7281L78.1946 44.72Z" fill="#0011FF"/>
<path d="M78.4769 45.0463L102.021 19.7979L97.6584 15.7292L74.1138 40.9777L78.4769 45.0463Z" fill="#000CFF"/>
<path d="M78.7547 45.3796L102.736 20.5459L98.4449 16.4017L74.4633 41.2354L78.7547 45.3796Z" fill="#0008FF"/>
<path d="M79.0261 45.7171L103.438 21.3057L99.2191 17.0872L74.8077 41.4986L79.0261 45.7171Z" fill="#0004FF"/>
<path d="M79.2913 46.0578L104.125 22.0762L99.9808 17.7847L75.1471 41.7664L79.2913 46.0578Z" fill="#0000FF"/>
<path d="M79.5484 46.4049L104.797 22.8604L100.728 18.4973L75.4797 42.0418L79.5484 46.4049Z" fill="#0500FF"/>
<path d="M79.8015 46.7556L105.457 23.6553L101.465 19.2218L75.8096 42.3222L79.8015 46.7556Z" fill="#0900FF"/>
<path d="M80.0487 47.111L106.104 24.4619L102.19 19.9595L76.1348 42.6086L80.0487 47.111Z" fill="#0D00FF"/>
<path d="M80.2902 47.4702L106.736 25.2793L102.902 20.7092L76.4555 42.9002L80.2902 47.4702Z" fill="#1100FF"/>
<path d="M80.5242 47.8344L107.354 26.1084L103.599 21.4721L76.7698 43.1981L80.5242 47.8344Z" fill="#1600FF"/>
<path d="M80.7526 48.2017L107.957 26.9473L104.284 22.2462L77.0797 43.5006L80.7526 48.2017Z" fill="#1A00FF"/>
<path d="M80.9737 48.5733L108.545 27.7969L104.955 23.0324L77.3834 43.8088L80.9737 48.5733Z" fill="#1E00FF"/>
<path d="M81.1875 48.9493L109.117 28.6572L105.611 23.8308L77.6809 44.1229L81.1875 48.9493Z" fill="#2200FF"/>
<path d="M81.3962 49.3279L109.676 29.5264L106.254 24.6395L77.9744 44.441L81.3962 49.3279Z" fill="#2700FF"/>
<path d="M81.5979 49.7103L110.219 30.4053L106.883 25.4594L78.2619 44.7644L81.5979 49.7103Z" fill="#2B00FF"/>
<path d="M81.7927 50.0965L110.746 31.2939L107.497 26.2906L78.5435 45.0932L81.7927 50.0965Z" fill="#2F00FF"/>
<path d="M81.9827 50.4868L111.26 32.1924L108.098 27.1331L78.8213 45.4275L81.9827 50.4868Z" fill="#3300FF"/>
<path d="M82.162 50.8793L111.754 33.0986L108.681 27.985L79.0894 45.7656L82.162 50.8793Z" fill="#3800FF"/>
<path d="M82.3386 51.2751L112.236 34.0137L109.253 28.8472L79.3557 46.1086L82.3386 51.2751Z" fill="#3C00FF"/>
<path d="M82.5048 51.6736L112.699 34.9365L109.807 29.7187L79.6125 46.4558L82.5048 51.6736Z" fill="#4000FF"/>
<path d="M82.6665 52.0747L113.148 35.8672L110.348 30.5997L79.8657 46.8073L82.6665 52.0747Z" fill="#4400FF"/>
<path d="M82.8199 52.4797L113.58 36.8066L110.872 31.4911L80.1115 47.1642L82.8199 52.4797Z" fill="#4800FF"/>
<path d="M82.9651 52.8868L113.994 37.7529L111.379 32.3909L80.3499 47.5248L82.9651 52.8868Z" fill="#4D00FF"/>
<path d="M83.1042 53.2961L114.393 38.7061L111.871 33.2992L80.5829 47.8892L83.1042 53.2961Z" fill="#5100FF"/>
<path d="M83.2371 53.7087L114.775 39.667L112.349 34.217L80.8106 48.2587L83.2371 53.7087Z" fill="#5500FF"/>
<path d="M83.3621 54.122L115.141 40.6328L112.81 35.1413L81.0311 48.6305L83.3621 54.122Z" fill="#5900FF"/>
<path d="M83.4811 54.539L115.49 41.6064L113.255 36.0751L81.2463 49.0076L83.4811 54.539Z" fill="#5E00FF"/>
<path d="M83.5904 54.9569L115.82 42.585L113.682 37.0154L81.4524 49.3873L83.5904 54.9569Z" fill="#6200FF"/>
<path d="M83.6938 55.3769L116.135 43.5693L114.094 37.9633L81.6534 49.7709L83.6938 55.3769Z" fill="#6600FF"/>
<path d="M83.7896 55.7982L116.432 44.5586L114.489 38.9178L81.8473 50.1574L83.7896 55.7982Z" fill="#6A00FF"/>
<path d="M83.8777 56.2219L116.711 45.5537L114.867 39.8799L82.0341 50.5481L83.8777 56.2219Z" fill="#6F00FF"/>
<path d="M83.9582 56.6472L116.973 46.5537L115.228 40.8486L82.214 50.9421L83.9582 56.6472Z" fill="#7300FF"/>
<path d="M84.0332 57.0734L117.219 47.5576L115.574 41.8229L82.3888 51.3388L84.0332 57.0734Z" fill="#7700FF"/>
<path d="M84.0987 57.5006L117.445 48.5654L115.901 42.8029L82.5547 51.7381L84.0987 57.5006Z" fill="#7B00FF"/>
<path d="M84.1568 57.93L117.654 49.5781L116.211 43.7896L82.7136 52.1414L84.1568 57.93Z" fill="#8000FF"/>
<path d="M84.2076 58.3587L117.846 50.5928L116.504 44.7799L82.8656 52.5459L84.2076 58.3587Z" fill="#8400FF"/>
<path d="M84.251 58.789L118.02 51.6113L116.779 45.7759L83.0106 52.9536L84.251 58.789Z" fill="#8800FF"/>
<path d="M84.2871 59.2211L118.176 52.6338L117.037 46.7776L83.1488 53.3649L84.2871 59.2211Z" fill="#8C00FF"/>
<path d="M84.316 59.6521L118.314 53.6572L117.279 47.7821L83.28 53.7769L84.316 59.6521Z" fill="#9100FF"/>
<path d="M84.3376 60.0842L118.436 54.6836L117.502 48.7913L83.4044 54.1918L84.3376 60.0842Z" fill="#9500FF"/>
<path d="M84.3501 60.5166L118.537 55.7119L117.707 49.8042L83.5199 54.6089L84.3501 60.5166Z" fill="#9900FF"/>
<path d="M84.3574 60.9495L118.623 56.7422L117.896 50.8209L83.6304 55.0282L84.3574 60.9495Z" fill="#9D00FF"/>
<path d="M84.3556 61.3821L118.689 57.7734L118.066 51.8403L83.732 55.449L84.3556 61.3821Z" fill="#A100FF"/>
<path d="M84.3467 61.8145L118.738 58.8057L118.218 52.8626L83.8268 55.8715L84.3467 61.8145Z" fill="#A600FF"/>
<path d="M84.3287 62.2461L118.768 59.8379L118.351 53.8866L83.9126 56.2948L84.3287 62.2461Z" fill="#AA00FF"/>
<path d="M84.3056 62.6779L118.781 60.8711L118.469 54.9135L83.9934 56.7203L84.3056 62.6779Z" fill="#AE00FF"/>
<path d="M84.2735 63.1101L118.775 61.9053L118.567 55.9431L84.0653 57.148L84.2735 63.1101Z" fill="#B200FF"/>
<path d="M84.2343 63.541L118.752 62.9385L118.648 56.9736L84.1302 57.5761L84.2343 63.541Z" fill="#B700FF"/>
<path d="M84.188 63.9707H118.711V58.0049H84.188V63.9707Z" fill="#BB00FF"/>
<path d="M84.1327 64.4004L118.65 65.0029L118.755 59.0381L84.2368 58.4355L84.1327 64.4004Z" fill="#BF00FF"/>
<path d="M84.0723 64.8284L118.574 66.0332L118.782 60.0711L84.2805 58.8662L84.0723 64.8284Z" fill="#C300FF"/>
<path d="M84.0009 65.2547L118.477 67.0615L118.789 61.1039L84.3132 59.2971L84.0009 65.2547Z" fill="#C800FF"/>
<path d="M83.9264 65.6807L118.365 68.0889L118.781 62.1376L84.3425 59.7294L83.9264 65.6807Z" fill="#CC00FF"/>
<path d="M83.8409 66.1054L118.232 69.1143L118.752 63.1712L84.3608 60.1623L83.8409 66.1054Z" fill="#D000FF"/>
<path d="M83.7502 66.5281L118.084 70.1367L118.708 64.2036L84.3738 60.595L83.7502 66.5281Z" fill="#D400FF"/>
<path d="M83.6504 66.949L117.916 71.1562L118.643 65.2349L84.3775 61.0276L83.6504 66.949Z" fill="#D900FF"/>
<path d="M83.5455 67.3682L117.732 72.1729L118.563 66.2651L84.3757 61.4605L83.5455 67.3682Z" fill="#DD00FF"/>
<path d="M83.4314 67.7859L117.529 73.1865L118.463 67.2942L84.3646 61.8936L83.4314 67.7859Z" fill="#E100FF"/>
<path d="M83.3101 68.2014L117.309 74.1963L118.345 68.3211L84.3461 62.3263L83.3101 68.2014Z" fill="#E500FF"/>
<path d="M83.1817 68.6139L117.07 75.2012L118.209 69.345L84.32 62.7577L83.1817 68.6139Z" fill="#EA00FF"/>
<path d="M83.0479 69.0254L116.816 76.2031L118.057 70.3677L84.2882 63.19L83.0479 69.0254Z" fill="#EE00FF"/>
<path d="M82.9049 69.4332L116.543 77.1992L117.885 71.3863L84.2469 63.6204L82.9049 69.4332Z" fill="#F200FF"/>
<path d="M82.7545 69.8396L116.252 78.1914L117.695 72.4028L84.1977 64.051L82.7545 69.8396Z" fill="#F600FF"/>
<path d="M82.5987 70.2435L115.945 79.1787L117.489 73.4162L84.1428 64.481L82.5987 70.2435Z" fill="#FA00FF"/>
<path d="M82.4355 70.6434L115.621 80.1592L117.265 74.4245L84.0799 64.9087L82.4355 70.6434Z" fill="#FF00FF"/>
<path d="M82.2648 71.0412L115.279 81.1348L117.024 75.4297L84.0091 65.3361L82.2648 71.0412Z" fill="#FF00FB"/>
<path d="M82.0867 71.4353L114.92 82.1035L116.763 76.4297L83.9302 65.7615L82.0867 71.4353Z" fill="#FF00F7"/>
<path d="M81.9028 71.8268L114.545 83.0664L116.487 77.4257L83.8451 66.1861L81.9028 71.8268Z" fill="#FF00F3"/>
<path d="M81.7114 72.2149L114.152 84.0225L116.193 78.4165L83.7518 66.6089L81.7114 72.2149Z" fill="#FF00EE"/>
<path d="M81.5142 72.5998L113.744 84.9717L115.882 79.4021L83.6521 67.0302L81.5142 72.5998Z" fill="#FF00EA"/>
<path d="M81.3092 72.9815L113.318 85.9141L115.553 80.3827L83.5441 67.4502L81.3092 72.9815Z" fill="#FF00E6"/>
<path d="M81.0984 73.3585L112.877 86.8477L115.208 81.3561L83.4294 67.8669L81.0984 73.3585Z" fill="#FF00E2"/>
<path d="M80.8816 73.7327L112.42 87.7744L114.846 82.3244L83.3082 68.2827L80.8816 73.7327Z" fill="#FF00DD"/>
<path d="M80.6569 74.1024L111.945 88.6924L114.467 83.2855L83.1782 68.6955L80.6569 74.1024Z" fill="#FF00D9"/>
<path d="M80.4261 74.4687L111.455 89.6025L114.07 84.2405L83.0413 69.1067L80.4261 74.4687Z" fill="#FF00D5"/>
<path d="M80.1891 74.8298L110.949 90.5029L113.658 85.1874L82.8975 69.5143L80.1891 74.8298Z" fill="#FF00D1"/>
<path d="M79.9458 75.188L110.428 91.3955L113.228 86.128L82.7466 69.9205L79.9458 75.188Z" fill="#FF00CC"/>
<path d="M79.6962 75.5413L109.891 92.2783L112.783 87.0605L82.5884 70.3235L79.6962 75.5413Z" fill="#FF00C8"/>
<path d="M79.4402 75.8909L109.338 93.1523L112.321 87.9858L82.423 70.7244L79.4402 75.8909Z" fill="#FF00C4"/>
<path d="M79.1796 76.235L108.771 94.0156L111.844 88.902L82.2522 71.1213L79.1796 76.235Z" fill="#FF00C0"/>
<path d="M78.9123 76.5748L108.189 94.8691L111.351 89.8099L82.0737 71.5155L78.9123 76.5748Z" fill="#FF00BB"/>
<path d="M78.6384 76.9104L107.592 95.7129L110.841 90.7096L81.8876 71.907L78.6384 76.9104Z" fill="#FF00B7"/>
<path d="M78.3597 77.2409L106.98 96.5459L110.316 91.6L81.6957 72.2951L78.3597 77.2409Z" fill="#FF00B3"/>
<path d="M78.074 77.5656L106.354 97.3672L109.775 92.4803L81.4958 72.6788L78.074 77.5656Z" fill="#FF00AF"/>
<path d="M77.7852 77.8857L105.715 98.1777L109.221 93.3513L81.2918 73.0592L77.7852 77.8857Z" fill="#FF00AB"/>
<path d="M77.4874 78.2021L105.059 98.9785L108.649 94.214L81.0776 73.4376L77.4874 78.2021Z" fill="#FF00A6"/>
<path d="M77.1862 78.5122L104.391 99.7666L108.064 95.0655L80.8591 73.8111L77.1862 78.5122Z" fill="#FF00A2"/>
<path d="M76.8777 78.816L103.707 100.542L107.461 95.9057L80.6321 74.1797L76.8777 78.816Z" fill="#FF009E"/>
<path d="M76.5656 79.1157L103.012 101.307L106.846 96.7366L80.4003 74.5457L76.5656 79.1157Z" fill="#FF009A"/>
<path d="M76.2499 79.4095L102.305 102.059L106.219 97.5562L80.1638 74.9071L76.2499 79.4095Z" fill="#FF0095"/>
<path d="M75.9265 79.6975L101.582 102.798L105.574 98.3644L79.9184 75.2641L75.9265 79.6975Z" fill="#FF0091"/>
<path d="M75.5992 79.9808L100.848 103.525L104.916 99.1623L79.6678 75.6177L75.5992 79.9808Z" fill="#FF008D"/>
<path d="M75.2678 80.2576L100.102 104.239L104.246 99.9478L79.412 75.9662L75.2678 80.2576Z" fill="#FF0089"/>
<path d="M74.9284 80.528L99.3398 104.939L103.558 100.721L79.1469 76.3096L74.9284 80.528Z" fill="#FF0084"/>
<path d="M74.5887 80.7932L98.5703 105.627L102.862 101.483L78.8801 76.649L74.5887 80.7932Z" fill="#FF0080"/>
<path d="M74.2425 81.0523L97.7871 106.301L102.15 102.232L78.6056 76.9837L74.2425 81.0523Z" fill="#FF007C"/>
<path d="M73.8899 81.3054L96.9902 106.961L101.424 102.969L78.3233 77.3135L73.8899 81.3054Z" fill="#FF0078"/>
<path d="M73.5345 81.5526L96.1836 107.607L100.686 103.694L78.0369 77.6387L73.5345 81.5526Z" fill="#FF0073"/>
<path d="M73.1763 81.7932L95.3672 108.239L99.9372 104.405L77.7463 77.9584L73.1763 81.7932Z" fill="#FF006F"/>
<path d="M72.8111 82.0271L94.5371 108.856L99.1734 105.102L77.4474 78.2727L72.8111 82.0271Z" fill="#FF006B"/>
<path d="M72.4448 82.2555L93.6992 109.46L98.4003 105.787L77.1459 78.5826L72.4448 82.2555Z" fill="#FF0067"/>
<path d="M72.0732 82.4766L92.8496 110.048L97.6141 106.458L76.8377 78.8863L72.0732 82.4766Z" fill="#FF0062"/>
<path d="M71.6982 82.6915L91.9902 110.621L96.8167 107.114L76.5246 79.1849L71.6982 82.6915Z" fill="#FF005E"/>
<path d="M71.3196 82.8992L91.1211 111.179L96.008 107.757L76.2064 79.4773L71.3196 82.8992Z" fill="#FF005A"/>
<path d="M70.9353 83.1018L90.2402 111.723L95.1861 108.387L75.8811 79.7658L70.9353 83.1018Z" fill="#FF0056"/>
<path d="M70.549 83.2966L89.3516 112.25L94.3549 109.001L75.5523 80.0474L70.549 83.2966Z" fill="#FF0052"/>
<path d="M70.1607 83.4846L88.4551 112.762L93.5143 109.6L75.22 80.3232L70.1607 83.4846Z" fill="#FF004D"/>
<path d="M69.7662 83.6659L87.5469 113.258L92.6605 110.185L74.8799 80.5933L69.7662 83.6659Z" fill="#FF0049"/>
<path d="M69.3713 83.8405L86.6328 113.738L91.7993 110.755L74.5379 80.8576L69.3713 83.8405Z" fill="#FF0045"/>
<path d="M68.9719 84.0077L85.709 114.202L90.9268 111.31L74.1897 81.1154L68.9719 84.0077Z" fill="#FF0041"/>
<path d="M68.5698 84.1684L84.7773 114.65L90.0448 111.85L73.8373 81.3677L68.5698 84.1684Z" fill="#FF003C"/>
<path d="M68.1668 84.3219L83.8398 115.082L89.1554 112.374L73.4823 81.6135L68.1668 84.3219Z" fill="#FF0038"/>
<path d="M67.7607 84.469L82.8945 115.498L88.2565 112.883L73.1227 81.8538L67.7607 84.469Z" fill="#FF0034"/>
<path d="M67.3494 84.6081L81.9395 115.896L87.3463 113.375L72.7563 82.0868L67.3494 84.6081Z" fill="#FF0030"/>
<path d="M66.9387 84.74L80.9805 116.278L86.4305 113.852L72.3887 82.3135L66.9387 84.74Z" fill="#FF002B"/>
<path d="M66.5245 84.865L80.0137 116.644L85.5052 114.313L72.016 82.534L66.5245 84.865Z" fill="#FF0027"/>
<path d="M66.1065 84.9831L79.0391 116.992L84.5704 114.757L71.6379 82.7483L66.1065 84.9831Z" fill="#FF0023"/>
<path d="M65.6886 85.0933L78.0605 117.323L83.6301 115.185L71.2582 82.9554L65.6886 85.0933Z" fill="#FF001F"/>
<path d="M65.2686 85.1958L77.0762 117.637L82.6822 115.596L70.8746 83.1554L65.2686 85.1958Z" fill="#FF001A"/>
<path d="M64.8483 85.2925L76.0879 117.935L81.7286 115.992L70.4891 83.3502L64.8483 85.2925Z" fill="#FF0016"/>
<path d="M64.4236 85.3806L75.0918 118.214L80.7656 116.37L70.0974 83.5371L64.4236 85.3806Z" fill="#FF0012"/>
<path d="M64.0002 85.4611L74.0938 118.476L79.7989 116.731L69.7053 83.7169L64.0002 85.4611Z" fill="#FF000E"/>
<path d="M63.574 85.5351L73.0898 118.721L78.8245 117.076L69.3087 83.8907L63.574 85.5351Z" fill="#FF0009"/>
<path d="M63.1449 85.6007L72.0801 118.947L77.8426 117.403L68.9074 84.0566L63.1449 85.6007Z" fill="#FF0005"/>
<path d="M62.7165 85.6598L71.0684 119.157L76.8569 117.714L68.5051 84.2165L62.7165 85.6598Z" fill="#FF0001"/>
<path d="M62.2868 85.7115L70.0527 119.35L75.8656 118.008L68.0996 84.3695L62.2868 85.7115Z" fill="#FF0300"/>
<path d="M61.8574 85.7549L69.0352 119.523L74.8706 118.283L67.6928 84.5146L61.8574 85.7549Z" fill="#FF0700"/>
<path d="M61.4244 85.7901L68.0117 119.679L73.8679 118.54L67.2806 84.6517L61.4244 85.7901Z" fill="#FF0C00"/>
<path d="M60.9934 85.8189L66.9883 119.817L72.8634 118.781L66.8686 84.783L60.9934 85.8189Z" fill="#FF1000"/>
<path d="M60.5623 85.8396L65.9629 119.938L71.8552 119.004L66.4546 84.9063L60.5623 85.8396Z" fill="#FF1400"/>
<path d="M60.1289 85.854L64.9336 120.041L70.8413 119.211L66.0367 85.0238L60.1289 85.854Z" fill="#FF1800"/>
<path d="M59.697 85.8594L63.9043 120.125L69.8256 119.398L65.6183 85.1323L59.697 85.8594Z" fill="#FF1D00"/>
<path d="M59.2644 85.8586L62.873 120.192L68.8061 119.569L65.1975 85.235L59.2644 85.8586Z" fill="#FF2100"/>
<path d="M58.8329 85.8487L61.8418 120.24L67.7849 119.72L64.776 85.3287L58.8329 85.8487Z" fill="#FF2500"/>
<path d="M58.4004 85.8326L60.8086 120.271L66.7598 119.855L64.3516 85.4165L58.4004 85.8326Z" fill="#FF2900"/>
<path d="M57.9666 85.8076L59.7734 120.283L65.731 119.971L63.9243 85.4954L57.9666 85.8076Z" fill="#FF2E00"/>
<path d="M57.5354 85.7764L58.7402 120.278L64.7024 120.07L63.4975 85.5682L57.5354 85.7764Z" fill="#FF3200"/>
<path d="M57.1045 85.7372L57.707 120.255L63.6719 120.151L63.0694 85.6331L57.1045 85.7372Z" fill="#FF3600"/>
<path d="M56.6758 85.69V120.213H62.6416V85.69H56.6758Z" fill="#FF3A00"/>
<path d="M56.247 85.6356L55.6445 120.153L61.6094 120.257L62.2119 85.7398L56.247 85.6356Z" fill="#FF3F00"/>
<path d="M55.8181 85.5743L54.6133 120.076L60.5754 120.284L61.7803 85.7825L55.8181 85.5743Z" fill="#FF4300"/>
<path d="M55.3908 85.5048L53.584 119.98L59.5416 120.293L61.3484 85.8171L55.3908 85.5048Z" fill="#FF4700"/>
<path d="M54.9648 85.4283L52.5566 119.867L58.5079 120.283L60.9161 85.8445L54.9648 85.4283Z" fill="#FF4B00"/>
<path d="M54.5401 85.3438L51.5312 119.735L57.4743 120.255L60.4832 85.8637L54.5401 85.3438Z" fill="#FF5000"/>
<path d="M54.1184 85.2531L50.5098 119.587L56.4429 120.211L60.0515 85.8767L54.1184 85.2531Z" fill="#FF5400"/>
<path d="M53.6975 85.1533L49.4902 119.419L55.4115 120.146L59.6188 85.8804L53.6975 85.1533Z" fill="#FF5800"/>
<path d="M53.2773 85.0474L48.4727 119.234L54.3804 120.065L59.185 85.8777L53.2773 85.0474Z" fill="#FF5C00"/>
<path d="M52.8596 84.9343L47.459 119.032L53.3513 119.965L58.7519 85.8676L52.8596 84.9343Z" fill="#FF6000"/>
<path d="M52.446 84.8131L46.4512 118.812L52.3263 119.847L58.3212 85.849L52.446 84.8131Z" fill="#FF6500"/>
<path d="M52.0306 84.6856L45.4434 118.574L51.2995 119.713L57.8868 85.8239L52.0306 84.6856Z" fill="#FF6900"/>
<path d="M51.6211 84.5498L44.4434 118.318L50.2788 119.559L57.4565 85.7902L51.6211 84.5498Z" fill="#FF6D00"/>
<path d="M51.2132 84.4078L43.4473 118.046L49.2601 119.388L57.0261 85.7498L51.2132 84.4078Z" fill="#FF7100"/>
<path d="M50.8069 84.2584L42.4551 117.756L48.2436 119.199L56.5955 85.7017L50.8069 84.2584Z" fill="#FF7600"/>
<path d="M50.4039 84.1016L41.4688 117.448L47.2313 118.992L56.1664 85.6457L50.4039 84.1016Z" fill="#FF7A00"/>
<path d="M50.0021 83.9384L40.4863 117.124L46.221 118.768L55.7368 85.5828L50.0021 83.9384Z" fill="#FF7E00"/>
<path d="M49.6053 83.7678L39.5117 116.782L45.2168 118.526L55.3104 85.512L49.6053 83.7678Z" fill="#FF8200"/>
<path d="M49.2111 83.5906L38.543 116.424L44.2168 118.267L54.8849 85.4341L49.2111 83.5906Z" fill="#FF8700"/>
<path d="M48.8196 83.4067L37.5801 116.049L43.2208 117.991L54.4604 85.349L48.8196 83.4067Z" fill="#FF8B00"/>
<path d="M48.4306 83.2153L36.623 115.656L42.229 117.697L54.0366 85.2557L48.4306 83.2153Z" fill="#FF8F00"/>
<path d="M48.0457 83.0171L35.6738 115.247L41.2434 117.385L53.6153 85.1551L48.0457 83.0171Z" fill="#FF9300"/>
<path d="M47.6649 82.8132L34.7324 114.822L40.2638 117.057L53.1963 85.048L47.6649 82.8132Z" fill="#FF9800"/>
<path d="M47.288 82.6014L33.7988 114.38L39.2904 116.711L52.7795 84.9324L47.288 82.6014Z" fill="#FF9C00"/>
<path d="M46.9148 82.3836L32.873 113.922L38.3231 116.348L52.3648 84.8101L46.9148 82.3836Z" fill="#FFA000"/>
<path d="M46.5431 82.1598L31.9531 113.448L37.36 115.969L51.95 84.6811L46.5431 82.1598Z" fill="#FFA400"/>
<path d="M46.1788 81.93L31.0449 112.959L36.4069 115.574L51.5408 84.5452L46.1788 81.93Z" fill="#FFA900"/>
<path d="M45.8157 81.693L30.1426 112.453L35.4581 115.162L51.1312 84.4014L45.8157 81.693Z" fill="#FFAD00"/>
<path d="M45.4575 81.4487L29.25 111.931L34.5175 114.731L50.725 84.2495L45.4575 81.4487Z" fill="#FFB100"/>
<path d="M45.1042 81.2001L28.3672 111.395L33.585 114.287L50.322 84.0924L45.1042 81.2001Z" fill="#FFB500"/>
<path d="M44.7556 80.9441L27.4941 110.842L32.6607 113.825L49.9221 83.9269L44.7556 80.9441Z" fill="#FFB900"/>
<path d="M44.4115 80.6825L26.6309 110.274L31.7445 113.347L49.5252 83.7551L44.4115 80.6825Z" fill="#FFBE00"/>
<path d="M44.0717 80.4153L25.7773 109.692L30.8366 112.854L49.131 83.5767L44.0717 80.4153Z" fill="#FFC200"/>
<path d="M43.7361 80.1414L24.9336 109.095L29.9369 112.344L48.7395 83.3906L43.7361 80.1414Z" fill="#FFC600"/>
<path d="M43.4065 79.8626L24.1016 108.483L29.0474 111.819L48.3524 83.1986L43.4065 79.8626Z" fill="#FFCA00"/>
<path d="M43.0808 79.5769L23.2793 107.856L28.1662 111.278L47.9677 82.9987L43.0808 79.5769Z" fill="#FFCF00"/>
<path d="M42.7608 79.2872L22.4688 107.217L27.2952 110.723L47.5872 82.7938L42.7608 79.2872Z" fill="#FFD300"/>
<path d="M42.4444 78.9903L21.668 106.562L26.4325 110.152L47.2089 82.5806L42.4444 78.9903Z" fill="#FFD700"/>
<path d="M42.1333 78.6891L20.8789 105.894L25.58 109.566L46.8344 82.362L42.1333 78.6891Z" fill="#FFDB00"/>
<path d="M41.8295 78.3825L20.1035 105.212L24.7398 108.966L46.4658 82.1369L41.8295 78.3825Z" fill="#FFE000"/>
<path d="M41.5308 78.0695L19.3398 104.516L23.9099 108.35L46.1008 81.9043L41.5308 78.0695Z" fill="#FFE400"/>
<path d="M41.237 77.7518L18.5879 103.807L23.0903 107.721L45.7394 81.6657L41.237 77.7518Z" fill="#FFE800"/>
<path d="M40.948 77.4294L17.8477 103.085L22.2811 107.077L45.3814 81.4213L40.948 77.4294Z" fill="#FFEC00"/>
<path d="M40.6657 77.1021L17.1211 102.351L21.4842 106.419L45.0288 81.1708L40.6657 77.1021Z" fill="#FFF100"/>
<path d="M40.3899 76.7698L16.4082 101.604L20.6996 105.748L44.6813 80.914L40.3899 76.7698Z" fill="#FFF500"/>
<path d="M40.1184 76.4323L15.707 100.844L19.9255 105.062L44.3369 80.6508L40.1184 76.4323Z" fill="#FFF900"/>
<path d="M39.8533 76.0906L15.0195 100.072L19.1637 104.364L43.9974 80.382L39.8533 76.0906Z" fill="#FFFD00"/>
<path d="M39.5942 75.7445L14.3457 99.2891L18.4144 103.652L43.6628 80.1076L39.5942 75.7445Z" fill="#FCFF00"/>
<path d="M39.3411 75.3928L13.6855 98.4932L17.6774 102.927L43.333 79.8263L39.3411 75.3928Z" fill="#F8FF00"/>
<path d="M39.0939 75.0384L13.0391 97.6875L16.953 102.19L43.0078 79.5408L39.0939 75.0384Z" fill="#F4FF00"/>
<path d="M38.8543 74.6782L12.4082 96.8691L16.2429 101.439L42.689 79.2483L38.8543 74.6782Z" fill="#F0FF00"/>
<path d="M38.6204 74.315L11.791 96.041L15.5454 100.677L42.3748 78.9513L38.6204 74.315Z" fill="#ECFF00"/>
<path d="M38.3919 73.9477L11.1875 95.2021L14.8604 99.9032L42.0648 78.6488L38.3919 73.9477Z" fill="#E7FF00"/>
<path d="M38.1709 73.5751L10.5996 94.3516L14.1899 99.116L41.7612 78.3396L38.1709 73.5751Z" fill="#E3FF00"/>
<path d="M37.955 73.2001L10.0254 93.4922L13.532 98.3186L41.4616 78.0265L37.955 73.2001Z" fill="#DFFF00"/>
<path d="M37.7463 72.8215L9.4668 92.623L12.8886 97.5099L41.1682 77.7084L37.7463 72.8215Z" fill="#DBFF00"/>
<path d="M37.5446 72.4392L8.92383 91.7441L12.2599 96.69L40.8807 77.385L37.5446 72.4392Z" fill="#D6FF00"/>
<path d="M37.3499 72.052L8.39648 90.8545L11.6457 95.8578L40.5991 77.0553L37.3499 72.052Z" fill="#D2FF00"/>
<path d="M37.1619 71.6627L7.88477 89.957L11.0461 95.0163L40.3233 76.7219L37.1619 71.6627Z" fill="#CEFF00"/>
<path d="M36.9806 71.2702L7.38867 89.0508L10.4613 94.1645L40.0532 76.3838L36.9806 71.2702Z" fill="#CAFF00"/>
<path d="M36.8059 70.8743L6.9082 88.1357L9.89109 93.3023L39.7888 76.0408L36.8059 70.8743Z" fill="#C5FF00"/>
<path d="M36.6378 70.4758L6.44336 87.2129L9.33563 92.4307L39.5301 75.6936L36.6378 70.4758Z" fill="#C1FF00"/>
<path d="M36.478 70.0737L5.99609 86.2812L8.79686 91.5487L39.2788 75.3412L36.478 70.0737Z" fill="#BDFF00"/>
<path d="M36.3246 69.6697L5.56445 85.3428L8.27286 90.6583L39.033 74.9852L36.3246 69.6697Z" fill="#B9FF00"/>
<path d="M36.1774 69.2626L5.14844 84.3965L7.76366 89.7585L38.7927 74.6246L36.1774 69.2626Z" fill="#B4FF00"/>
<path d="M36.0384 68.8524L4.75 83.4424L7.27125 88.8492L38.5597 74.2592L36.0384 68.8524Z" fill="#B0FF00"/>
<path d="M35.9055 68.4407L4.36719 82.4824L6.79369 87.9324L38.332 73.8907L35.9055 68.4407Z" fill="#ACFF00"/>
<path d="M35.7805 68.0264L4.00195 81.5156L6.33297 87.0072L38.1115 73.518L35.7805 68.0264Z" fill="#A8FF00"/>
<path d="M35.6634 67.6105L3.6543 80.543L5.88912 86.0743L37.8982 73.1418L35.6634 67.6105Z" fill="#A3FF00"/>
<path d="M35.5522 67.1925L3.32227 79.5645L5.46021 85.134L37.6902 72.7621L35.5522 67.1925Z" fill="#9FFF00"/>
<path d="M35.4507 66.7725L3.00977 78.5801L5.05018 84.1861L37.4911 72.3785L35.4507 66.7725Z" fill="#9BFF00"/>
<path d="M35.355 66.3503L2.71289 77.5898L4.65516 83.2306L37.2972 71.991L35.355 66.3503Z" fill="#97FF00"/>
<path d="M35.2649 65.9266L2.43164 76.5947L4.27517 82.2685L37.1084 71.6003L35.2649 65.9266Z" fill="#93FF00"/>
<path d="M35.1844 65.5022L2.16992 75.5957L3.91415 81.3008L36.9286 71.2073L35.1844 65.5022Z" fill="#8EFF00"/>
<path d="M35.1114 65.076L1.92578 74.5918L3.57017 80.3265L36.7558 70.8107L35.1114 65.076Z" fill="#8AFF00"/>
<path d="M35.0458 64.6478L1.69922 73.583L3.24328 79.3455L36.5899 70.4103L35.0458 64.6478Z" fill="#86FF00"/>
<path d="M34.9857 64.2194L1.48828 72.5713L2.93153 78.3599L36.429 70.008L34.9857 64.2194Z" fill="#82FF00"/>
<path d="M34.935 63.7897L1.29688 71.5557L2.63888 77.3685L36.277 69.6026L34.935 63.7897Z" fill="#7DFF00"/>
<path d="M34.8916 63.3594L1.12305 70.5371L2.3634 76.3725L36.1319 69.1948L34.8916 63.3594Z" fill="#79FF00"/>
<path d="M34.8555 62.9283L0.966797 69.5156L2.10512 75.3718L35.9938 68.7845L34.8555 62.9283Z" fill="#75FF00"/>
<path d="M34.8266 62.4964L0.828125 68.4912L1.86407 74.3664L35.8625 68.3715L34.8266 62.4964Z" fill="#71FF00"/>
<path d="M34.8069 62.0652L0.708984 67.4658L1.64224 73.3582L35.7401 67.9576L34.8069 62.0652Z" fill="#6CFF00"/>
<path d="M34.7924 61.6319L0.605469 66.4365L1.43574 72.3442L35.6227 67.5396L34.7924 61.6319Z" fill="#68FF00"/>
<path d="M34.7871 61.1999L0.521484 65.4072L1.24853 71.3285L35.5141 67.1213L34.7871 61.1999Z" fill="#64FF00"/>
<path d="M34.7889 60.7673L0.455078 64.376L1.07867 70.3091L35.4125 66.7004L34.7889 60.7673Z" fill="#60FF00"/>
<path d="M34.7959 60.3349L0.404297 63.3438L0.924249 69.2868L35.3158 66.278L34.7959 60.3349Z" fill="#5BFF00"/>
<path d="M34.8138 59.9023L0.375 62.3105L0.791152 68.2618L35.23 65.8536L34.8138 59.9023Z" fill="#57FF00"/>
<path d="M34.8389 59.4706L0.363281 61.2773L0.675506 67.2349L35.1511 65.4282L34.8389 59.4706Z" fill="#53FF00"/>
<path d="M34.8691 59.0393L0.367188 60.2441L0.57539 66.2063L35.0773 65.0015L34.8691 59.0393Z" fill="#4FFF00"/>
<path d="M34.9103 58.6084L0.392578 59.2109L0.496695 65.1758L35.0144 64.5733L34.9103 58.6084Z" fill="#4AFF00"/>
<path d="M34.9565 58.1787H0.433594V64.1445H34.9565V58.1787Z" fill="#46FF00"/>
<path d="M35.0099 57.749L0.492188 57.1465L0.38807 63.1114L34.9058 63.7139L35.0099 57.749Z" fill="#42FF00"/>
<path d="M35.0722 57.321L0.570312 56.1162L0.36211 62.0784L34.864 63.2832L35.0722 57.321Z" fill="#3EFF00"/>
<path d="M35.1416 56.8947L0.666016 55.0879L0.353791 61.0455L34.8294 62.8523L35.1416 56.8947Z" fill="#3AFF00"/>
<path d="M35.2181 56.4678L0.779297 54.0596L0.363145 60.0108L34.802 62.419L35.2181 56.4678Z" fill="#35FF00"/>
<path d="M35.3017 56.044L0.910156 53.0352L0.390204 58.9782L34.7818 61.9871L35.3017 56.044Z" fill="#31FF00"/>
<path d="M35.3944 55.6213L1.06055 52.0127L0.436953 57.9458L34.7708 61.5544L35.3944 55.6213Z" fill="#2DFF00"/>
<path d="M35.4922 55.1995L1.22656 50.9922L0.499517 56.9135L34.7651 61.1208L35.4922 55.1995Z" fill="#29FF00"/>
<path d="M35.5991 54.7803L1.41211 49.9756L0.581833 55.8833L34.7688 60.688L35.5991 54.7803Z" fill="#24FF00"/>
<path d="M35.7112 54.3635L1.61328 48.9629L0.680027 54.8552L34.7779 60.2558L35.7112 54.3635Z" fill="#20FF00"/>
<path d="M35.8324 53.948L1.83398 47.9531L0.798037 53.8283L34.7965 59.8231L35.8324 53.948Z" fill="#1CFF00"/>
<path d="M35.9609 53.5346L2.07227 46.9473L0.933941 52.8034L34.8226 59.3907L35.9609 53.5346Z" fill="#18FF00"/>
<path d="M36.0967 53.124L2.32812 45.9463L1.08777 51.7817L34.8563 58.9594L36.0967 53.124Z" fill="#13FF00"/>
<path d="M36.2377 52.7152L2.59961 44.9492L1.2576 50.7621L34.8957 58.5281L36.2377 52.7152Z" fill="#0FFF00"/>
<path d="M36.3881 52.3099L2.89062 43.958L1.44737 49.7466L34.9448 58.0984L36.3881 52.3099Z" fill="#0BFF00"/>
<path d="M36.5439 51.9059L3.19727 42.9707L1.65321 48.7332L34.9998 57.6684L36.5439 51.9059Z" fill="#07FF00"/>
<path d="M36.7071 51.506L3.52148 41.9902L1.87709 47.7249L35.0627 57.2407L36.7071 51.506Z" fill="#02FF00"/>
<path d="M36.8777 51.1082L3.86328 41.0146L2.11906 46.7198L35.1335 56.8133L36.8777 51.1082Z" fill="#00FF02"/>
<path d="M37.0559 50.7131L4.22266 40.0449L2.37913 45.7187L35.2124 56.3869L37.0559 50.7131Z" fill="#00FF06"/>
<path d="M37.2397 50.3216L4.59766 39.082L2.65539 44.7228L35.2975 55.9624L37.2397 50.3216Z" fill="#00FF0A"/>
<path d="M37.4312 49.9345L4.99023 38.127L2.94982 43.733L35.3908 55.5405L37.4312 49.9345Z" fill="#00FF0F"/>
<path d="M37.6284 49.5496L5.39844 37.1777L3.26049 42.7473L35.4904 55.1192L37.6284 49.5496Z" fill="#00FF13"/>
<path d="M37.8333 49.1679L5.82422 36.2354L3.5894 41.7667L35.5985 54.6992L37.8333 49.1679Z" fill="#00FF17"/>
<path d="M38.0442 48.7909L6.26562 35.3018L3.93461 40.7933L35.7131 54.2825L38.0442 48.7909Z" fill="#00FF1B"/>
<path d="M38.2629 48.4167L6.72461 34.375L4.29811 39.825L35.8364 53.8668L38.2629 48.4167Z" fill="#00FF1F"/>
<path d="M38.4857 48.0471L7.19727 33.457L4.67602 38.8639L35.9644 53.4539L38.4857 48.0471Z" fill="#00FF24"/>
<path d="M38.7165 47.6807L7.6875 32.5469L5.07227 37.9089L36.1013 53.0427L38.7165 47.6807Z" fill="#00FF28"/>
<path d="M38.9535 47.3186L8.19336 31.6455L5.48495 36.9611L36.2451 52.6341L38.9535 47.3186Z" fill="#00FF2C"/>
<path d="M39.1968 46.9614L8.71484 30.7539L5.91408 36.0214L36.396 52.2289L39.1968 46.9614Z" fill="#00FF30"/>
<path d="M39.4464 46.6081L9.25195 29.8711L6.35969 35.0889L36.5541 51.8259L39.4464 46.6081Z" fill="#00FF35"/>
<path d="M39.7024 46.2585L9.80469 28.9971L6.8218 34.1636L36.7195 51.4251L39.7024 46.2585Z" fill="#00FF39"/>
<path d="M39.963 45.9144L10.3711 28.1338L7.29849 33.2475L36.8904 51.0281L39.963 45.9144Z" fill="#00FF3D"/>
<path d="M40.2302 45.5737L10.9531 27.2793L7.79174 32.3386L37.0689 50.6329L40.2302 45.5737Z" fill="#00FF41"/>
<path d="M40.5042 45.2391L11.5508 26.4365L8.30158 31.4398L37.255 50.2424L40.5042 45.2391Z" fill="#00FF46"/>
<path d="M40.7849 44.9085L12.1641 25.6035L8.82804 30.5494L37.4489 49.8544L40.7849 44.9085Z" fill="#00FF4A"/>
<path d="M41.0686 44.5828L12.7891 24.7812L9.36723 29.6681L37.6468 49.4697L41.0686 44.5828Z" fill="#00FF4E"/>
<path d="M41.3593 44.2628L13.4297 23.9707L9.92309 28.7971L37.8527 49.0892L41.3593 44.2628Z" fill="#00FF52"/>
<path d="M41.6552 43.9473L14.084 23.1709L10.4937 27.9354L38.0649 48.7118L41.6552 43.9473Z" fill="#00FF57"/>
<path d="M41.9584 43.6373L14.7539 22.3828L11.081 27.0839L38.2855 48.3384L41.9584 43.6373Z" fill="#00FF5B"/>
<path d="M42.2649 43.3324L15.4355 21.6064L11.6812 26.2427L38.5105 47.9687L42.2649 43.3324Z" fill="#00FF5F"/>
<path d="M42.577 43.0337L16.1309 20.8428L12.2961 25.4128L38.7422 47.6037L42.577 43.0337Z" fill="#00FF63"/>
<path d="M42.8946 42.7399L16.8398 20.0908L12.9259 24.5933L38.9807 47.2423L42.8946 42.7399Z" fill="#00FF68"/>
<path d="M43.2161 42.4509L17.5605 19.3506L13.5687 23.784L39.2242 46.8844L43.2161 42.4509Z" fill="#00FF6C"/>
<path d="M43.5434 42.1686L18.2949 18.624L14.2263 22.9871L39.4748 46.5317L43.5434 42.1686Z" fill="#00FF70"/>
<path d="M43.8767 41.8918L19.043 17.9102L14.8988 22.2016L39.7325 46.1832L43.8767 41.8918Z" fill="#00FF74"/>
<path d="M44.2141 41.6204L19.8027 17.209L15.5843 21.4274L39.9957 45.8388L44.2141 41.6204Z" fill="#00FF78"/>
<path d="M44.5559 41.3562L20.5742 16.5225L16.2828 20.6666L40.2644 45.5004L44.5559 41.3562Z" fill="#00FF7D"/>
<path d="M44.902 41.0971L21.3574 15.8486L16.9943 19.9173L40.5389 45.1658L44.902 41.0971Z" fill="#00FF81"/>
<path d="M45.2527 40.844L22.1523 15.1885L17.7189 19.1804L40.8193 44.8359L45.2527 40.844Z" fill="#00FF85"/>
<path d="M45.6081 40.5968L22.959 14.542L18.4566 18.4559L41.1056 44.5107L45.6081 40.5968Z" fill="#00FF89"/>
<path d="M45.9683 40.3563L23.7773 13.9102L19.2073 17.7449L41.3982 44.191L45.9683 40.3563Z" fill="#00FF8E"/>
<path d="M46.3315 40.1223L24.6055 13.293L19.9692 17.0474L41.6952 43.8767L46.3315 40.1223Z" fill="#00FF92"/>
<path d="M46.6998 39.8939L25.4453 12.6895L20.7442 16.3624L41.9987 43.5668L46.6998 39.8939Z" fill="#00FF96"/>
<path d="M47.0694 39.6728L26.293 12.1016L21.5285 15.6919L42.3049 43.2631L47.0694 39.6728Z" fill="#00FF9A"/>
<path d="M47.4464 39.458L27.1543 11.5283L22.3279 15.0349L42.62 42.9646L47.4464 39.458Z" fill="#00FF9F"/>
<path d="M47.825 39.2493L28.0234 10.9697L23.1366 14.3916L42.9381 42.6711L47.825 39.2493Z" fill="#00FFA3"/>
<path d="M48.2073 39.0476L28.9023 10.4268L23.9565 13.7628L43.2615 42.3836L48.2073 39.0476Z" fill="#00FFA7"/>
<path d="M48.5936 38.8528L29.791 9.89941L24.7877 13.1486L43.5902 42.102L48.5936 38.8528Z" fill="#00FFAB"/>
<path d="M48.9838 38.6648L30.6895 9.3877L25.6302 12.5491L43.9246 41.8262L48.9838 38.6648Z" fill="#00FFB0"/>
<path d="M49.3763 38.4835L31.5957 8.8916L26.482 11.9642L44.2627 41.5561L49.3763 38.4835Z" fill="#00FFB4"/>
<path d="M49.7712 38.3089L32.5098 8.41113L27.3432 11.394L44.6047 41.2918L49.7712 38.3089Z" fill="#00FFB8"/>
<path d="M50.1706 38.1417L33.4336 7.94727L28.2158 10.8395L44.9529 41.034L50.1706 38.1417Z" fill="#00FFBC"/>
<path d="M50.5728 37.981L34.3652 7.49902L29.0978 10.2998L45.3053 40.7817L50.5728 37.981Z" fill="#00FFC1"/>
<path d="M50.9778 37.8266L35.3047 7.06641L29.9891 9.77481L45.6622 40.535L50.9778 37.8266Z" fill="#00FFC5"/>
<path d="M51.3839 37.6804L36.25 6.65137L30.888 9.26659L46.0219 40.2956L51.3839 37.6804Z" fill="#00FFC9"/>
<path d="M51.7931 37.5413L37.2031 6.25293L31.7963 8.77418L46.3863 40.0626L51.7931 37.5413Z" fill="#00FFCD"/>
<path d="M52.2058 37.4094L38.1641 5.87109L32.7141 8.2976L46.7558 39.8359L52.2058 37.4094Z" fill="#00FFD1"/>
<path d="M52.62 37.2834L39.1309 5.50488L33.6393 7.8359L47.1285 39.6144L52.62 37.2834Z" fill="#00FFD6"/>
<path d="M53.036 37.1663L40.1035 5.15723L34.5721 7.39205L47.5047 39.4012L53.036 37.1663Z" fill="#00FFDA"/>
<path d="M53.4539 37.0561L41.082 4.82617L35.5125 6.96412L47.8844 39.1941L53.4539 37.0561Z" fill="#00FFDE"/>
<path d="M53.8739 36.9527L42.0664 4.51172L36.4604 6.55214L48.2679 38.9931L53.8739 36.9527Z" fill="#00FFE2"/>
<path d="M54.2962 36.8569L43.0566 4.21484L37.4159 6.15711L48.6555 38.7992L54.2962 36.8569Z" fill="#00FFE7"/>
<path d="M54.719 36.7688L44.0508 3.93555L38.377 5.77907L49.0452 38.6123L54.719 36.7688Z" fill="#00FFEB"/>
<path d="M55.1443 36.6883L45.0508 3.67383L39.3457 5.41805L49.4392 38.4325L55.1443 36.6883Z" fill="#00FFEF"/>
<path d="M55.5705 36.6143L46.0547 3.42871L40.32 5.0731L49.8358 38.2587L55.5705 36.6143Z" fill="#00FFF3"/>
<path d="M55.9977 36.5478L47.0625 3.20117L41.3 4.74523L50.2352 38.0918L55.9977 36.5478Z" fill="#00FFF8"/>
<path d="M56.4261 36.4896L48.0742 2.99219L42.2856 4.43544L50.6375 37.9329L56.4261 36.4896Z" fill="#00FFFC"/>
<path d="M56.8558 36.4379L49.0898 2.7998L43.277 4.14181L51.0429 37.7799L56.8558 36.4379Z" fill="#00FEFF"/>
<path d="M57.2871 36.3945L50.1094 2.62598L44.274 3.86633L51.4517 37.6349L57.2871 36.3945Z" fill="#00FAFF"/>
<path d="M57.7181 36.3584L51.1309 2.46973L45.2747 3.60805L51.862 37.4967L57.7181 36.3584Z" fill="#00F5FF"/>
<path d="M58.1491 36.3305L52.1543 2.33203L46.2792 3.36798L52.274 37.3664L58.1491 36.3305Z" fill="#00F1FF"/>
<path d="M58.5822 36.3088L53.1816 2.21094L47.2893 3.14419L52.6899 37.2421L58.5822 36.3088Z" fill="#00EDFF"/>
<path d="M59.0136 36.2954L54.209 2.1084L48.3013 2.93867L53.1059 37.1256L59.0136 36.2954Z" fill="#00E9FF"/>
<path d="M59.4456 36.2891L55.2383 2.02344L49.317 2.75048L53.5243 37.0161L59.4456 36.2891Z" fill="#00E4FF"/>
<path d="M59.8801 36.2908L56.2715 1.95703L50.3384 2.58062L53.947 36.9144L59.8801 36.2908Z" fill="#00E0FF"/>
<path d="M60.3116 36.2998L57.3027 1.9082L51.3597 2.42816L54.3685 36.8197L60.3116 36.2998Z" fill="#00DCFF"/>
<path d="M60.7441 36.3168L58.3359 1.87793L52.3847 2.29408L54.7929 36.7329L60.7441 36.3168Z" fill="#00D8FF"/>
<path d="M61.1759 36.3409L59.3691 1.86523L53.4115 2.17746L55.2183 36.6531L61.1759 36.3409Z" fill="#00D4FF"/>
<path d="M61.6072 36.373L60.4023 1.87109L54.4402 2.0793L55.645 36.5812L61.6072 36.373Z" fill="#00CFFF"/>
<path d="M62.0381 36.4122L61.4355 1.89453L55.4707 1.99865L56.0732 36.5163L62.0381 36.4122Z" fill="#00CBFF"/>
<path d="M62.4668 36.4585V1.93555H56.501V36.4585H62.4668Z" fill="#00C7FF"/>
<path d="M62.8975 36.5128L63.5 1.99512L57.5351 1.891L56.9326 36.4087L62.8975 36.5128Z" fill="#00C3FF"/>
<path d="M63.3245 36.5752L64.5293 2.07324L58.5671 1.86504L57.3623 36.367L63.3245 36.5752Z" fill="#00BEFF"/>
<path d="M63.7518 36.6446L65.5586 2.16895L59.601 1.85672L57.7942 36.3323L63.7518 36.6446Z" fill="#00BAFF"/>
<path d="M64.1777 36.7211L66.5859 2.28223L60.6347 1.86607L58.2265 36.3049L64.1777 36.7211Z" fill="#00B6FF"/>
<path d="M64.6025 36.8047L67.6113 2.41309L61.6682 1.89313L58.6594 36.2847L64.6025 36.8047Z" fill="#00B2FF"/>
<path d="M65.0242 36.8963L68.6328 2.5625L62.6997 1.93891L59.0911 36.2727L65.0242 36.8963Z" fill="#00ADFF"/>
<path d="M65.447 36.9951L69.6543 2.72949L63.733 2.00245L59.5257 36.2681L65.447 36.9951Z" fill="#00A9FF"/>
<path d="M65.8653 37.102L70.6699 2.91504L64.7622 2.08476L59.9575 36.2717L65.8653 37.102Z" fill="#00A5FF"/>
<path d="M66.283 37.2151L71.6836 3.11719L65.7913 2.18393L60.3907 36.2818L66.283 37.2151Z" fill="#00A1FF"/>
<path d="M66.6985 37.3354L72.6934 3.33691L66.8182 2.30097L60.8234 36.2994L66.6985 37.3354Z" fill="#009CFF"/>
<path d="M67.1119 37.4638L73.6992 3.5752L67.843 2.43687L61.2558 36.3255L67.1119 37.4638Z" fill="#0098FF"/>
<path d="M67.5234 37.5986L74.7012 3.83008L68.8658 2.58972L61.688 36.3583L67.5234 37.5986Z" fill="#0094FF"/>
<path d="M67.9313 37.7416L75.6973 4.10352L69.8844 2.76151L62.1184 36.3996L67.9313 37.7416Z" fill="#0090FF"/>
<path d="M68.3376 37.891L76.6895 4.39355L70.9009 2.9503L62.549 36.4478L68.3376 37.891Z" fill="#008BFF"/>
<path d="M68.7406 38.0468L77.6758 4.7002L71.9133 3.15614L62.9781 36.5027L68.7406 38.0468Z" fill="#0087FF"/>
<path d="M69.1404 38.211L78.6562 5.02539L72.9216 3.381L63.4058 36.5666L69.1404 38.211Z" fill="#0083FF"/>
<path d="M69.5373 38.3816L79.6309 5.36719L73.9258 3.62296L63.8322 36.6374L69.5373 38.3816Z" fill="#007FFF"/>
<path d="M69.9334 38.5589L80.6016 5.72559L74.9278 3.88206L64.2596 36.7153L69.9334 38.5589Z" fill="#007BFF"/>
<path d="M70.3229 38.7427L81.5625 6.10059L75.9217 4.15832L64.6822 36.8004L70.3229 38.7427Z" fill="#0076FF"/>
<path d="M70.712 38.9341L82.5195 6.49316L76.9135 4.45275L65.106 36.8937L70.712 38.9341Z" fill="#0072FF"/>
<path d="M71.0968 39.1323L83.4688 6.90234L77.8992 4.7644L65.5273 36.9943L71.0968 39.1323Z" fill="#006EFF"/>
<path d="M71.4776 39.3363L84.4102 7.32715L78.8788 5.09233L65.9463 37.1014L71.4776 39.3363Z" fill="#006AFF"/>
<path d="M71.8565 39.5471L85.3457 7.76855L79.8542 5.43754L66.365 37.2161L71.8565 39.5471Z" fill="#0065FF"/>
<path d="M72.2297 39.7648L86.2715 8.22656L80.8215 5.80006L66.7797 37.3383L72.2297 39.7648Z" fill="#0061FF"/>
<path d="M72.5994 39.9896L87.1895 8.70117L81.7826 6.17992L67.1926 37.4683L72.5994 39.9896Z" fill="#005DFF"/>
<path d="M72.9657 40.2194L88.0996 9.19043L82.7376 6.5752L67.6037 37.6042L72.9657 40.2194Z" fill="#0059FF"/>
<path d="M73.3269 40.4565L89 9.69629L83.6845 6.98788L68.0114 37.748L73.3269 40.4565Z" fill="#0054FF"/>
<path d="M73.685 40.6997L89.8926 10.2178L84.6251 7.41701L68.4176 37.899L73.685 40.6997Z" fill="#0050FF"/>
<path d="M74.0383 40.9493L90.7754 10.7549L85.5576 7.86262L68.8205 38.0571L74.0383 40.9493Z" fill="#004CFF"/>
<path d="M74.3889 41.2044L91.6504 11.3066L86.4839 8.32375L69.2224 38.2215L74.3889 41.2044Z" fill="#0048FF"/>
<path d="M74.733 41.466L92.5137 11.874L87.4 8.80142L69.6194 38.3934L74.733 41.466Z" fill="#0043FF"/>
<path d="M75.0728 41.7341L93.3672 12.457L88.3079 9.29565L70.0135 38.5728L75.0728 41.7341Z" fill="#003FFF"/>
<path d="M75.4064 42.0071L94.209 13.0537L89.2057 9.80451L70.4031 38.7579L75.4064 42.0071Z" fill="#003BFF"/>
<path d="M75.738 42.2868L95.043 13.666L90.0971 10.33L70.7921 38.9508L75.738 42.2868Z" fill="#0037FF"/>
<path d="M76.0617 42.5715L95.8633 14.292L90.9764 10.8702L71.1749 39.1497L76.0617 42.5715Z" fill="#0032FF"/>
<path d="M76.3837 42.8623L96.6758 14.9326L91.8494 11.426L71.5573 39.3557L76.3837 42.8623Z" fill="#002EFF"/>
<path d="M76.6982 43.1582L97.4746 15.5869L92.7101 11.9966L71.9337 39.5679L76.6982 43.1582Z" fill="#002AFF"/>
<path d="M77.0092 43.4603L98.2637 16.2559L93.5626 12.583L72.3081 39.7874L77.0092 43.4603Z" fill="#0026FF"/>
<path d="M77.3131 43.7669L99.0391 16.9375L94.4028 13.1831L72.6768 40.0125L77.3131 43.7669Z" fill="#0022FF"/>
<path d="M61.3184 118.233H57.9295C57.7723 118.176 57.6146 118.161 57.4559 118.161C55.6466 118.076 53.8504 117.93 52.0699 117.688C48.7393 117.257 45.4644 116.524 42.2767 115.506C36.8057 113.755 31.7081 111.243 26.9836 107.969C22.6027 104.925 18.7271 101.336 15.3519 97.2022C11.3728 92.3495 8.27227 86.994 6.07425 81.1093C4.10628 75.8836 2.92911 70.4724 2.56929 64.8872C2.56929 64.5857 2.51214 64.2841 2.41211 63.9826V58.0822C2.51214 57.8221 2.555 57.5506 2.56929 57.2782C2.64074 55.9427 2.78364 54.6072 2.95797 53.2874C3.82021 46.9137 5.71444 40.8683 8.63009 35.1399C10.6403 31.1914 13.0819 27.5179 15.9526 24.1278C18.7963 20.7692 21.9843 17.7675 25.5158 15.1411C31.2745 10.8622 37.6077 7.77592 44.5284 5.88198C47.8882 4.9643 51.3214 4.36128 54.7952 4.0732C55.4119 4.01604 56.0596 4.0732 56.6763 3.91602H62.4776C62.9223 4.04462 63.3824 3.97317 63.8268 4.01604C66.1257 4.2161 68.4086 4.50503 70.6761 4.94944C77.8135 6.35639 84.4324 9.02741 90.5509 12.9733C95.3048 16.031 99.4976 19.7203 103.159 24.0126C106.103 27.4584 108.601 31.2057 110.64 35.2525C113.053 40.0341 114.775 45.0432 115.754 50.3115C116.27 53.0962 116.659 55.9102 116.672 58.7529C116.672 58.9415 116.715 59.1416 116.729 59.3268V62.7151C116.672 62.9295 116.672 63.1595 116.657 63.3893C116.657 63.9343 116.657 64.4816 116.615 65.0263C116.354 68.5013 115.81 71.9317 114.948 75.3194C113.297 81.6797 110.639 87.5802 106.949 93.0202C104.205 97.0691 101.004 100.716 97.3271 103.945C93.6658 107.161 89.6581 109.875 85.3066 112.07C80.2939 114.596 75.0241 116.349 69.4952 117.309C67.3706 117.682 65.2306 117.926 63.0772 118.055C62.5099 118.121 61.908 118.107 61.3184 118.233Z" fill="#383838"/>
<path style="mix-blend-mode:lighten" d="M44.7046 37.3577C44.6646 38.4079 44.8512 39.5561 45.1606 40.7044C45.7501 42.8894 46.7271 44.8915 47.8792 46.7826C50.5037 51.0832 53.8118 54.7651 57.4011 58.1835C57.695 58.4645 58.045 58.7018 58.4197 58.8827C58.7949 59.0779 59.1696 59.0779 59.5574 58.9105C59.9321 58.7432 60.2673 58.5051 60.5488 58.1959C61.7944 56.9081 63.0257 55.6184 64.2047 54.2874C65.865 52.3962 67.4462 50.4507 68.8791 48.3636C70.1792 46.4728 71.3435 44.4835 72.1998 42.3267C73.0561 40.183 73.4723 37.9718 73.1912 35.6468C72.7224 31.8104 71.1562 28.5599 68.3565 26.011C65.0463 23.0022 61.1905 21.7975 56.8513 22.4686C49.7937 23.5623 44.6774 30.0614 44.7046 37.3577Z" fill="url(#paint0_radial_2031_1175)"/>
<path d="M81.23 89.6495C80.3417 89.6764 79.3442 89.5665 78.3471 89.3548C75.397 88.709 72.8913 87.3676 70.9656 84.9895C69.7945 83.5393 68.81 81.9678 67.9613 80.3149C66.9637 78.3673 66.13 76.3382 65.4031 74.2842C64.5148 71.7997 63.7605 69.2609 63.1799 66.6948C62.8574 65.2572 63.2199 64.3565 64.8099 63.8613C66.8296 63.2302 68.8644 62.6659 70.9385 62.2084C74.3725 61.4559 77.8338 60.9732 81.3643 61.0922C82.3617 61.1322 83.3569 61.2393 84.3415 61.4139C87.1972 61.9115 89.6212 63.228 91.601 65.3093C94.9827 68.8554 96.3278 73.0867 95.4939 77.9098C94.2954 84.8015 88.1796 89.7037 81.23 89.6495Z" fill="url(#paint1_radial_2031_1175)"/>
<path d="M36.7484 89.6495C37.6367 89.6764 38.6341 89.5665 39.6313 89.3548C42.5814 88.709 45.0871 87.3676 47.0128 84.9895C48.1839 83.5393 49.1684 81.9678 50.017 80.3149C51.0147 78.3673 51.8483 76.3382 52.5753 74.2842C53.4636 71.7997 54.2179 69.2609 54.7985 66.6948C55.1209 65.2572 54.7585 64.3565 53.1685 63.8613C51.1487 63.2302 49.114 62.6659 47.0398 62.2084C43.6059 61.4559 40.1446 60.9732 36.6141 61.0922C35.6167 61.1322 34.6214 61.2393 33.6369 61.4139C30.7811 61.9115 28.3572 63.228 26.3774 65.3093C22.9957 68.8554 21.6506 73.0867 22.4845 77.9098C23.6829 84.8015 29.7987 89.7037 36.7484 89.6495Z" fill="url(#paint2_radial_2031_1175)"/>
</g>
<defs>
<radialGradient id="paint0_radial_2031_1175" cx="0" cy="0" r="1" gradientUnits="userSpaceOnUse" gradientTransform="translate(59.2654 57.128) rotate(4.82254) scale(15.1788 28.0581)">
<stop stop-color="white"/>
<stop offset="1" stop-color="#009BD8"/>
</radialGradient>
<radialGradient id="paint1_radial_2031_1175" cx="0" cy="0" r="1" gradientUnits="userSpaceOnUse" gradientTransform="translate(63.231 65.8165) rotate(21.7759) scale(33.4724 17.8869)">
<stop stop-color="white"/>
<stop offset="1" stop-color="#FF3044"/>
</radialGradient>
<radialGradient id="paint2_radial_2031_1175" cx="0" cy="0" r="1" gradientUnits="userSpaceOnUse" gradientTransform="translate(54.5698 64.6037) rotate(146.321) scale(33.8263 15.3758)">
<stop stop-color="white"/>
<stop offset="1" stop-color="#FCFF7C"/>
</radialGradient>
<clipPath id="clip0_2031_1175">
<rect width="120" height="120" fill="white"/>
</clipPath>
</defs>
</svg>
