<svg width="240" height="240" viewBox="0 0 240 240" fill="none" xmlns="http://www.w3.org/2000/svg">
<path d="M80 240C102.08 240 120 222.08 120 200V160H80C57.92 160 40 177.92 40 200C40 222.08 57.92 240 80 240Z" fill="#0ACF83"/>
<path d="M40 120C40 97.92 57.92 80 80 80H120V160H80C57.92 160 40 142.08 40 120Z" fill="#A259FF"/>
<path d="M40 40C40 17.92 57.92 0 80 0H120V80H80C57.92 80 40 62.08 40 40Z" fill="#F24E1E"/>
<path d="M120 0H160C182.08 0 200 17.92 200 40C200 62.08 182.08 80 160 80H120V0Z" fill="#FF7262"/>
<path d="M200 120C200 142.08 182.08 160 160 160C137.92 160 120 142.08 120 120C120 97.92 137.92 80 160 80C182.08 80 200 97.92 200 120Z" fill="#1ABCFE"/>
</svg>
