<svg width="42" height="42" viewBox="0 0 42 42" fill="none" xmlns="http://www.w3.org/2000/svg">
<path d="M14 42C17.864 42 21 38.864 21 35V28H14C10.136 28 7 31.136 7 35C7 38.864 10.136 42 14 42Z" fill="#0ACF83"/>
<path d="M7 21C7 17.136 10.136 14 14 14H21V28H14C10.136 28 7 24.864 7 21Z" fill="#A259FF"/>
<path d="M7 7C7 3.136 10.136 0 14 0H21V14H14C10.136 14 7 10.864 7 7Z" fill="#F24E1E"/>
<path d="M21 0H28C31.864 0 35 3.136 35 7C35 10.864 31.864 14 28 14H21V0Z" fill="#FF7262"/>
<path d="M35 21C35 24.864 31.864 28 28 28C24.136 28 21 24.864 21 21C21 17.136 24.136 14 28 14C31.864 14 35 17.136 35 21Z" fill="#1ABCFE"/>
</svg>
