<svg width="42" height="42" viewBox="0 0 42 42" fill="none" xmlns="http://www.w3.org/2000/svg">
<path d="M38.4883 0H3.402C1.52313 0 0 1.52313 0 3.402V38.598C0 40.4769 1.52313 42 3.402 42H38.4883C40.3672 42 41.8903 40.4769 41.8903 38.598V3.402C41.8903 1.52313 40.3672 0 38.4883 0Z" fill="url(#paint0_linear_287_416)"/>
<path d="M31.9204 8.26507C33.0694 8.4353 33.8625 9.50617 33.693 10.6564C33.5234 11.8071 32.4545 12.6027 31.3051 12.4324C29.2698 12.1309 26.2207 15.3004 22.807 21.8175C18.449 30.1374 14.3927 34.1015 10.1221 33.7852C8.96366 33.6994 8.09465 32.6892 8.18012 31.5295C8.2656 30.3696 9.27362 29.4981 10.4323 29.584C12.5411 29.7402 15.6387 26.4357 19.0829 19.8602C23.4688 11.4871 27.5802 7.62207 31.9204 8.26507Z" fill="white"/>
<defs>
<linearGradient id="paint0_linear_287_416" x1="10.9285" y1="432.781" x2="4002.3" y2="3033.84" gradientUnits="userSpaceOnUse">
<stop stop-color="#2BEAED"/>
<stop offset="1" stop-color="#0FCCCE"/>
</linearGradient>
</defs>
</svg>
