<svg width="120" height="120" viewBox="0 0 120 120" fill="none" xmlns="http://www.w3.org/2000/svg">
<g clip-path="url(#clip0_2018_7472)">
<path d="M109.967 0H9.72C4.3518 0 0 4.3518 0 9.72V110.28C0 115.648 4.3518 120 9.72 120H109.967C115.335 120 119.687 115.648 119.687 110.28V9.72C119.687 4.3518 115.335 0 109.967 0Z" fill="url(#paint0_linear_2018_7472)"/>
<path d="M91.2014 23.6145C94.4843 24.1009 96.7503 27.1605 96.266 30.4469C95.7814 33.7346 92.7274 36.0077 89.4434 35.5212C83.6283 34.6597 74.9166 43.7154 65.1631 62.3357C52.7117 86.1069 41.1223 97.4329 28.9206 96.5292C25.6107 96.284 23.1278 93.3977 23.372 90.0843C23.6163 86.7703 26.4963 84.2803 29.8068 84.5257C35.832 84.972 44.6823 75.5306 54.5228 56.7434C67.054 32.8203 78.8008 21.7774 91.2014 23.6145Z" fill="white"/>
</g>
<defs>
<linearGradient id="paint0_linear_2018_7472" x1="31.2243" y1="1236.52" x2="11435.1" y2="8668.12" gradientUnits="userSpaceOnUse">
<stop stop-color="#2BEAED"/>
<stop offset="1" stop-color="#0FCCCE"/>
</linearGradient>
<clipPath id="clip0_2018_7472">
<rect width="120" height="120" fill="white"/>
</clipPath>
</defs>
</svg>
