<svg width="240" height="240" viewBox="0 0 240 240" fill="none" xmlns="http://www.w3.org/2000/svg">
<g clip-path="url(#clip0_2018_7472)">
<path d="M219.933 0H19.44C8.7036 0 0 8.7036 0 19.44V220.56C0 231.297 8.7036 240 19.44 240H219.933C230.67 240 239.373 231.297 239.373 220.56V19.44C239.373 8.7036 230.67 0 219.933 0Z" fill="url(#paint0_linear_2018_7472)"/>
<path d="M182.403 47.229C188.969 48.2017 193.501 54.321 192.532 60.8937C191.563 67.4692 185.455 72.0155 178.887 71.0423C167.257 69.3195 149.833 87.4309 130.326 124.671C105.423 172.214 82.2445 194.866 57.8411 193.058C51.2215 192.568 46.2557 186.795 46.7441 180.169C47.2325 173.541 52.9927 168.561 59.6137 169.051C71.664 169.944 89.3645 151.061 109.046 113.487C134.108 65.6406 157.602 43.5547 182.403 47.229Z" fill="white"/>
</g>
<defs>
<linearGradient id="paint0_linear_2018_7472" x1="62.4485" y1="2473.03" x2="22870.3" y2="17336.2" gradientUnits="userSpaceOnUse">
<stop stop-color="#2BEAED"/>
<stop offset="1" stop-color="#0FCCCE"/>
</linearGradient>
<clipPath id="clip0_2018_7472">
<rect width="240" height="240" fill="white"/>
</clipPath>
</defs>
</svg>
