<svg width="240" height="240" viewBox="0 0 240 240" fill="none" xmlns="http://www.w3.org/2000/svg">
<g clip-path="url(#clip0_2023_1183)">
<path d="M69.6019 188.56C62.8246 188.56 57.2988 193.837 57.2988 200.386C57.2988 204.837 59.8639 208.651 63.6805 210.686L111.246 236.178C115.019 238.305 119.277 239.422 123.609 239.42C126.505 239.42 129.269 238.912 131.834 238.021L148.083 233.508V188.498C148.15 188.56 69.6666 188.56 69.6019 188.56Z" fill="url(#paint0_linear_2023_1183)"/>
<path d="M69.6019 188.56C62.8246 188.56 57.2988 193.837 57.2988 200.386C57.2988 204.837 59.8639 208.651 63.6805 210.686L111.246 236.178C115.019 238.305 119.277 239.422 123.609 239.42C126.505 239.42 129.269 238.912 131.834 238.021L148.083 233.508V188.498C148.15 188.56 69.6666 188.56 69.6019 188.56Z" fill="url(#paint1_linear_2023_1183)"/>
<path d="M130.789 1.52634C128.543 0.884837 126.217 0.564032 123.88 0.573443C119.999 0.573443 116.118 1.33726 112.63 3.11617C111.908 3.43463 35.263 45.0736 35.263 45.0736C34.2106 45.5836 33.2229 46.2181 32.3023 46.855C32.173 46.9172 32.1058 46.9819 31.9739 47.0466C31.3818 47.4894 30.8543 47.9348 30.2647 48.3801C30.001 48.5717 29.7372 48.828 29.5407 49.0171C29.2123 49.333 28.8814 49.6515 28.6201 49.97C27.6996 50.9229 26.1197 52.9555 26.1197 52.9555C23.4092 56.8089 21.961 61.4083 21.9747 66.1195V176.735C21.9747 183.286 27.5005 188.563 34.2778 188.563C35.9871 188.563 37.5669 188.245 39.0149 187.608L60.9217 175.72C64.8676 173.815 68.0274 170.57 69.6719 166.565C70.065 165.739 70.3934 164.723 70.5925 163.703C70.6572 163.45 70.7243 163.131 70.7243 162.877C70.7243 162.753 70.789 162.561 70.789 162.434C70.8562 161.987 70.9209 161.479 70.9209 161.036C70.9209 160.653 70.9881 160.335 70.9881 159.954V101.083V82.7094C70.9881 77.5593 73.2895 72.9192 76.9095 69.6773C78.6187 68.1522 80.8554 66.8161 83.4877 65.9279C86.1175 64.9725 148.355 43.2325 148.355 43.2325V6.54959L130.789 1.52634Z" fill="url(#paint2_linear_2023_1183)"/>
<path d="M130.789 1.52634C128.543 0.884837 126.217 0.564032 123.88 0.573443C119.999 0.573443 116.118 1.33726 112.63 3.11617C111.908 3.43463 35.263 45.0736 35.263 45.0736C34.2106 45.5836 33.2229 46.2181 32.3023 46.855C32.173 46.9172 32.1058 46.9819 31.9739 47.0466C31.3818 47.4894 30.8543 47.9348 30.2647 48.3801C30.001 48.5717 29.7372 48.828 29.5407 49.0171C29.2123 49.333 28.8814 49.6515 28.6201 49.97C27.6996 50.9229 26.1197 52.9555 26.1197 52.9555C23.4092 56.8089 21.961 61.4083 21.9747 66.1195V176.735C21.9747 183.286 27.5005 188.563 34.2778 188.563C35.9871 188.563 37.5669 188.245 39.0149 187.608L60.9217 175.72C64.8676 173.815 68.0274 170.57 69.6719 166.565C70.065 165.739 70.3934 164.723 70.5925 163.703C70.6572 163.45 70.7243 163.131 70.7243 162.877C70.7243 162.753 70.789 162.561 70.789 162.434C70.8562 161.987 70.9209 161.479 70.9209 161.036C70.9209 160.653 70.9881 160.335 70.9881 159.954V101.083V82.7094C70.9881 77.5593 73.2895 72.9192 76.9095 69.6773C78.6187 68.1522 80.8554 66.8161 83.4877 65.9279C86.1175 64.9725 148.355 43.2325 148.355 43.2325V6.54959L130.789 1.52634Z" fill="url(#paint3_linear_2023_1183)"/>
<path d="M200.856 21.3482L131.844 1.83496C141.843 5.58685 148.09 14.041 148.09 24.3413C148.09 24.3413 148.028 211.438 148.09 215.951C148.157 226.122 141.447 234.833 131.844 238.074C133.949 237.502 200.856 218.875 200.856 218.875C210.788 215.824 217.96 206.922 217.96 196.309V43.9143C218.025 33.3652 210.788 24.3985 200.856 21.3482Z" fill="url(#paint4_linear_2023_1183)"/>
</g>
<defs>
<linearGradient id="paint0_linear_2023_1183" x1="64.1259" y1="207.972" x2="235.123" y2="223.454" gradientUnits="userSpaceOnUse">
<stop stop-color="#F32B44"/>
<stop offset="0.6" stop-color="#A4070A"/>
</linearGradient>
<linearGradient id="paint1_linear_2023_1183" x1="179.999" y1="217.769" x2="104.085" y2="210.895" gradientUnits="userSpaceOnUse">
<stop stop-opacity="0.4"/>
<stop offset="1" stop-opacity="0"/>
</linearGradient>
<linearGradient id="paint2_linear_2023_1183" x1="133.282" y1="-7.66677" x2="7.29309" y2="178.532" gradientUnits="userSpaceOnUse">
<stop stop-color="#800600"/>
<stop offset="0.6" stop-color="#C72127"/>
<stop offset="0.728" stop-color="#C13959"/>
<stop offset="0.847" stop-color="#BC4B81"/>
<stop offset="0.942" stop-color="#B95799"/>
<stop offset="1" stop-color="#B85BA2"/>
</linearGradient>
<linearGradient id="paint3_linear_2023_1183" x1="135.982" y1="-11.3938" x2="109.301" y2="28.0383" gradientUnits="userSpaceOnUse">
<stop stop-opacity="0.4"/>
<stop offset="1" stop-opacity="0"/>
</linearGradient>
<linearGradient id="paint4_linear_2023_1183" x1="174.951" y1="-11.5852" x2="174.951" y2="221.46" gradientUnits="userSpaceOnUse">
<stop stop-color="#FFB900"/>
<stop offset="0.166" stop-color="#EF8400"/>
<stop offset="0.313" stop-color="#E25C01"/>
<stop offset="0.429" stop-color="#DB4401"/>
<stop offset="0.5" stop-color="#D83B01"/>
</linearGradient>
<clipPath id="clip0_2023_1183">
<rect width="240" height="240" fill="white"/>
</clipPath>
</defs>
</svg>
