<svg width="120" height="120" viewBox="0 0 120 120" fill="none" xmlns="http://www.w3.org/2000/svg">
<g clip-path="url(#clip0_2023_1183)">
<path d="M34.8 94.2811C31.4113 94.2811 28.6484 96.9196 28.6484 100.194C28.6484 102.419 29.931 104.326 31.8393 105.344L55.622 118.09C57.5085 119.153 59.6377 119.712 61.8034 119.711C63.2514 119.711 64.6334 119.457 65.916 119.012L74.0405 116.755V94.25C74.0741 94.2811 34.8323 94.2811 34.8 94.2811Z" fill="url(#paint0_linear_2023_1183)"/>
<path d="M34.8 94.2811C31.4113 94.2811 28.6484 96.9196 28.6484 100.194C28.6484 102.419 29.931 104.326 31.8393 105.344L55.622 118.09C57.5085 119.153 59.6377 119.712 61.8034 119.711C63.2514 119.711 64.6334 119.457 65.916 119.012L74.0405 116.755V94.25C74.0741 94.2811 34.8323 94.2811 34.8 94.2811Z" fill="url(#paint1_linear_2023_1183)"/>
<path d="M65.3937 0.76366C64.2704 0.442907 63.1073 0.282504 61.9391 0.28721C59.9985 0.28721 58.0579 0.669116 56.3138 1.55857C55.953 1.7178 17.6305 22.5373 17.6305 22.5373C17.1043 22.7923 16.6105 23.1095 16.1502 23.428C16.0855 23.4591 16.0519 23.4914 15.986 23.5238C15.6899 23.7452 15.4262 23.9679 15.1314 24.1906C14.9995 24.2863 14.8676 24.4145 14.7694 24.509C14.6052 24.667 14.4397 24.8262 14.3091 24.9855C13.8488 25.4619 13.0589 26.4783 13.0589 26.4783C11.7036 28.4049 10.9795 30.7046 10.9864 33.0602V88.3682C10.9864 91.6436 13.7493 94.2822 17.1379 94.2822C17.9926 94.2822 18.7825 94.1229 19.5065 93.8045L30.4599 87.8607C32.4328 86.9078 34.0127 85.2856 34.835 83.2828C35.0315 82.8698 35.1957 82.3622 35.2953 81.8522C35.3276 81.7253 35.3612 81.5661 35.3612 81.4392C35.3612 81.377 35.3935 81.2812 35.3935 81.2177C35.4271 80.9938 35.4595 80.74 35.4595 80.5186C35.4595 80.327 35.4931 80.1678 35.4931 79.9775V50.5421V41.3552C35.4931 38.7801 36.6437 36.4601 38.4538 34.8391C39.3084 34.0766 40.4267 33.4085 41.7429 32.9644C43.0578 32.4867 74.1763 21.6167 74.1763 21.6167V3.27528L65.3937 0.76366Z" fill="url(#paint2_linear_2023_1183)"/>
<path d="M65.3937 0.76366C64.2704 0.442907 63.1073 0.282504 61.9391 0.28721C59.9985 0.28721 58.0579 0.669116 56.3138 1.55857C55.953 1.7178 17.6305 22.5373 17.6305 22.5373C17.1043 22.7923 16.6105 23.1095 16.1502 23.428C16.0855 23.4591 16.0519 23.4914 15.986 23.5238C15.6899 23.7452 15.4262 23.9679 15.1314 24.1906C14.9995 24.2863 14.8676 24.4145 14.7694 24.509C14.6052 24.667 14.4397 24.8262 14.3091 24.9855C13.8488 25.4619 13.0589 26.4783 13.0589 26.4783C11.7036 28.4049 10.9795 30.7046 10.9864 33.0602V88.3682C10.9864 91.6436 13.7493 94.2822 17.1379 94.2822C17.9926 94.2822 18.7825 94.1229 19.5065 93.8045L30.4599 87.8607C32.4328 86.9078 34.0127 85.2856 34.835 83.2828C35.0315 82.8698 35.1957 82.3622 35.2953 81.8522C35.3276 81.7253 35.3612 81.5661 35.3612 81.4392C35.3612 81.377 35.3935 81.2812 35.3935 81.2177C35.4271 80.9938 35.4595 80.74 35.4595 80.5186C35.4595 80.327 35.4931 80.1678 35.4931 79.9775V50.5421V41.3552C35.4931 38.7801 36.6437 36.4601 38.4538 34.8391C39.3084 34.0766 40.4267 33.4085 41.7429 32.9644C43.0578 32.4867 74.1763 21.6167 74.1763 21.6167V3.27528L65.3937 0.76366Z" fill="url(#paint3_linear_2023_1183)"/>
<path d="M100.428 10.6746L65.9219 0.917969C70.9215 2.79391 74.0452 7.021 74.0452 12.1711C74.0452 12.1711 74.0141 105.719 74.0452 107.976C74.0787 113.062 70.7237 117.417 65.9219 119.038C66.9743 118.752 100.428 109.438 100.428 109.438C105.394 107.913 108.98 103.462 108.98 98.1547V21.9576C109.013 16.6831 105.394 12.1997 100.428 10.6746Z" fill="url(#paint4_linear_2023_1183)"/>
</g>
<defs>
<linearGradient id="paint0_linear_2023_1183" x1="32.062" y1="103.987" x2="117.56" y2="111.728" gradientUnits="userSpaceOnUse">
<stop stop-color="#F32B44"/>
<stop offset="0.6" stop-color="#A4070A"/>
</linearGradient>
<linearGradient id="paint1_linear_2023_1183" x1="89.9985" y1="108.886" x2="52.0417" y2="105.448" gradientUnits="userSpaceOnUse">
<stop stop-opacity="0.4"/>
<stop offset="1" stop-opacity="0"/>
</linearGradient>
<linearGradient id="paint2_linear_2023_1183" x1="66.6402" y1="-3.8329" x2="3.64557" y2="89.2664" gradientUnits="userSpaceOnUse">
<stop stop-color="#800600"/>
<stop offset="0.6" stop-color="#C72127"/>
<stop offset="0.728" stop-color="#C13959"/>
<stop offset="0.847" stop-color="#BC4B81"/>
<stop offset="0.942" stop-color="#B95799"/>
<stop offset="1" stop-color="#B85BA2"/>
</linearGradient>
<linearGradient id="paint3_linear_2023_1183" x1="67.9899" y1="-5.6964" x2="54.6493" y2="14.0197" gradientUnits="userSpaceOnUse">
<stop stop-opacity="0.4"/>
<stop offset="1" stop-opacity="0"/>
</linearGradient>
<linearGradient id="paint4_linear_2023_1183" x1="87.4753" y1="-5.79213" x2="87.4753" y2="110.73" gradientUnits="userSpaceOnUse">
<stop stop-color="#FFB900"/>
<stop offset="0.166" stop-color="#EF8400"/>
<stop offset="0.313" stop-color="#E25C01"/>
<stop offset="0.429" stop-color="#DB4401"/>
<stop offset="0.5" stop-color="#D83B01"/>
</linearGradient>
<clipPath id="clip0_2023_1183">
<rect width="120" height="120" fill="white"/>
</clipPath>
</defs>
</svg>
