<svg width="120" height="120" viewBox="0 0 120 120" fill="none" xmlns="http://www.w3.org/2000/svg">
<g clip-path="url(#clip0_2018_7475)">
<path fill-rule="evenodd" clip-rule="evenodd" d="M14.2852 101.44V43.8094C14.2852 19.6141 34.1126 0 58.5709 0C83.0292 0 102.857 19.6141 102.857 43.8094C102.857 67.6866 83.5472 87.102 59.5337 87.6088V87.6191C52.6212 87.6191 47.018 82.0763 47.018 75.238C47.018 68.464 52.5177 62.9603 59.3412 62.8586V62.8423C69.618 62.4423 77.8254 54.074 77.8254 43.8094C77.8254 33.29 69.2049 24.7619 58.5709 24.7619C47.9369 24.7619 39.3163 33.29 39.3163 43.8094V107.619C39.3163 114.457 33.7132 120 26.8007 120C24.2259 120.004 21.7131 119.219 19.6079 117.752C23.2078 116.712 25.838 113.422 25.838 109.524C25.838 104.79 21.9585 100.952 17.1734 100.952C16.1606 100.952 15.1886 101.124 14.2852 101.44ZM59.5337 83.8094C64.3189 83.8094 68.1983 79.9717 68.1983 75.238C68.1983 70.5043 64.3189 66.6666 59.5337 66.6666C54.7483 66.6666 50.8689 70.5043 50.8689 75.238C50.8689 79.9717 54.7483 83.8094 59.5337 83.8094Z" fill="url(#paint0_linear_2018_7475)"/>
</g>
<defs>
<linearGradient id="paint0_linear_2018_7475" x1="10200" y1="0" x2="10200" y2="23998.7" gradientUnits="userSpaceOnUse">
<stop stop-color="#D378E5"/>
<stop offset="1" stop-color="#7526C2"/>
</linearGradient>
<clipPath id="clip0_2018_7475">
<rect width="120" height="120" fill="white"/>
</clipPath>
</defs>
</svg>
