<svg width="240" height="240" viewBox="0 0 240 240" fill="none" xmlns="http://www.w3.org/2000/svg">
<g clip-path="url(#clip0_2018_7475)">
<path fill-rule="evenodd" clip-rule="evenodd" d="M28.5723 202.88V87.6188C28.5723 39.2282 68.2271 0 117.144 0C166.06 0 205.715 39.2282 205.715 87.6188C205.715 135.373 167.096 174.204 119.069 175.218V175.238C105.244 175.238 94.038 164.153 94.038 150.476C94.038 136.928 105.037 125.921 118.684 125.717V125.685C139.238 124.885 155.653 108.148 155.653 87.6188C155.653 66.58 138.412 49.5238 117.144 49.5238C95.8757 49.5238 78.6345 66.58 78.6345 87.6188V215.238C78.6345 228.914 67.4283 240 53.6033 240C48.4538 240.008 43.4281 238.438 39.2178 235.505C46.4175 233.423 51.6779 226.843 51.6779 219.047C51.6779 209.58 43.919 201.905 34.3487 201.905C32.3231 201.905 30.3791 202.249 28.5723 202.88ZM119.069 167.619C128.64 167.619 136.399 159.943 136.399 150.476C136.399 141.009 128.64 133.333 119.069 133.333C109.499 133.333 101.74 141.009 101.74 150.476C101.74 159.943 109.499 167.619 119.069 167.619Z" fill="url(#paint0_linear_2018_7475)"/>
</g>
<defs>
<linearGradient id="paint0_linear_2018_7475" x1="20400" y1="0" x2="20400" y2="47997.5" gradientUnits="userSpaceOnUse">
<stop stop-color="#D378E5"/>
<stop offset="1" stop-color="#7526C2"/>
</linearGradient>
<clipPath id="clip0_2018_7475">
<rect width="240" height="240" fill="white"/>
</clipPath>
</defs>
</svg>
