<svg width="42" height="42" viewBox="0 0 42 42" fill="none" xmlns="http://www.w3.org/2000/svg">
<path fill-rule="evenodd" clip-rule="evenodd" d="M5 35.504V15.3333C5 6.86493 11.9396 0 20.5 0C29.0604 0 36 6.86493 36 15.3333C36 23.6903 29.2417 30.4857 20.837 30.6631V30.6667C18.4176 30.6667 16.4565 28.7267 16.4565 26.3333C16.4565 23.9624 18.3814 22.0361 20.7696 22.0005V21.9948C24.3665 21.8548 27.2391 18.9259 27.2391 15.3333C27.2391 11.6515 24.2219 8.66667 20.5 8.66667C16.7781 8.66667 13.7609 11.6515 13.7609 15.3333V37.6667C13.7609 40.06 11.7998 42 9.38043 42C8.47927 42.0014 7.59978 41.7266 6.86297 41.2133C8.12291 40.8491 9.04348 39.6976 9.04348 38.3333C9.04348 36.6765 7.68568 35.3333 6.01087 35.3333C5.65639 35.3333 5.3162 35.3935 5 35.504ZM20.837 29.3333C22.5118 29.3333 23.8696 27.9901 23.8696 26.3333C23.8696 24.6765 22.5118 23.3333 20.837 23.3333C19.1621 23.3333 17.8043 24.6765 17.8043 26.3333C17.8043 27.9901 19.1621 29.3333 20.837 29.3333Z" fill="url(#paint0_linear_287_388)"/>
<defs>
<linearGradient id="paint0_linear_287_388" x1="3570" y1="0" x2="3570" y2="8399.56" gradientUnits="userSpaceOnUse">
<stop stop-color="#D378E5"/>
<stop offset="1" stop-color="#7526C2"/>
</linearGradient>
</defs>
</svg>
