<svg width="240" height="240" viewBox="0 0 240 240" fill="none" xmlns="http://www.w3.org/2000/svg">
<g clip-path="url(#clip0_2018_7477)">
<path d="M186.935 240H53.0652C23.7613 240 0 216.239 0 186.935V53.0652C0 23.7613 23.7613 0 53.0652 0H186.908C216.212 0 239.974 23.7613 239.974 53.0652V186.908C240 216.239 216.239 240 186.935 240Z" fill="#242424"/>
<path d="M111.223 102.576C80.912 111.593 27.3692 132.251 24.7969 216.079C34.4764 170.943 58.344 164.472 102.207 154.156C146.07 143.867 169.911 132.251 196.377 100.64C222.817 69.0296 213.8 23.8936 213.8 23.8936C213.8 48.3974 196.377 64.521 179.617 76.1364C162.857 87.7518 141.535 93.5598 111.223 102.576Z" fill="url(#paint0_linear_2018_7477)"/>
<path d="M24.7968 216.106C24.8764 213.932 24.9824 211.837 25.115 209.769C24.8764 211.996 24.7437 214.118 24.7968 216.106Z" fill="url(#paint1_linear_2018_7477)"/>
<path d="M137.61 143.814C114.83 148.11 91.6257 147.606 76.4034 151.611C49.3272 158.691 26.7593 190.939 24.7969 216.079C24.8764 213.931 24.9825 211.836 25.1151 209.741C28.1118 182.373 53.3317 137.476 108.651 112.892C126.26 105.069 142.118 96.7684 155.909 88.2827C164.819 84.8084 172.615 80.9633 179.59 76.1364C196.35 64.521 213.774 48.3974 213.774 23.8936C213.774 23.8936 215.206 60.7021 203.272 92.2073C201.628 95.2038 199.771 98.0947 197.65 100.826C181.579 121.697 162.618 134.479 137.61 143.814Z" fill="url(#paint2_linear_2018_7477)"/>
<path d="M25.1655 208.68C25.0063 211.094 24.8737 213.56 24.7941 216.079C24.6351 213.799 24.7676 211.306 25.1655 208.68C30.5754 131.005 81.8106 111.328 111.221 102.576C141.532 93.5598 162.827 87.7518 179.588 76.1364C196.348 64.521 213.771 48.3974 213.771 23.8936C213.771 23.8936 222.814 69.0296 196.348 100.64C169.908 132.251 147.976 119.336 104.113 129.652C64.0957 139.094 29.4351 181.286 25.1655 208.68Z" fill="url(#paint3_linear_2018_7477)"/>
<path d="M93.164 134.187C134.454 126.444 160.231 127.08 188.633 96.7684C217.009 66.457 213.774 23.8936 213.774 23.8936C213.774 48.3974 196.35 64.521 179.59 76.1364C172.589 80.9896 164.793 84.8084 155.909 88.2827C142.118 96.7684 123.051 105.44 105.442 113.264C50.1228 137.847 28.1118 182.373 25.1151 209.741C24.9825 211.81 24.8764 213.904 24.7969 216.079C26.7593 190.912 51.8996 141.931 93.164 134.187Z" fill="url(#paint4_linear_2018_7477)"/>
<path d="M24.7968 216.106C24.8764 213.932 24.9824 211.837 25.115 209.769C24.8764 211.996 24.7437 214.118 24.7968 216.106Z" fill="url(#paint5_linear_2018_7477)"/>
<path d="M122.202 109.047C46.7277 123.235 24.1598 189.878 24.7962 216.106C26.7322 190.966 48.6636 161.927 77.0391 146.439C118.967 125.144 162.829 136.76 193.141 105.812C223.453 74.8638 213.773 23.8936 213.773 23.8936C213.773 48.3974 204.73 71.6284 188.606 85.1798C172.509 98.7044 140.261 105.6 122.202 109.047Z" fill="url(#paint6_linear_2018_7477)"/>
</g>
<defs>
<linearGradient id="paint0_linear_2018_7477" x1="118.703" y1="150.066" x2="114.187" y2="217.144" gradientUnits="userSpaceOnUse">
<stop stop-color="#FD5200"/>
<stop offset="0.2722" stop-color="#FFDC38"/>
<stop offset="0.9626" stop-color="#F3FEAB"/>
</linearGradient>
<linearGradient id="paint1_linear_2018_7477" x1="76.774" y1="12.9716" x2="31.6001" y2="187.297" gradientUnits="userSpaceOnUse">
<stop offset="0.4072" stop-color="#9E010A"/>
<stop offset="0.6244" stop-color="#FC56A4"/>
<stop offset="0.689" stop-color="#F2A780"/>
<stop offset="0.7431" stop-color="#FFC78A"/>
</linearGradient>
<linearGradient id="paint2_linear_2018_7477" x1="127.831" y1="65.9496" x2="111.114" y2="186.124" gradientUnits="userSpaceOnUse">
<stop offset="0.4072" stop-color="#9E010A"/>
<stop offset="0.6244" stop-color="#FC56A4"/>
<stop offset="0.689" stop-color="#F2A780"/>
<stop offset="0.7431" stop-color="#FFC78A"/>
</linearGradient>
<linearGradient id="paint3_linear_2018_7477" x1="162.036" y1="91.649" x2="34.9739" y2="183.235" gradientUnits="userSpaceOnUse">
<stop offset="0.0753769" stop-color="#0C64CC"/>
<stop offset="0.3348" stop-color="#1F9FE3"/>
<stop offset="0.4851" stop-color="#1B9DEB"/>
<stop offset="0.7569" stop-color="#72F07F"/>
<stop offset="0.8584" stop-color="#DBFEC8"/>
<stop offset="0.9913" stop-color="#F6F9B1"/>
</linearGradient>
<linearGradient id="paint4_linear_2018_7477" x1="158.304" y1="143.21" x2="103.606" y2="110.652" gradientUnits="userSpaceOnUse">
<stop offset="0.0251256" stop-color="#4226A2"/>
<stop offset="0.2769" stop-color="#7357CB"/>
<stop offset="0.4721" stop-color="#4783DF"/>
<stop offset="0.5228" stop-color="#3B8FE4"/>
<stop offset="0.5797" stop-color="#3B9DE4"/>
<stop offset="0.6561" stop-color="#3BA7E4"/>
<stop offset="0.7412" stop-color="#3BABE4"/>
</linearGradient>
<linearGradient id="paint5_linear_2018_7477" x1="92.8112" y1="253.318" x2="38.6331" y2="221.069" gradientUnits="userSpaceOnUse">
<stop stop-color="#4226A2"/>
<stop offset="0.3221" stop-color="#7357CB"/>
<stop offset="0.6283" stop-color="#3B8FE4"/>
</linearGradient>
<linearGradient id="paint6_linear_2018_7477" x1="218.215" y1="51.423" x2="29.2362" y2="199.123" gradientUnits="userSpaceOnUse">
<stop stop-color="#7C4ADF"/>
<stop offset="0.3459" stop-color="#E251D8"/>
<stop offset="0.7297" stop-color="#FCDFBC"/>
<stop offset="0.8312" stop-color="#F6F8B0"/>
<stop offset="0.9186" stop-color="#FFFFF2"/>
<stop offset="0.9894" stop-color="#F6F8B0"/>
</linearGradient>
<clipPath id="clip0_2018_7477">
<rect width="240" height="240" fill="white"/>
</clipPath>
</defs>
</svg>
