<svg width="120" height="120" viewBox="0 0 120 120" fill="none" xmlns="http://www.w3.org/2000/svg">
<g clip-path="url(#clip0_2018_7477)">
<path d="M93.4674 120H26.5326C11.8807 120 0 108.119 0 93.4674V26.5326C0 11.8807 11.8807 0 26.5326 0H93.454C108.106 0 119.987 11.8807 119.987 26.5326V93.454C120 108.119 108.119 120 93.4674 120Z" fill="#242424"/>
<path d="M55.6117 51.2887C40.456 55.797 13.6846 66.1261 12.3984 108.04C17.2382 85.4721 29.172 82.2367 51.1034 77.0787C73.0348 71.9341 84.9554 66.1261 98.1885 50.3207C111.408 34.5153 106.9 11.9473 106.9 11.9473C106.9 24.1992 98.1885 32.261 89.8083 38.0687C81.4283 43.8764 70.7674 46.7804 55.6117 51.2887Z" fill="url(#paint0_linear_2018_7477)"/>
<path d="M12.3984 108.054C12.4382 106.966 12.4912 105.919 12.5575 104.885C12.4382 105.998 12.3719 107.059 12.3984 108.054Z" fill="url(#paint1_linear_2018_7477)"/>
<path d="M68.8051 71.9076C57.4151 74.0556 45.8128 73.8036 38.2017 75.8058C24.6636 79.3461 13.3796 95.4698 12.3984 108.04C12.4382 106.966 12.4912 105.918 12.5576 104.871C14.0559 91.187 26.6658 68.7384 54.3254 56.4467C63.13 52.535 71.0591 48.3847 77.9543 44.1418C82.4094 42.4047 86.3077 40.4821 89.7951 38.0687C98.1751 32.261 106.887 24.1992 106.887 11.9473C106.887 11.9473 107.603 30.3515 101.636 46.1041C100.814 47.6024 99.8857 49.0478 98.8248 50.4136C90.7897 60.849 81.3088 67.2401 68.8051 71.9076Z" fill="url(#paint2_linear_2018_7477)"/>
<path d="M12.5837 104.341C12.5041 105.547 12.4378 106.78 12.398 108.04C12.3185 106.9 12.3848 105.653 12.5837 104.341C15.2887 65.503 40.9063 55.6644 55.6114 51.2887C70.7671 46.7804 81.4146 43.8764 89.7948 38.0687C98.1749 32.261 106.887 24.1992 106.887 11.9473C106.887 11.9473 111.408 34.5153 98.1749 50.3207C84.9549 66.1261 73.9891 59.6687 52.0577 64.8267C32.0488 69.5473 14.7185 90.6433 12.5837 104.341Z" fill="url(#paint3_linear_2018_7477)"/>
<path d="M46.582 67.0941C67.2271 63.2224 80.1157 63.5407 94.3166 48.3847C108.505 33.229 106.887 11.9473 106.887 11.9473C106.887 24.1992 98.1751 32.261 89.7951 38.0687C86.2946 40.4953 82.3963 42.4047 77.9543 44.1418C71.0591 48.3847 61.5254 52.7207 52.7211 56.6324C25.0614 68.9241 14.0559 91.187 12.5576 104.871C12.4912 105.905 12.4382 106.953 12.3984 108.04C13.3796 95.4567 25.9498 70.9661 46.582 67.0941Z" fill="url(#paint4_linear_2018_7477)"/>
<path d="M12.3984 108.054C12.4382 106.966 12.4912 105.919 12.5575 104.885C12.4382 105.998 12.3719 107.059 12.3984 108.054Z" fill="url(#paint5_linear_2018_7477)"/>
<path d="M61.1 54.5241C23.3629 61.6178 12.0789 94.9396 12.3971 108.053C13.3651 95.4833 24.3308 80.9638 38.5186 73.2201C59.4823 62.5727 81.4137 68.3804 96.5694 52.9064C111.725 37.4324 106.885 11.9473 106.885 11.9473C106.885 24.1992 102.364 35.8147 94.302 42.5904C86.2535 49.3527 70.1297 52.8004 61.1 54.5241Z" fill="url(#paint6_linear_2018_7477)"/>
</g>
<defs>
<linearGradient id="paint0_linear_2018_7477" x1="59.3514" y1="75.0336" x2="57.0937" y2="108.573" gradientUnits="userSpaceOnUse">
<stop stop-color="#FD5200"/>
<stop offset="0.2722" stop-color="#FFDC38"/>
<stop offset="0.9626" stop-color="#F3FEAB"/>
</linearGradient>
<linearGradient id="paint1_linear_2018_7477" x1="38.387" y1="6.48627" x2="15.8" y2="93.6488" gradientUnits="userSpaceOnUse">
<stop offset="0.4072" stop-color="#9E010A"/>
<stop offset="0.6244" stop-color="#FC56A4"/>
<stop offset="0.689" stop-color="#F2A780"/>
<stop offset="0.7431" stop-color="#FFC78A"/>
</linearGradient>
<linearGradient id="paint2_linear_2018_7477" x1="63.9157" y1="32.9753" x2="55.5568" y2="93.0624" gradientUnits="userSpaceOnUse">
<stop offset="0.4072" stop-color="#9E010A"/>
<stop offset="0.6244" stop-color="#FC56A4"/>
<stop offset="0.689" stop-color="#F2A780"/>
<stop offset="0.7431" stop-color="#FFC78A"/>
</linearGradient>
<linearGradient id="paint3_linear_2018_7477" x1="81.0188" y1="45.825" x2="17.4879" y2="91.6181" gradientUnits="userSpaceOnUse">
<stop offset="0.0753769" stop-color="#0C64CC"/>
<stop offset="0.3348" stop-color="#1F9FE3"/>
<stop offset="0.4851" stop-color="#1B9DEB"/>
<stop offset="0.7569" stop-color="#72F07F"/>
<stop offset="0.8584" stop-color="#DBFEC8"/>
<stop offset="0.9913" stop-color="#F6F9B1"/>
</linearGradient>
<linearGradient id="paint4_linear_2018_7477" x1="79.152" y1="71.6056" x2="51.8031" y2="55.3264" gradientUnits="userSpaceOnUse">
<stop offset="0.0251256" stop-color="#4226A2"/>
<stop offset="0.2769" stop-color="#7357CB"/>
<stop offset="0.4721" stop-color="#4783DF"/>
<stop offset="0.5228" stop-color="#3B8FE4"/>
<stop offset="0.5797" stop-color="#3B9DE4"/>
<stop offset="0.6561" stop-color="#3BA7E4"/>
<stop offset="0.7412" stop-color="#3BABE4"/>
</linearGradient>
<linearGradient id="paint5_linear_2018_7477" x1="46.4056" y1="126.66" x2="19.3165" y2="110.535" gradientUnits="userSpaceOnUse">
<stop stop-color="#4226A2"/>
<stop offset="0.3221" stop-color="#7357CB"/>
<stop offset="0.6283" stop-color="#3B8FE4"/>
</linearGradient>
<linearGradient id="paint6_linear_2018_7477" x1="109.106" y1="25.712" x2="14.6171" y2="99.5618" gradientUnits="userSpaceOnUse">
<stop stop-color="#7C4ADF"/>
<stop offset="0.3459" stop-color="#E251D8"/>
<stop offset="0.7297" stop-color="#FCDFBC"/>
<stop offset="0.8312" stop-color="#F6F8B0"/>
<stop offset="0.9186" stop-color="#FFFFF2"/>
<stop offset="0.9894" stop-color="#F6F8B0"/>
</linearGradient>
<clipPath id="clip0_2018_7477">
<rect width="120" height="120" fill="white"/>
</clipPath>
</defs>
</svg>
