<svg width="924" height="924" viewBox="0 0 924 924" fill="none" xmlns="http://www.w3.org/2000/svg">
<path fill-rule="evenodd" clip-rule="evenodd" d="M231 247.056C231 263.647 244.552 277.103 261.261 277.103H512.036C540.618 277.103 564.155 285.87 582.648 303.405C601.14 320.938 610.386 343.477 610.386 371.026C610.386 396.489 601.14 417.359 582.639 433.636C564.155 449.502 540.618 457.431 512.036 457.431H403.048C386.331 457.431 372.779 470.879 372.779 487.487C372.779 504.078 386.331 517.534 403.048 517.534H523.396L631.827 690.343C638.55 700.786 648.005 706 660.191 706C673.646 706 683.101 700.786 688.564 690.343C694.027 679.498 692.974 668.015 685.416 655.912L588.954 501.877C615.013 490.194 635.61 473.079 650.736 450.541C665.871 427.585 673.439 401.083 673.439 371.026C673.439 340.552 666.497 313.839 652.632 290.883C639.185 267.917 620.276 249.973 595.895 237.032C571.513 223.671 543.567 217 512.036 217H261.269C244.552 217 231 230.447 231 247.056Z" fill="black"/>
</svg>
