<svg width="42" height="42" viewBox="0 0 42 42" fill="none" xmlns="http://www.w3.org/2000/svg">
<path fill-rule="evenodd" clip-rule="evenodd" d="M5 6.08979C5 7.24336 5.94068 8.17896 7.10053 8.17896H24.5079C26.4919 8.17896 28.1257 8.78854 29.4094 10.0077C30.693 11.2268 31.3348 12.7939 31.3348 14.7094C31.3348 16.4798 30.693 17.9309 29.4088 19.0626C28.1257 20.1658 26.4919 20.7171 24.5079 20.7171H16.9426C15.7822 20.7171 14.8415 21.6521 14.8415 22.8069C14.8415 23.9604 15.7822 24.896 16.9426 24.896H25.2965L32.8231 36.9114C33.2898 37.6375 33.9461 38 34.792 38C35.726 38 36.3823 37.6375 36.7615 36.9114C37.1407 36.1573 37.0676 35.3589 36.543 34.5174L29.8471 23.8074C31.656 22.9951 33.0857 21.8051 34.1357 20.238C35.1863 18.6419 35.7116 16.7992 35.7116 14.7094C35.7116 12.5905 35.2297 10.7332 34.2673 9.13704C33.3339 7.54025 32.0213 6.29257 30.3289 5.39279C28.6365 4.46386 26.6966 4 24.5079 4H7.10113C5.94068 4 5 4.935 5 6.08979Z" fill="black"/>
</svg>
