<svg width="240" height="240" viewBox="0 0 240 240" fill="none" xmlns="http://www.w3.org/2000/svg">
<path fill-rule="evenodd" clip-rule="evenodd" d="M28.5723 34.7991C28.5723 41.3909 33.9476 46.7372 40.5753 46.7372H140.046C151.383 46.7372 160.719 50.2205 168.055 57.1871C175.389 64.1534 179.057 73.1083 179.057 84.054C179.057 94.1706 175.389 102.463 168.051 108.929C160.719 115.233 151.383 118.384 140.046 118.384H96.8157C90.1848 118.384 84.8094 123.727 84.8094 130.325C84.8094 136.917 90.1848 142.263 96.8157 142.263H144.552L187.561 210.923C190.228 215.072 193.979 217.143 198.812 217.143C204.149 217.143 207.9 215.072 210.067 210.923C212.233 206.613 211.816 202.051 208.818 197.243L170.556 136.043C180.892 131.401 189.062 124.601 195.062 115.646C201.065 106.525 204.067 95.9957 204.067 84.054C204.067 71.946 201.313 61.3329 195.814 52.2119C190.48 43.0874 182.98 35.9578 173.309 30.8162C163.638 25.508 152.553 22.8574 140.046 22.8574H40.5787C33.9476 22.8574 28.5723 28.2003 28.5723 34.7991Z" fill="black"/>
</svg>
