<svg width="120" height="120" viewBox="0 0 120 120" fill="none" xmlns="http://www.w3.org/2000/svg">
<path fill-rule="evenodd" clip-rule="evenodd" d="M14.2852 17.3995C14.2852 20.6955 16.9728 23.3686 20.2867 23.3686H70.022C75.6906 23.3686 80.3586 25.1103 84.0263 28.5936C87.6937 32.0767 89.5274 36.5541 89.5274 42.027C89.5274 47.0853 87.6937 51.2313 84.0246 54.4647C80.3586 57.6167 75.6906 59.1919 70.022 59.1919H48.4069C45.0914 59.1919 42.4037 61.8633 42.4037 65.1627C42.4037 68.4584 45.0914 71.1316 48.4069 71.1316H72.2752L93.7797 105.461C95.1132 107.536 96.9883 108.572 99.4052 108.572C102.074 108.572 103.949 107.536 105.032 105.461C106.116 103.307 105.907 101.026 104.408 98.6213L85.2769 68.0213C90.4451 65.7004 94.53 62.3004 97.53 57.823C100.532 53.2627 102.033 47.9979 102.033 42.027C102.033 35.973 100.656 30.6664 97.906 26.106C95.2392 21.5437 91.4889 17.9789 86.6534 15.4081C81.818 12.754 76.2754 11.4287 70.022 11.4287H20.2884C16.9728 11.4287 14.2852 14.1001 14.2852 17.3995Z" fill="black"/>
</svg>
