<svg width="240" height="240" viewBox="0 0 240 240" fill="none" xmlns="http://www.w3.org/2000/svg">
<path d="M58.5234 27.8137L119.953 21.3193L181.382 27.8137L228.941 91.6567L119.953 218.572L10.9648 91.6567L58.5234 27.8137Z" fill="#FDB300"/>
<path d="M55.1104 91.6572L119.953 218.573L10.9648 91.6572H55.1104Z" fill="#EA6C00"/>
<path d="M184.794 91.6572L119.951 218.573L228.94 91.6572H184.794Z" fill="#EA6C00"/>
<path d="M55.1113 91.6572H184.796L119.954 218.573L55.1113 91.6572Z" fill="#FDAD00"/>
<path d="M119.954 21.3193L58.5237 27.8136L55.1113 91.6567L119.954 21.3193Z" fill="#FDD231"/>
<path d="M119.953 21.3193L181.383 27.8136L184.796 91.6567L119.953 21.3193Z" fill="#FDD231"/>
<path d="M228.943 91.6562L181.385 27.8135L184.798 91.6562H228.943Z" fill="#FDAD00"/>
<path d="M10.9648 91.6562L58.5228 27.8135L55.1104 91.6562H10.9648Z" fill="#FDAD00"/>
<path d="M119.954 21.3193L55.1113 91.6567H184.796L119.954 21.3193Z" fill="#FEEEB7"/>
</svg>
