<svg width="120" height="120" viewBox="0 0 120 120" fill="none" xmlns="http://www.w3.org/2000/svg">
<path d="M29.2617 13.9073L59.9763 10.6602L90.6911 13.9073L114.47 45.8288L59.9763 109.287L5.48242 45.8288L29.2617 13.9073Z" fill="#FDB300"/>
<path d="M27.5552 45.8281L59.9766 109.286L5.48242 45.8281H27.5552Z" fill="#EA6C00"/>
<path d="M92.398 45.8281L59.9766 109.286L114.471 45.8281H92.398Z" fill="#EA6C00"/>
<path d="M27.5566 45.8281H92.3991L59.978 109.286L27.5566 45.8281Z" fill="#FDAD00"/>
<path d="M59.978 10.6602L29.2628 13.9073L27.5566 45.8288L59.978 10.6602Z" fill="#FDD231"/>
<path d="M59.9766 10.6602L90.6914 13.9073L92.398 45.8288L59.9766 10.6602Z" fill="#FDD231"/>
<path d="M114.471 45.8286L90.6914 13.9072L92.398 45.8286H114.471Z" fill="#FDAD00"/>
<path d="M5.48242 45.8286L29.2614 13.9072L27.5552 45.8286H5.48242Z" fill="#FDAD00"/>
<path d="M59.978 10.6602L27.5566 45.8288H92.3991L59.978 10.6602Z" fill="#FEEEB7"/>
</svg>
