<svg width="42" height="42" viewBox="0 0 42 42" fill="none" xmlns="http://www.w3.org/2000/svg">
<path d="M10.2417 4.86747L20.9918 3.73096L31.742 4.86747L40.0647 16.04L20.9918 38.2502L1.91895 16.04L10.2417 4.86747Z" fill="#FDB300"/>
<path d="M9.64442 16.04L20.9919 38.2502L1.91895 16.04H9.64442Z" fill="#EA6C00"/>
<path d="M32.339 16.04L20.9915 38.2502L40.0645 16.04H32.339Z" fill="#EA6C00"/>
<path d="M9.64453 16.04H32.3394L20.992 38.2502L9.64453 16.04Z" fill="#FDAD00"/>
<path d="M20.992 3.73096L10.2417 4.86746L9.64453 16.04L20.992 3.73096Z" fill="#FDD231"/>
<path d="M20.9919 3.73096L31.7421 4.86746L32.3394 16.04L20.9919 3.73096Z" fill="#FDD231"/>
<path d="M40.0649 16.0399L31.7422 4.86743L32.3395 16.0399H40.0649Z" fill="#FDAD00"/>
<path d="M1.91895 16.0399L10.2416 4.86743L9.64442 16.0399H1.91895Z" fill="#FDAD00"/>
<path d="M20.992 3.73096L9.64453 16.04H32.3394L20.992 3.73096Z" fill="#FEEEB7"/>
</svg>
