<svg width="120" height="120" viewBox="0 0 120 120" fill="none" xmlns="http://www.w3.org/2000/svg">
<g clip-path="url(#clip0_2155_10097)">
<path d="M60.0039 24.002C44.0036 24.002 34.007 31.9988 30.0039 47.9991C36.002 40.0013 43.0042 37.0023 51.002 39.002C55.5686 40.1401 58.832 43.4513 62.4461 47.1207C68.328 53.0898 75.1361 60.0001 90.0039 60.0001C106.003 60.0001 116.001 52.0023 120.004 35.9982C114.005 44.0007 107.004 46.9998 99.0048 45.0001C94.4392 43.861 91.1795 40.5507 87.5608 36.8813C81.6827 30.9123 74.8764 24.002 60.0039 24.002ZM30.0039 60.0001C14.0045 60.0001 4.00703 67.9979 0.00390625 84.002C6.00203 75.9995 13.0033 73.0004 21.002 75.0001C25.5686 76.1391 28.832 79.4495 32.4461 83.1188C38.328 89.0879 45.1361 95.9982 60.0039 95.9982C76.0033 95.9982 86.0008 88.0013 90.0039 72.001C84.0048 79.9988 77.0036 82.9979 69.0048 80.9982C64.4392 79.8601 61.1795 76.5488 57.5608 72.8795C51.6827 66.9104 44.8764 60.0001 30.0039 60.0001Z" fill="#38BDF8"/>
</g>
<defs>
<clipPath id="clip0_2155_10097">
<rect width="120" height="120" fill="white"/>
</clipPath>
</defs>
</svg>
