<svg width="240" height="240" viewBox="0 0 240 240" fill="none" xmlns="http://www.w3.org/2000/svg">
<g clip-path="url(#clip0_2018_7498)">
<mask id="mask0_2018_7498" style="mask-type:luminance" maskUnits="userSpaceOnUse" x="0" y="0" width="240" height="240">
<path d="M239.926 0H0V239.926H239.926V0Z" fill="white"/>
</mask>
<g mask="url(#mask0_2018_7498)">
<path d="M180.523 239.926H59.4021C26.6478 239.926 0 213.28 0 180.524V59.404C0 26.6489 26.6478 0.000976562 59.4021 0.000976562H180.523C213.278 0.000976562 239.926 26.6489 239.926 59.404V180.524C239.926 213.28 213.278 239.926 180.523 239.926Z" fill="#472A91"/>
<path d="M157.43 75.9297L145.6 120.359L133.731 75.9297H106.418L94.4352 120.687L82.492 75.9297H51.3828L80.2902 174.163H107.129L119.962 128.547L132.796 174.163H159.692L188.536 75.9297H157.43Z" fill="white"/>
</g>
</g>
<defs>
<clipPath id="clip0_2018_7498">
<rect width="240" height="240" fill="white"/>
</clipPath>
</defs>
</svg>
