<svg width="120" height="120" viewBox="0 0 120 120" fill="none" xmlns="http://www.w3.org/2000/svg">
<g clip-path="url(#clip0_2018_7505)">
<mask id="mask0_2018_7505" style="mask-type:luminance" maskUnits="userSpaceOnUse" x="0" y="0" width="120" height="120">
<path d="M120 0H0V120H120V0Z" fill="white"/>
</mask>
<g mask="url(#mask0_2018_7505)">
<path fill-rule="evenodd" clip-rule="evenodd" d="M12.5287 79.9741L0 65.9624L38.3474 52.0029L44.3157 68.4035L12.5287 79.9741Z" fill="#F89920"/>
<path fill-rule="evenodd" clip-rule="evenodd" d="M12.4363 79.721L11.8457 98.5084L50.1931 84.549L44.2251 68.1504L12.4363 79.721Z" fill="#FFBE22"/>
<path fill-rule="evenodd" clip-rule="evenodd" d="M119.007 41.25C124.478 57.1031 106.848 77.9326 79.422 87.9151C51.9966 97.8974 25.0996 93.272 19.0996 77.61L119.007 41.25Z" fill="#F0670A"/>
<path fill-rule="evenodd" clip-rule="evenodd" d="M119.006 41.2497C113.044 25.5486 86.1226 20.9061 58.6689 30.896C31.2151 40.886 13.5713 61.7512 19.0988 77.6117L119.006 41.2497Z" fill="#FFD00E"/>
<path fill-rule="evenodd" clip-rule="evenodd" d="M119.003 41.25C122.416 51.8569 103.253 68.3757 75.9311 78.3263C48.6085 88.2769 23.3073 87.9263 19.1035 77.61L119.003 41.25Z" fill="#F89920"/>
<path fill-rule="evenodd" clip-rule="evenodd" d="M119.005 41.2502C114.861 30.8813 89.5432 30.5156 62.1552 40.4813C34.7672 50.4471 15.6102 67.0051 19.0995 77.6065L119.005 41.2502Z" fill="#FFBE22"/>
<path d="M72.9148 26.8593C70.3048 17.8368 67.3366 12.8343 63.9597 12.9281C57.4348 13.1155 55.2411 33.8081 57.3523 60.3244C59.4897 87.1219 65.0248 107.256 71.9266 107.072C76.0443 106.963 78.3617 100.378 79.1754 88.9444C79.1943 88.7099 78.9317 88.873 78.9466 88.635C78.9466 88.635 78.9128 88.2187 78.7591 88.2073L77.8837 88.1513C77.1674 99.2513 74.996 105.65 71.8911 105.731C66.2174 105.881 60.7386 85.965 58.6911 60.2193C56.6737 34.8956 58.8449 14.4168 63.9974 14.2687C66.4349 14.1993 69.1723 18.8062 71.5911 27.1181L72.9148 26.8593Z" fill="#F0670A"/>
<path d="M40.575 20.4225C35.0156 23.8462 43.4625 42.8663 58.5505 64.7737C73.7979 86.9137 88.6593 101.58 94.5468 97.9706C97.8373 95.9531 96.915 89.8294 92.6756 80.5894C92.5819 80.3643 92.3719 80.2051 92.1262 80.1768C91.8805 80.1488 91.6425 80.2611 91.5036 80.462C91.365 80.6626 91.3462 80.9268 91.4568 81.1463C95.3942 89.7394 96.2419 95.3588 93.8436 96.8268C89.0062 99.7894 74.3062 85.2863 59.655 64.0143C45.2473 43.0931 36.8888 24.2738 41.2799 21.5681C43.6105 20.1319 49.155 23.5969 56.4862 31.0837C56.5688 31.1663 57.0356 31.652 57.1425 31.6837C57.3673 31.7531 57.255 31.2711 57.4368 31.0931C57.5642 30.9694 57.6373 30.7988 57.6393 30.6206C57.641 30.4426 57.5719 30.272 57.4479 30.1443C49.6125 22.125 43.7379 18.4688 40.575 20.4188V20.4225Z" fill="#F0670A"/>
</g>
</g>
<defs>
<clipPath id="clip0_2018_7505">
<rect width="120" height="120" fill="white"/>
</clipPath>
</defs>
</svg>
