<svg width="42" height="42" viewBox="0 0 42 42" fill="none" xmlns="http://www.w3.org/2000/svg">
<g clip-path="url(#clip0_288_452)">
<path fill-rule="evenodd" clip-rule="evenodd" d="M4.38506 27.9911L0 23.087L13.4216 18.2012L15.5105 23.9414L4.38506 27.9911Z" fill="#F89920"/>
<path fill-rule="evenodd" clip-rule="evenodd" d="M4.35271 27.9025L4.146 34.4781L17.5676 29.5923L15.4788 23.8528L4.35271 27.9025Z" fill="#FFBE22"/>
<path fill-rule="evenodd" clip-rule="evenodd" d="M41.6522 14.4375C43.5671 19.9861 37.3964 27.2764 27.7974 30.7703C18.1985 34.2641 8.78457 32.6452 6.68457 27.1635L41.6522 14.4375Z" fill="#F0670A"/>
<path fill-rule="evenodd" clip-rule="evenodd" d="M41.6522 14.4375C39.5653 8.94211 30.1429 7.31724 20.5341 10.8137C10.9253 14.3102 4.74996 21.613 6.68458 27.1642L41.6522 14.4375Z" fill="#FFD00E"/>
<path fill-rule="evenodd" clip-rule="evenodd" d="M41.651 14.4375C42.8454 18.1499 36.1385 23.9315 26.5757 27.4142C17.0128 30.8969 8.15735 30.7742 6.68604 27.1635L41.651 14.4375Z" fill="#F89920"/>
<path fill-rule="evenodd" clip-rule="evenodd" d="M41.652 14.4376C40.2017 10.8085 31.3403 10.6805 21.7545 14.1685C12.1687 17.6565 5.46375 23.4518 6.68503 27.1623L41.652 14.4376Z" fill="#FFBE22"/>
<path d="M25.5203 9.4008C24.6068 6.24293 23.5679 4.49205 22.386 4.52487C20.1023 4.59049 19.3345 11.8329 20.0734 21.1136C20.8215 30.4927 22.7588 37.5395 25.1744 37.4752C26.6156 37.4371 27.4267 35.1324 27.7115 31.1306C27.7181 31.0485 27.6262 31.1056 27.6314 31.0223C27.6314 31.0223 27.6196 30.8766 27.5658 30.8726L27.2594 30.853C27.0087 34.738 26.2487 36.9777 25.162 37.006C23.1762 37.0585 21.2586 30.0878 20.542 21.0768C19.8359 12.2135 20.5958 5.04593 22.3992 4.99409C23.2523 4.9698 24.2104 6.58221 25.057 9.49137L25.5203 9.4008Z" fill="#F0670A"/>
<path d="M14.2013 7.14778C12.2555 8.34609 15.2119 15.0031 20.4927 22.6707C25.8293 30.4197 31.0308 35.5529 33.0914 34.2896C34.2431 33.5835 33.9203 31.4402 32.4365 28.2062C32.4037 28.1274 32.3302 28.0717 32.2442 28.0618C32.1582 28.052 32.0749 28.0913 32.0263 28.1616C31.9778 28.2318 31.9712 28.3243 32.0099 28.4011C33.388 31.4087 33.6847 33.3755 32.8453 33.8893C31.1522 34.9262 26.0072 29.8501 20.8793 22.4049C15.8366 15.0825 12.9111 8.49572 14.448 7.54875C15.2637 7.04606 17.2043 8.25881 19.7702 10.8792C19.7991 10.9081 19.9625 11.0781 19.9999 11.0892C20.0786 11.1135 20.0393 10.9448 20.1029 10.8825C20.1475 10.8392 20.1731 10.7795 20.1738 10.7171C20.1744 10.6548 20.1502 10.5951 20.1068 10.5504C17.3644 7.74365 15.3083 6.46397 14.2013 7.14647V7.14778Z" fill="#F0670A"/>
</g>
<defs>
<clipPath id="clip0_288_452">
<rect width="42" height="42" fill="white"/>
</clipPath>
</defs>
</svg>
