<svg width="240" height="240" viewBox="0 0 240 240" fill="none" xmlns="http://www.w3.org/2000/svg">
<g clip-path="url(#clip0_2018_7505)">
<mask id="mask0_2018_7505" style="mask-type:luminance" maskUnits="userSpaceOnUse" x="0" y="0" width="240" height="240">
<path d="M240 0H0V240H240V0Z" fill="white"/>
</mask>
<g mask="url(#mask0_2018_7505)">
<path fill-rule="evenodd" clip-rule="evenodd" d="M25.0575 159.949L0 131.926L76.6949 104.007L88.6314 136.808L25.0575 159.949Z" fill="#F89920"/>
<path fill-rule="evenodd" clip-rule="evenodd" d="M24.8726 159.443L23.6914 197.018L100.386 169.099L88.4503 136.302L24.8726 159.443Z" fill="#FFBE22"/>
<path fill-rule="evenodd" clip-rule="evenodd" d="M238.012 82.5C248.955 114.206 213.693 155.865 158.842 175.83C103.991 195.795 50.1973 186.544 38.1973 155.22L238.012 82.5Z" fill="#F0670A"/>
<path fill-rule="evenodd" clip-rule="evenodd" d="M238.013 82.4995C226.087 51.0973 172.245 41.8123 117.338 61.7921C62.4303 81.7721 27.1426 123.502 38.1976 155.223L238.013 82.4995Z" fill="#FFD00E"/>
<path fill-rule="evenodd" clip-rule="evenodd" d="M238.005 82.5C244.83 103.714 206.505 136.751 151.86 156.653C97.2151 176.554 46.6126 175.853 38.2051 155.22L238.005 82.5Z" fill="#F89920"/>
<path fill-rule="evenodd" clip-rule="evenodd" d="M238.012 82.5004C229.725 61.7627 179.088 61.0313 124.312 80.9627C69.5363 100.894 31.2223 134.01 38.201 155.213L238.012 82.5004Z" fill="#FFBE22"/>
<path d="M145.83 53.7186C140.61 35.6736 134.673 25.6686 127.919 25.8561C114.87 26.2311 110.482 67.6163 114.705 120.649C118.979 174.244 130.05 214.511 143.853 214.144C152.089 213.926 156.723 200.756 158.351 177.889C158.389 177.42 157.863 177.746 157.893 177.27C157.893 177.27 157.826 176.437 157.518 176.415L155.767 176.303C154.335 198.503 149.992 211.301 143.782 211.463C132.435 211.763 121.477 171.93 117.382 120.439C113.347 69.7911 117.69 28.8336 127.995 28.5374C132.87 28.3986 138.345 37.6123 143.182 54.2361L145.83 53.7186Z" fill="#F0670A"/>
<path d="M81.1501 40.844C70.0312 47.6915 86.9249 85.7316 117.101 129.546C147.596 173.826 177.319 203.159 189.094 195.94C195.675 191.905 193.83 179.658 185.351 161.178C185.164 160.728 184.744 160.409 184.252 160.353C183.761 160.297 183.285 160.521 183.007 160.923C182.73 161.324 182.692 161.853 182.914 162.292C190.788 179.478 192.484 190.717 187.687 193.653C178.012 199.578 148.612 170.572 119.31 128.028C90.4946 86.1853 73.7775 48.5465 82.5598 43.1353C87.2209 40.2628 98.3101 47.1928 112.972 62.1664C113.138 62.3316 114.071 63.303 114.285 63.3664C114.735 63.5053 114.51 62.5413 114.874 62.1853C115.128 61.9378 115.275 61.5967 115.279 61.2401C115.282 60.8841 115.144 60.543 114.896 60.2876C99.2249 44.249 87.4758 36.9365 81.1501 40.8365V40.844Z" fill="#F0670A"/>
</g>
</g>
<defs>
<clipPath id="clip0_2018_7505">
<rect width="240" height="240" fill="white"/>
</clipPath>
</defs>
</svg>
