<svg width="51" height="24" viewBox="0 0 51 24" fill="none" xmlns="http://www.w3.org/2000/svg">
<path d="M43.4728 21.7966C40.5675 21.7966 38.3748 21.0109 36.8948 19.4395C35.433 17.8681 34.7021 15.7394 34.7021 13.0534C34.7021 11.1166 35.0219 9.44466 35.6614 8.03771C36.301 6.61249 37.2694 5.51617 38.5667 4.74874C39.8823 3.98131 41.545 3.5976 43.555 3.5976C44.5965 3.5976 45.5375 3.67068 46.378 3.81686C47.2368 3.94477 48.0408 4.13662 48.7899 4.39243V6.9688C47.2916 6.42063 45.6289 6.14655 43.8017 6.14655C41.5542 6.14655 39.9736 6.7404 39.06 7.92808C38.1647 9.11576 37.717 10.8242 37.717 13.0534C37.717 15.0816 38.1921 16.6256 39.1423 17.6854C40.0924 18.7452 41.5633 19.275 43.555 19.275C45.1264 19.275 46.3963 19.0923 47.3647 18.7269V13.7934H42.952V11.8474H49.9136V20.344C49.3472 20.7094 48.5341 21.0474 47.4743 21.3581C46.4328 21.6504 45.099 21.7966 43.4728 21.7966Z" fill="#00696C"/>
<path fill-rule="evenodd" clip-rule="evenodd" d="M0 3.87164V21.5225H2.98749V15.5749H7.75651C9.60199 15.5749 11.0638 15.045 12.1418 13.9853C13.2381 12.9255 13.7863 11.5185 13.7863 9.76441C13.7863 8.63154 13.5762 7.62656 13.1559 6.7495C12.7357 5.85417 12.087 5.15069 11.2099 4.63907C10.3329 4.12745 9.21828 3.87164 7.86614 3.87164H0ZM7.20835 13.2178H2.98749V6.20134H7.34539C8.49653 6.20134 9.35532 6.51196 9.92175 7.13321C10.5065 7.75446 10.7988 8.63154 10.7988 9.76441C10.7988 10.8242 10.4973 11.6647 9.89435 12.286C9.29137 12.9072 8.39603 13.2178 7.20835 13.2178Z" fill="#00696C"/>
<path fill-rule="evenodd" clip-rule="evenodd" d="M20.9146 10.1024C22.4266 10.1024 23.7412 10.9472 24.4123 12.1905C22.0831 12.2704 20.2195 14.1837 20.2195 16.5324C20.2195 16.6127 20.2217 16.6925 20.226 16.7717C19.6258 15.8427 19.3257 14.5149 19.3257 12.7885C19.3257 11.8521 19.3973 11.0381 19.5406 10.3465C19.9688 10.1887 20.4316 10.1024 20.9146 10.1024ZM24.6074 13.1812L24.6153 13.1813L24.6303 13.1816L24.6649 13.1824L24.685 13.1831L24.7187 13.1844L24.735 13.1851C24.9808 13.1975 25.2197 13.2363 25.4488 13.2989H25.4488L25.4544 13.3004C25.4725 13.3054 25.4906 13.3106 25.5086 13.3159L25.5181 13.3186C25.5369 13.3242 25.5557 13.33 25.5744 13.3359L25.5883 13.3404C25.6062 13.3461 25.624 13.3519 25.6418 13.3579L25.6543 13.3622C25.6716 13.3682 25.6887 13.3742 25.7059 13.3805L25.7128 13.3829C25.7312 13.3897 25.7495 13.3966 25.7677 13.4036L25.7805 13.4085C25.7989 13.4157 25.8173 13.423 25.8357 13.4305L25.8443 13.4341C25.8619 13.4414 25.8796 13.4489 25.8971 13.4565L25.9022 13.4587C25.9208 13.4668 25.9392 13.475 25.9576 13.4834L25.9674 13.488C25.9856 13.4964 26.0036 13.5049 26.0216 13.5136L26.0287 13.5171C26.0458 13.5254 26.0629 13.5338 26.0798 13.5424L26.0877 13.5465C26.1046 13.555 26.1213 13.5638 26.1379 13.5727L26.1511 13.5797C26.1674 13.5886 26.1837 13.5975 26.1999 13.6065L26.2113 13.613C26.2267 13.6217 26.2421 13.6306 26.2574 13.6395L26.2648 13.6438C26.281 13.6535 26.2972 13.6632 26.3133 13.6731L26.3279 13.6821C26.3437 13.6918 26.3593 13.7017 26.375 13.7118L26.3835 13.7173C26.3975 13.7264 26.4115 13.7356 26.4254 13.7449L26.4377 13.7531C26.4539 13.764 26.47 13.7752 26.486 13.7864L26.4928 13.7911C26.5091 13.8027 26.5253 13.8143 26.5415 13.8261L26.5505 13.8328C26.5639 13.8426 26.5772 13.8526 26.5904 13.8626L26.6004 13.8702C26.6158 13.882 26.6311 13.894 26.6464 13.9061L26.6545 13.9126C26.6695 13.9246 26.6844 13.9367 26.6992 13.9489L26.7104 13.9583C26.7231 13.9689 26.7357 13.9796 26.7482 13.9904L26.7563 13.9973C26.7704 14.0095 26.7844 14.0218 26.7982 14.0342L26.8099 14.0447C26.8236 14.057 26.8372 14.0695 26.8507 14.0821L26.8603 14.0912C26.8729 14.1031 26.8854 14.115 26.8978 14.127L26.9042 14.1332C26.9179 14.1465 26.9313 14.16 26.9448 14.1735L26.9546 14.1834C26.9679 14.1969 26.981 14.2105 26.994 14.2242L27.0004 14.231C27.0134 14.2447 27.0262 14.2585 27.0389 14.2724L27.0437 14.2776C27.0569 14.2921 27.0699 14.3067 27.0828 14.3215L27.0905 14.3301C27.1171 14.3607 27.1431 14.3916 27.1686 14.4231L27.1757 14.4317C27.1877 14.4467 27.1995 14.4617 27.2113 14.4768L27.2186 14.4862C27.2305 14.5016 27.2423 14.5171 27.2539 14.5327L27.2609 14.5423C27.27 14.5546 27.2791 14.567 27.2879 14.5794L27.2983 14.5938C27.3087 14.6084 27.3189 14.6231 27.3291 14.6379L27.3373 14.65C27.3483 14.6661 27.3591 14.6823 27.3698 14.6986L27.3724 14.7025C27.3954 14.7378 27.4177 14.7734 27.4394 14.8096L27.4453 14.8195C27.4557 14.8369 27.4659 14.8543 27.4759 14.8718L27.4774 14.8744C27.4985 14.9114 27.5188 14.9488 27.5385 14.9866L27.544 14.9972C27.5525 15.0136 27.5608 15.0301 27.569 15.0467L27.5754 15.0596C27.5932 15.0959 27.6103 15.1325 27.6268 15.1695L27.6323 15.182C27.64 15.1994 27.6475 15.2168 27.6549 15.2343L27.66 15.2468C27.6668 15.263 27.6735 15.2794 27.68 15.2958L27.6831 15.3035C27.6898 15.3205 27.6963 15.3376 27.7028 15.3548L27.7092 15.372C27.7157 15.3897 27.7221 15.4074 27.7283 15.4252L27.7315 15.4344C27.7379 15.4527 27.7441 15.4711 27.7501 15.4895L27.7521 15.4954C27.7582 15.5142 27.7641 15.5331 27.7698 15.552L27.774 15.5658C27.7792 15.5828 27.7841 15.5998 27.7889 15.6169L27.7956 15.6408L27.8061 15.6801L27.8122 15.7033C27.8164 15.7198 27.8205 15.7365 27.8244 15.7532L27.8276 15.7663C27.8318 15.7845 27.8359 15.8028 27.8399 15.8211L27.8436 15.8386C27.8472 15.8558 27.8507 15.873 27.8541 15.8903L27.8556 15.8979C27.8591 15.9161 27.8624 15.9343 27.8656 15.9526L27.869 15.973C27.8721 15.9908 27.8749 16.0087 27.8776 16.0266L27.8806 16.0472C27.883 16.0637 27.8853 16.0804 27.8875 16.097L27.8889 16.1076C27.8914 16.1272 27.8936 16.1469 27.8958 16.1666L27.8978 16.1848L27.8989 16.1968L27.9018 16.226L27.9025 16.2355C27.9061 16.2756 27.9089 16.3158 27.911 16.3562L27.9114 16.3646L27.9129 16.3976L27.9132 16.4064L27.9144 16.4415L27.9145 16.4483L27.9151 16.4786C27.7973 16.6937 27.6657 16.8908 27.52 17.0697C26.7775 17.9859 25.6019 18.444 23.993 18.444C23.0089 18.444 22.1836 18.2726 21.517 17.9298C21.4955 17.883 21.4749 17.8356 21.4556 17.7876L21.451 17.7762L21.4396 17.7475L21.4354 17.7367C21.3982 17.64 21.3653 17.541 21.337 17.4402L21.3317 17.4215L21.3255 17.3983L21.3201 17.3779L21.3131 17.3505L21.3101 17.3384C21.2882 17.2499 21.2699 17.1599 21.2552 17.0688L21.2531 17.0559L21.2477 17.0197L21.2467 17.0127C21.2358 16.9363 21.2274 16.8591 21.2217 16.7812L21.2206 16.7671L21.2182 16.7291L21.2178 16.7221L21.2158 16.6812L21.2155 16.675C21.2149 16.6607 21.2144 16.6464 21.214 16.6321L21.214 16.6318L21.2138 16.6278L21.213 16.5861L21.2128 16.5804C21.2126 16.5644 21.2125 16.5484 21.2125 16.5324C21.2125 14.6814 22.7131 13.1809 24.5641 13.1809L24.6074 13.1812ZM28.6573 12.464C28.3161 12.2875 27.9289 12.1878 27.5184 12.1878C27.0586 12.1878 26.6281 12.3129 26.2588 12.5308C27.2507 12.9514 28.0538 13.7301 28.5064 14.7046C28.609 14.1324 28.6603 13.4937 28.6603 12.7885C28.6603 12.6786 28.6592 12.5704 28.6573 12.464Z" fill="#CCE8E8"/>
<path fill-rule="evenodd" clip-rule="evenodd" d="M25.9433 3.73157C25.3328 3.64228 24.6775 3.5976 23.9776 3.5976C21.1821 3.5976 19.0899 4.31936 17.7012 5.76286C16.3125 7.20635 15.6182 9.53607 15.6182 12.7519C15.6182 15.8399 16.3125 18.1239 17.7012 19.6039C19.0899 21.0657 21.1821 21.7966 23.9776 21.7966C26.7916 21.7966 28.8838 21.0657 30.2542 19.6039C31.6428 18.1239 32.3372 15.8399 32.3372 12.7519C32.3372 10.7967 32.0804 9.16909 31.5671 7.86902L31.5219 8.10947C31.3456 9.04689 30.1941 9.40757 29.5145 8.7382L29.4435 8.66829L29.1501 10.2282C29.2832 10.9573 29.3497 11.7985 29.3497 12.7519C29.3497 15.0725 28.9112 16.7444 28.0341 17.7676C27.1753 18.7726 25.8231 19.275 23.9776 19.275C22.1505 19.275 20.7983 18.7726 19.9212 17.7676C19.0625 16.7444 18.6331 15.0725 18.6331 12.7519C18.6331 10.3034 19.0625 8.595 19.9212 7.62657C20.7279 6.71902 21.9366 6.22884 23.5472 6.15605C23.7084 5.97231 23.9305 5.83459 24.203 5.77906L26.1147 5.38945L26.0437 5.31953C25.5804 4.8632 25.5925 4.18038 25.9433 3.73157ZM28.5042 8.29033L28.5911 7.82857L26.9672 6.22913L26.0621 6.41358C26.8827 6.65466 27.54 7.05894 28.0341 7.62657C28.2081 7.81867 28.3647 8.03999 28.5042 8.29033ZM27.6027 4.1205C28.6732 4.48127 29.5571 5.02862 30.2542 5.76286C30.4585 5.97529 30.6478 6.20693 30.8221 6.45775L30.546 7.92594L30.5427 7.94029C30.5047 8.08574 30.3211 8.13874 30.2114 8.03067L29.6647 7.49221L29.8899 6.29512C30.0463 5.46337 29.3101 4.73822 28.4808 4.90723L27.2873 5.15045L26.7406 4.61198C26.6273 4.50042 26.6845 4.30768 26.8403 4.2759L27.6027 4.1205ZM28.9139 6.11159C28.94 5.97298 28.8173 5.8521 28.6791 5.88025L28.1398 5.99017L28.8122 6.65248L28.9139 6.11159Z" fill="#00696C"/>
<path fill-rule="evenodd" clip-rule="evenodd" d="M31.353 3.63535C31.379 3.49674 31.2564 3.37586 31.1182 3.40401L26.8403 4.27588C26.6846 4.30765 26.6274 4.50045 26.7406 4.61201L27.2873 5.15042L28.4809 4.9072C29.3101 4.73822 30.0463 5.46337 29.89 6.2951L29.6647 7.49218L30.2115 8.0307C30.3247 8.14226 30.5166 8.08215 30.546 7.92592L31.353 3.63535ZM28.7423 5.87746C28.722 5.87508 28.7008 5.87583 28.6792 5.88023L28.1398 5.99015L24.4013 6.75215C24.2455 6.78391 24.1883 6.97667 24.3016 7.08823L26.037 8.79758L27.7724 10.507C27.8857 10.6185 28.0776 10.5584 28.107 10.4022L28.8122 6.65246L28.8123 6.65251L28.914 6.11157C28.9287 6.03361 28.8963 5.96128 28.8405 5.9179C28.8374 5.91549 28.8343 5.91315 28.831 5.91092C28.8083 5.89533 28.7823 5.88431 28.7544 5.87926C28.7504 5.87853 28.7464 5.87794 28.7423 5.87746Z" fill="#00696C"/>
</svg>
