<svg xmlns="http://www.w3.org/2000/svg" width="418" height="286" viewBox="0 0 418 286">
  <g fill="none" fill-rule="evenodd">
    <path fill="#FFF101" d="M75.28,255.451 L3.187,172.306 L12.083,70.634 L97.381,2.84 L414.634,30.597 L392.533,283.207 L75.28,255.451 Z M31.187,136.936 C37.437,137.483 42.947,132.859 43.494,126.609 C44.041,120.36 39.417,114.85 33.168,114.303 C26.918,113.756 21.408,118.38 20.861,124.629 C20.314,130.879 24.937,136.389 31.187,136.936 Z"/>
    <path fill="#000" d="M259.828905,155.33507 L256.041,198.646 C254.109,220.738 234.524,229.144 205.921,226.642 C177.318,224.14 159.489,212.462 161.421,190.37 L165.337,145.584 L202.481,148.833 L198.792,191.008 C198.274,196.933 198.089,202.178 207.985,203.044 C217.88,203.909 218.608,198.711 219.126,192.786 L222.815,150.611 L258.691158,153.74822 L302.271,157.558 L312.35,178.373 L313.474,178.471 C314.81,176.16 316.004,173.836 317.612,171.649 L326.31,159.66 L369.608,163.446 L329.572,203.354 L326.718,235.99 L289.042,232.696 L291.896,200.06 L259.828905,155.33507 Z M72.103,137.284 L116.948,141.208 C137.472,143.003 158.111,148.35 156.582,165.823 C156.002,172.451 150.791,178.572 141.329,179.869 L141.276,180.472 C152.548,184.392 159.331,191.057 158.54,200.094 C157.178,215.659 136.469,219.21 117.912,217.587 L65.476,213 L72.103,137.284 Z M108.776,169.837 C114.399,170.329 120.76,170.481 121.217,165.259 C121.71,159.635 114.505,159.41 108.882,158.918 L106.211,158.684 L105.261,169.529 L108.776,169.837 Z M102.765,198.048 L107.123,198.429 C113.449,198.983 122.596,199.682 123.141,193.456 C123.694,187.13 113.845,186.369 107.66,185.828 L103.864,185.496 L102.765,198.048 Z M158.798,59.58 L230.072,65.811 L228.263,86.497 L195.789,83.658 L195.157,90.888 L224.819,93.482 L223.098,113.164 L193.436,110.57 L192.786,118.001 L226.384,120.939 L224.575,141.625 L152.177,135.295 L158.798,59.58 Z M240.693,115.716 L242.565,116.992 C249.119,121.411 257.141,125.249 265.998,126.023 C269.793,126.355 275.935,125.779 276.233,122.365 C276.532,118.95 271.497,118.207 268.027,117.397 L260.383,115.717 C245.508,112.494 233.409,105.062 234.445,93.212 C236.017,75.237 259.809,67.199 282.864,69.215 C294.954,70.272 305.876,73.352 315.883,78.78 L303.786,97.251 C297.459,93.46 290.228,90.298 281.934,89.573 C278.56,89.278 273.561,89.752 273.289,92.864 C273.043,95.676 277.787,96.496 280.696,97.256 L289.289,99.424 C305.367,103.46 316.632,110.719 315.508,123.572 C313.927,141.648 290.09,148.569 267.176,146.566 C253.821,145.398 238.586,141.435 227.014,136.072 L240.693,115.716 Z M318.865,73.579 L399.839,80.658 L397.687,105.261 L376.521,102.702 L371.99,154.517 L333.471,151.15 L338.003,99.334 L316.714,98.181 L318.865,73.579 Z M64.132,50.874 L108.976,54.797 C129.501,56.593 150.14,61.94 148.61,79.413 C148.03,86.041 142.82,92.162 133.357,93.459 L133.304,94.061 C144.577,97.982 151.36,104.646 150.569,113.684 C149.206,129.249 128.497,132.8 109.941,131.177 L57.505,126.589 L64.132,50.874 Z M100.804,83.427 C106.427,83.919 112.789,84.07 113.246,78.849 C113.738,73.225 106.533,73 100.91,72.508 L98.239,72.274 L97.29,83.119 L100.804,83.427 Z M94.794,111.638 L99.152,112.019 C105.478,112.573 114.624,113.272 115.169,107.046 C115.723,100.719 105.874,99.959 99.688,99.418 L95.892,99.086 L94.794,111.638 Z M368.824,171.045 C369.128,167.553 372.144,165.02 375.652,165.326 C379.16,165.631 381.693,168.647 381.389,172.139 C381.085,175.631 378.069,178.164 374.561,177.859 C371.053,177.553 368.52,174.537 368.824,171.045 Z M369.844,171.134 C369.588,174.084 371.779,176.588 374.65,176.838 C377.52,177.088 380.112,175 380.368,172.05 C380.627,169.084 378.433,166.596 375.563,166.346 C372.693,166.096 370.103,168.168 369.844,171.134 Z M377.666,175.414 L376.501,175.312 L374.983,171.903 L373.675,171.789 L373.392,175.042 L372.372,174.953 L372.985,167.905 L375.951,168.163 C377.227,168.274 378.342,168.757 378.212,170.24 C378.092,171.627 377.106,172.055 376.163,172.005 L377.666,175.414 Z M373.917,169.014 L373.764,170.768 L374.849,170.863 C375.805,170.946 377.099,171.219 377.182,170.263 C377.26,169.37 376.516,169.241 375.671,169.167 L373.917,169.014 Z M390.367219,280.625918 L412.052914,32.7627778 L98.119708,5.2962322 L14.3671631,71.8619199 L5.64842866,171.50796 L76.4483189,253.161614 L390.367219,280.625918 Z M0.725571336,173.10404 L9.79883686,69.4060801 L96.642292,0.383767801 L417.215086,28.4312222 L394.698781,285.788082 L74.1116811,257.740386 L0.725571336,173.10404 Z M18.4875755,124.421245 C19.1493416,116.861141 25.8152379,111.267879 33.3757554,111.929575 C40.9356951,112.591327 46.5291529,119.257083 45.8674274,126.816722 C45.2056954,134.377646 38.5399695,139.971139 30.9792776,139.309427 C23.4184898,138.647707 17.8258489,131.982105 18.4875755,124.421245 Z M41.1205755,126.401245 C41.5528116,121.463322 37.8987098,117.108708 32.9602776,116.676427 C28.0214471,116.244181 23.6667183,119.898174 23.2344274,124.836722 C22.8021458,129.775955 26.4555707,134.130298 31.3947224,134.562573 C36.3336793,134.99483 40.6882739,131.340705 41.1205755,126.401245 Z"/>
  </g>
</svg>
