<svg xmlns="http://www.w3.org/2000/svg" width="318" height="42" viewBox="0 0 318 42">
  <g fill="none" fill-rule="evenodd">
    <path fill="#F58B33" d="M41.6387462,23.6969385 C45.5205154,24.1131692 49.0630538,25.6450923 51.9481308,27.9653231 L65.9233615,13.9852462 C59.4155154,8.13970769 50.9541308,4.41893846 41.6387462,3.92193846 L41.6387462,23.6969385 Z"/>
    <path fill="#EE6F30" d="M54.9635692,30.9829692 C57.2859538,33.8702 58.8173385,37.4111231 59.2319538,41.2923538 L79.0037231,41.2923538 C78.5121077,31.9721231 74.7908,23.5161231 68.9436462,17.0028923 L54.9635692,30.9829692 Z"/>
    <path fill="#552D8E" d="M27.0687308,27.9652154 C29.9462692,25.6449846 33.4936538,24.1136 37.3754231,23.6968308 L37.3754231,3.92183077 C28.0557308,4.41883077 19.5943462,8.14013846 13.0859615,13.9851385 L27.0687308,27.9652154 Z"/>
    <path fill="#3F266A" d="M19.7747846,41.2921385 C20.1915538,37.4109077 21.7283231,33.8705231 24.0458615,30.9827538 L10.0630923,17.0032154 C4.21809231,23.5159077 0.497323077,31.9719077 -0.000215384615,41.2921385 L19.7747846,41.2921385 Z"/>
    <path fill="#552D8E" d="M104.435746,36.6525923 L108.676669,36.6525923 C109.959823,36.6525923 111.187515,36.5696692 112.3549,36.4011308 C113.522285,36.2304385 114.551823,35.9089769 115.438669,35.4372846 C116.324438,34.9650538 117.030362,34.3172846 117.559669,33.4864385 C118.087362,32.6577462 118.350669,31.5829769 118.350669,30.2626692 C118.350669,28.7533615 118.046438,27.5380538 117.444438,26.6140538 C116.8419,25.6905923 116.0509,24.9819769 115.069285,24.4925154 C114.090362,24.0030538 112.985438,23.6815923 111.7599,23.5313615 C110.534362,23.3805923 109.319054,23.3052077 108.114515,23.3052077 L104.435746,23.3052077 L104.435746,36.6525923 Z M104.435746,18.6679769 L107.546438,18.6679769 C108.905515,18.6679769 110.195669,18.6098231 111.4239,18.4967462 C112.646208,18.3836692 113.720977,18.1128231 114.647669,17.6761308 C115.571669,17.2442846 116.304515,16.6110538 116.852131,15.7829 C117.399208,14.9542077 117.670054,13.8040538 117.670054,12.3329769 C117.670054,11.1629 117.444438,10.2039 116.992131,9.44574615 C116.540362,8.69243846 115.955592,8.0899 115.239438,7.63759231 C114.521669,7.18582308 113.7409,6.87459231 112.892285,6.7039 C112.043669,6.53266923 111.202054,6.45028462 110.3739,6.45028462 L104.435746,6.45028462 L104.435746,18.6679769 Z M98.7792077,1.81251538 L109.470362,1.81251538 C111.506285,1.81251538 113.381746,1.99074615 115.099438,2.3499 C116.8139,2.7069 118.272592,3.28143846 119.483054,4.07243846 C120.688669,4.86613077 121.632592,5.89513077 122.309977,7.15566923 C122.9879,8.42105385 123.329823,9.95782308 123.329823,11.7654385 C123.329823,14.4819769 122.591592,16.5658231 121.122669,18.0175154 C119.651592,19.4686692 117.670054,20.5154385 115.184515,21.1556692 L115.184515,21.2687462 C116.540362,21.3818231 117.775592,21.6828231 118.888054,22.1749769 C119.999977,22.6644385 120.961669,23.3149 121.772592,24.1258231 C122.581362,24.9372846 123.214054,25.8984385 123.665823,27.0114385 C124.120823,28.1233615 124.346438,29.3758231 124.346438,30.7720538 C124.346438,32.8839 123.942592,34.6188231 123.128977,35.9746692 C122.320208,37.3332077 121.226054,38.4074385 119.849746,39.1984385 C118.473438,39.9915923 116.872054,40.5392077 115.041285,40.8402077 C113.211054,41.1417462 111.2979,41.2919769 109.299131,41.2919769 L98.7792077,41.2919769 L98.7792077,1.81251538 Z M129.491062,12.4434154 L134.469677,12.4434154 L134.469677,16.9126462 L134.582754,16.9126462 C135.301062,15.4060308 136.345138,14.1708 137.721446,13.2091077 C139.097215,12.2474154 140.5586,11.7654923 142.1056,11.7654923 C142.898754,11.7654923 143.538985,11.8053385 144.028446,11.8812615 C144.5206,11.9566462 145.048292,12.0492615 145.6126,12.1623385 L145.6126,16.9126462 C145.123138,16.7268769 144.623985,16.5938769 144.113523,16.5158 C143.606831,16.4431077 143.124369,16.4054154 142.6726,16.4054154 C140.297446,16.4054154 138.391831,17.4597231 136.957908,19.5715692 C135.527215,21.6828769 134.808908,24.5501846 134.808908,28.1708 L134.808908,41.2920308 L129.491062,41.2920308 L129.491062,12.4434154 Z M148.610431,14.4818692 C149.929123,13.6887154 151.382969,13.0409462 152.966585,12.5288692 C154.548585,12.0216385 156.265738,11.7653308 158.114277,11.7653308 C162.262046,11.7653308 165.229508,12.7647154 167.022585,14.7634846 C168.812431,16.7622538 169.708969,19.7421 169.708969,23.7014077 L169.708969,35.6358692 C169.708969,37.2954077 169.7262,38.5505615 169.764431,39.3991769 C169.801585,40.2451 169.8592,40.8783308 169.934585,41.2918692 L164.958662,41.2918692 L164.958662,37.5587154 L164.842892,37.5587154 C164.541354,38.0137154 164.127277,38.4924077 163.600123,39.0023308 C163.070277,39.5095615 162.440277,39.9817923 161.704738,40.4157923 C160.970815,40.8503308 160.1222,41.2170231 159.158354,41.5180231 C158.199354,41.8195615 157.114354,41.9703308 155.907123,41.9703308 C154.360123,41.9703308 152.936969,41.8023308 151.636585,41.4631 C150.335123,41.1217154 149.213508,40.5843308 148.271738,39.8514846 C147.327815,39.1132538 146.601969,38.1811769 146.092585,37.0493308 C145.584815,35.9191 145.329585,34.5605615 145.329585,32.9764077 C145.329585,31.1687923 145.771123,29.6600231 146.659585,28.4522538 C147.543738,27.2466385 148.648662,26.2752538 149.968969,25.5397154 C151.287123,24.8036385 152.740969,24.2770231 154.322969,23.9550231 C155.907123,23.6362538 157.378738,23.4757923 158.736738,23.4757923 L161.563662,23.4757923 C162.392354,23.4757923 163.336277,23.5134846 164.391123,23.5867154 C164.391123,21.1006385 163.873662,19.2224846 162.833892,17.9597923 C161.800046,16.6965615 159.941815,16.0638692 157.265662,16.0638692 C155.756354,16.0638692 154.257815,16.3304077 152.765738,16.8575615 C151.277431,17.3847154 149.986738,18.1024846 148.894738,19.0065615 L148.610431,14.4818692 Z M176.271846,41.2920846 L176.271846,12.4434692 L181.587,12.4434692 L181.587,41.2920846 L176.271846,41.2920846 Z M175.930462,5.99593077 L175.930462,0.000161538462 L181.926231,0.000161538462 L181.926231,5.99593077 L175.930462,5.99593077 Z M188.486738,12.4434154 L193.636046,12.4434154 L193.636046,17.0284154 L193.746969,17.0284154 C194.540123,15.3688769 195.800662,14.0754923 197.538277,13.1514923 C199.270508,12.2274923 201.158892,11.7654923 203.192662,11.7654923 C206.928508,11.7654923 209.660123,12.8601846 211.395046,15.0468769 C213.130508,17.2341077 213.999046,20.2721077 213.999046,24.1538769 L213.999046,41.2920308 L208.6812,41.2920308 L208.6812,26.3583385 C208.6812,22.9660308 208.246662,20.4406462 207.380815,18.7805692 C206.512277,17.1210308 204.909815,16.2148 202.569662,16.0640308 C201.063046,16.0640308 199.752969,16.3580308 198.640508,16.9428 C197.528046,17.5254154 196.614277,18.3384923 195.896508,19.3734154 C195.180892,20.4126462 194.6532,21.6656462 194.314508,23.1340308 C193.972585,24.6056462 193.804585,26.2097231 193.804585,27.9451846 L193.804585,41.2920308 L188.486738,41.2920308 L188.486738,12.4434154 Z M164.391123,27.5481769 C163.825738,27.5481769 163.260892,27.5282538 162.693892,27.4905615 C162.129046,27.4528692 161.563662,27.4329462 160.996123,27.4329462 C160.280508,27.4329462 159.356508,27.4830231 158.224662,27.5761769 C157.094431,27.6687923 155.9922,27.9046385 154.917431,28.2815615 C153.8432,28.6601 152.916508,29.2157923 152.145969,29.9513308 C151.3722,30.6868692 150.985585,31.6959462 150.985585,32.9764077 C150.985585,33.7324077 151.154123,34.4022538 151.495508,34.9854077 C151.834738,35.5701769 152.259046,36.0601769 152.765738,36.4564846 C153.277815,36.8533308 153.850738,37.1548692 154.493123,37.3605615 C155.133892,37.5684077 155.756354,37.6717923 156.358892,37.6717923 C158.997354,37.6717923 160.996123,36.9459462 162.354662,35.4953308 C163.712662,34.0436385 164.391123,32.2435615 164.391123,30.0945615 L164.391123,27.5481769 Z"/>
    <path fill="#EE6F30" d="M225.7647,6.78903077 L213.489392,6.78903077 L213.489392,1.81256923 L243.693854,1.81256923 L243.693854,6.78903077 L231.419085,6.78903077 L231.419085,41.2920308 L225.7647,41.2920308 L225.7647,6.78903077 Z M263.885462,40.1049923 C263.356154,40.2929154 262.811231,40.4910692 262.245846,40.6999923 C261.678846,40.9056846 261.048846,41.1038385 260.350462,41.2923 C259.652615,41.4802231 258.841692,41.6385308 257.917692,41.7742231 C256.993692,41.9050692 255.949077,41.9702231 254.779,41.9702231 C252.213231,41.9702231 249.998538,41.5933 248.132769,40.8405308 C246.268077,40.0866846 244.720538,39.0296846 243.495538,37.6716846 C242.270538,36.3158385 241.356231,34.6740692 240.751,32.7506846 C240.148462,30.8273 239.847462,28.6982231 239.847462,26.3580692 C239.847462,24.2090692 240.166231,22.2501462 240.809154,20.4780692 C241.449385,18.7054538 242.365846,17.1686846 243.551,15.8683 C244.741,14.5673769 246.162,13.5583 247.821538,12.8399923 C249.481077,12.1270692 251.329615,11.7657615 253.365538,11.7657615 C255.778385,11.7657615 257.797077,12.1825308 259.418923,13.0106846 C261.038615,13.8393769 262.339,14.9819923 263.320615,16.4331462 C264.300077,17.8869923 265.008154,19.6095308 265.44,21.6077615 C265.874538,23.6065308 266.092615,25.7555308 266.092615,28.0558385 L245.504538,28.0558385 C245.504538,29.4919154 245.757615,30.7923 246.268077,31.9596846 C246.774769,33.1276077 247.473154,34.1366846 248.361615,34.9853 C249.245231,35.8339154 250.264538,36.4946077 251.414692,36.9641462 C252.564846,37.4358385 253.760231,37.6716846 255.005154,37.6716846 C255.873692,37.6716846 256.768077,37.5688385 257.691538,37.3604538 C258.615538,37.1547615 259.484077,36.9086846 260.292846,36.6276077 C261.106462,36.3433 261.821538,36.0320692 262.442385,35.6933769 C263.064846,35.3514538 263.546769,35.0504538 263.885462,34.7893 L263.885462,40.1049923 Z M260.436077,24.0986846 C260.436077,23.0039923 260.275077,21.9669154 259.956308,20.9853 C259.635385,20.0058385 259.172846,19.1475308 258.570308,18.4141462 C257.965077,17.6759154 257.212308,17.1035308 256.305538,16.6867615 C255.401462,16.2721462 254.382692,16.0643 253.252462,16.0643 C251.932154,16.0643 250.812154,16.3098385 249.888154,16.8019923 C248.964154,17.2893 248.190923,17.9219923 247.568462,18.6952231 C246.945462,19.4684538 246.473231,20.3273 246.152308,21.2690692 C245.833538,22.2103 245.614923,23.1542231 245.504538,24.0986846 L260.436077,24.0986846 Z M269.652977,35.6356538 C270.182823,35.9748846 270.747669,36.2780385 271.350208,36.5418846 C271.952746,36.8057308 272.557977,37.0211154 273.163208,37.1896538 C273.765746,37.3603462 274.338131,37.4836538 274.885746,37.5585 C275.432823,37.6365769 275.894823,37.6715769 276.271208,37.6715769 C276.873746,37.6715769 277.496208,37.6064231 278.139669,37.4761154 C278.779362,37.3431154 279.364669,37.1169615 279.892362,36.7955 C280.418977,36.4767308 280.853515,36.0502692 281.192746,35.5225769 C281.533592,34.9954231 281.702131,34.3352692 281.702131,33.5442692 C281.702131,32.6751923 281.3909,31.9423462 280.770592,31.3371154 C280.148131,30.7340385 279.3749,30.1767308 278.4509,29.6673462 C277.5269,29.1606538 276.527515,28.6604231 275.452746,28.1709615 C274.377977,27.6793462 273.379131,27.0967308 272.455131,26.4161154 C271.531131,25.7381923 270.7579,24.9466538 270.135438,24.0409615 C269.512438,23.1341923 269.200669,22.0045 269.200669,20.6486538 C269.200669,19.1398846 269.467208,17.8292692 269.994362,16.7168077 C270.521515,15.6043462 271.239823,14.6781923 272.1439,13.9448077 C273.047977,13.2092692 274.122208,12.6643462 275.367131,12.3030385 C276.613131,11.9465769 277.948515,11.7656538 279.384592,11.7656538 C280.6279,11.7656538 281.778054,11.8808846 282.834515,12.1070385 C283.889362,12.3331923 284.943669,12.5965 286.003362,12.8980385 L285.5489,17.5352692 C285.245208,17.3495 284.843515,17.1685769 284.3309,16.9978846 C283.823669,16.8271923 283.296515,16.6688846 282.7489,16.5159615 C282.201823,16.3678846 281.674669,16.2548077 281.164746,16.1794231 C280.655362,16.1045769 280.250977,16.0641923 279.949438,16.0641923 C278.591438,16.0641923 277.404131,16.3479615 276.386977,16.9128077 C275.367131,17.4803462 274.860438,18.3666538 274.860438,19.5717308 C274.860438,20.5533462 275.168977,21.3545769 275.791438,21.9743462 C276.414438,22.5968077 277.184977,23.1444231 278.109515,23.6166538 C279.033515,24.0888846 280.032362,24.5605769 281.107131,25.0301154 C282.1819,25.5023462 283.181285,26.0666538 284.105285,26.7273462 C285.029285,27.3880385 285.802515,28.2059615 286.424977,29.1875769 C287.047977,30.1697308 287.359208,31.4297308 287.359208,32.9767308 C287.359208,34.5237308 287.077592,35.8639615 286.510592,36.9936538 C285.943054,38.1238846 285.189746,39.0575769 284.247977,39.7936538 C283.306208,40.5291923 282.231977,41.0762692 281.024208,41.4332692 C279.816438,41.7924231 278.571515,41.9706538 277.291054,41.9706538 C275.934669,41.9706538 274.574515,41.8672692 273.218131,41.6594231 C271.862823,41.4531923 270.576977,41.0288846 269.3719,40.3886538 L269.652977,35.6356538 Z M306.873108,16.7445385 L299.237185,16.7445385 L299.237185,32.5246923 C299.237185,34.2219231 299.681954,35.5045385 300.565569,36.3714615 C301.452415,37.24 302.499185,37.6718462 303.706415,37.6718462 C304.535108,37.6718462 305.241031,37.5684615 305.828492,37.3606154 C306.411108,37.1549231 306.910262,36.9185385 307.324877,36.6525385 L307.324877,41.1793846 C306.722338,41.3678462 306.034185,41.5487692 305.260954,41.7162308 C304.487723,41.8847692 303.669262,41.9703846 302.800723,41.9703846 C300.048646,41.9703846 297.879185,41.3026923 296.297185,39.9619231 C294.713031,38.626 293.922031,36.5044615 293.922031,33.5989231 L293.922031,16.7445385 L287.414185,16.7445385 L287.414185,12.4433077 L293.922031,12.4433077 L293.922031,5.77015385 L299.237185,4.07238462 L299.237185,12.4433077 L306.873108,12.4433077 L306.873108,16.7445385 Z M313.6812,0.324853846 C316.0752,0.324853846 318.016354,2.26546923 318.016354,4.66000769 C318.016354,7.05400769 316.0752,8.99516154 313.6812,8.99516154 C311.2872,8.99516154 309.346046,7.05400769 309.346046,4.66000769 C309.346046,2.26546923 311.2872,0.324853846 313.6812,0.324853846 Z M313.6812,1.26716154 C311.810046,1.26716154 310.288354,2.78939231 310.288354,4.66000769 C310.288354,6.53062308 311.810046,8.05285385 313.6812,8.05285385 C315.552354,8.05285385 317.074046,6.53062308 317.074046,4.66000769 C317.074046,2.78939231 315.552354,1.26716154 313.6812,1.26716154 Z M313.094277,6.62124615 L311.994738,6.62124615 L311.994738,2.5984 C312.319969,2.54832308 312.919277,2.47347692 313.668815,2.47347692 C314.518508,2.47347692 314.893277,2.5984 315.167892,2.7734 C315.442508,2.9484 315.618046,3.24778462 315.618046,3.64786154 C315.618046,4.07270769 315.242738,4.42270769 314.718277,4.5724 L314.718277,4.62247692 C315.143123,4.77216923 315.367662,5.09686154 315.492585,5.64663077 C315.618046,6.24647692 315.717662,6.47101538 315.792508,6.62124615 L314.568046,6.62124615 C314.443123,6.47101538 314.368277,6.12155385 314.268662,5.69670769 C314.193277,5.27186154 313.968738,5.09686154 313.518585,5.09686154 L313.094277,5.09686154 L313.094277,6.62124615 Z M313.119046,4.32255385 L313.543892,4.32255385 C314.018815,4.32255385 314.368277,4.14755385 314.368277,3.79755385 C314.368277,3.44755385 314.093662,3.24778462 313.593969,3.24778462 C313.3942,3.24778462 313.243969,3.27309231 313.119046,3.27309231 L313.119046,4.32255385 Z"/>
  </g>
</svg>
