<svg xmlns="http://www.w3.org/2000/svg" width="113" height="42" viewBox="0 0 113 42">
  <path fill="#FDC830" d="M107.284898,24.88 C105.304898,34.5 98.0248983,41.62 87.6448983,41.62 C79.2348983,41.62 70.9848983,36.94 66.6248983,30.05 C66.6148983,30.04 66.6048983,30.02 66.6048983,30.01 C62.6148983,24.33 62.0148983,20.48 60.8848983,16.87 C60.0448983,14.15 57.3648983,13.68 56.0848983,13.62 L56.0748983,13.62 C54.7948983,13.68 52.1148983,14.14 51.2648983,16.87 C50.1348983,20.48 49.5348983,24.33 45.5448983,30.01 C45.5448983,30.02 45.5348983,30.04 45.5248983,30.05 C41.1648983,36.94 32.9148983,41.62 24.5048983,41.62 C14.1248983,41.62 6.8448983,34.5 4.8648983,24.88 L4.8548983,24.88 C3.5248983,20.09 3.0048983,11.489 2.5048983,10.37 C2.0048983,9.239 -0.115101696,8.489 0.00489830366,6.989 C0.134898304,5.489 1.6348983,3.87 9.5048983,1.62 C17.3848983,-0.63 27.3848983,0.12 27.3848983,0.12 L27.3848983,0.13 C30.4548983,0.18 33.3748983,0.48 35.9948983,1.18 C35.9948983,1.18 36.0948983,1.2 36.2648983,1.25 C37.5348983,1.54 42.9848983,3.01 47.2648983,6.739 C51.0148983,10.01 54.6148983,10.609 56.0748983,10.72 C57.5348983,10.609 61.1348983,10.01 64.8848983,6.739 C69.3048983,2.89 74.9748983,1.45 75.9948983,1.22 C76.0948983,1.19 76.1548983,1.18 76.1548983,1.18 C78.7748983,0.48 81.6948983,0.18 84.7648983,0.13 L84.7648983,0.12 C84.7648983,0.12 94.7648983,-0.63 102.634898,1.62 C110.514898,3.87 112.014898,5.5 112.134898,7 C112.264898,8.5 110.134898,9.25 109.634898,10.37 C109.134898,11.5 108.624898,20.09 107.294898,24.88 L107.284898,24.88 Z M85.9348983,1.69 C74.6048983,1.69 65.4248983,5.27 65.4248983,19.54 C65.4248983,30.87 76.4548983,40.05 87.7848983,40.05 C99.1048983,40.05 106.444898,30.87 106.444898,19.54 C106.444898,5.04 97.2548983,1.69 85.9348983,1.69 Z M26.2148983,1.69 C14.8948983,1.69 5.7048983,5.04 5.7048983,19.54 C5.7048983,30.87 13.0448983,40.05 24.3648983,40.05 C35.6948983,40.05 46.7248983,30.87 46.7248983,19.54 C46.7248983,5.27 37.5448983,1.69 26.2148983,1.69 Z"/>
</svg>
