<svg xmlns="http://www.w3.org/2000/svg" xmlns:xlink="http://www.w3.org/1999/xlink" width="100" height="108" viewBox="0 0 100 108">
  <defs>
    <path id="just10-logo-a" d="M51.6767,0.058925141 L51.6767,66.4579 C51.6767,68.3179 51.6767,73.2559 42.7897,73.5159 L41.9727,73.5379 C40.4047,73.5829 39.1227,74.9029 39.1227,76.4709 L39.1227,79.6849 C39.1227,81.3389 40.4767,82.6579 42.1307,82.6169 L42.9907,82.5939 C54.0107,82.3159 60.8557,76.1329 60.8557,66.4579 L60.8557,2.58200652 C61.2429695,2.77726337 61.6262214,2.98359453 62.005,3.201 L87.962,18.095 C95.398,22.361 99.978,30.247 99.978,38.78 L99.978,68.573 C99.978,77.106 95.398,84.991 87.962,89.257 L62.005,104.153 C58.328,106.263 54.23,107.329 50.128,107.353 L49.849,107.353 C45.747,107.329 41.649,106.263 37.974,104.153 L12.015,89.257 C4.58,84.991 0,77.106 0,68.573 L0,38.78 C0,30.247 4.58,22.361 12.015,18.095 L37.974,3.201 C41.691,1.067 45.84,0 49.989,0 C50.5519255,0 51.114851,0.0196417137 51.6767,0.058925141 Z"/>
  </defs>
  <g fill="none" fill-rule="evenodd"/>
</svg>
